{
DisplayStrings = (
""
);
classes = (
{
automatic = 1;
code = "A B C D E F G H I J K L M N O P Q R S T U V W X Y Z";
name = Uppercase;
}
);
copyright = "Copyright \U00A9 2014 Adobe Systems Incorporated. All Rights Reserved. ; \U00A9 2014 n-yuji";
customParameters = (
{
name = vendorID;
value = UKWN;
},
{
name = description;
value = "Dr. Ken Lunde (project architect, glyph set definition & overall production); Masataka HATTORI \U670D\U90E8\U6B63\U8CB4 (production & ideograph elements)";
},
{
name = license;
value = "Copyright \U00A9 2014 Adobe Systems Incorporated\015\012Licensed under the Apache License, Version 2.0 (the \"License\"); you may not use this file except in compliance with the License. You may obtain a copy of the License at http://www.apache.org/licenses/LICENSE-2.0.html\015\012Unless required by applicable law or agreed to in writing, software distributed under the License is distributed on an \"AS IS\" BASIS, WITHOUT WARRANTIES OR CONDITIONS OF ANY KIND, either express or implied. See the License for the specific language governing permissions and limitations under the License.";
},
{
name = licenseURL;
value = "http://www.apache.org/licenses/LICENSE-2.0.html";
}
);
date = "2014-12-22 13:05:00 +0000";
designer = "Ryoko NISHIZUKA \U897F\U585A\U6DBC\U5B50 (kana & ideographs); Paul D. Hunt (Latin, Greek & Cyrillic); Wenlong ZHANG \U5F20\U6587\U9F99 (bopomofo); Sandoll Communication \UC0B0\UB3CC\UCEE4\UBBA4\UB2C8\UCF00\UC774\UC158, Soo-young JANG \UC7A5\UC218\UC601 & Joo-yeon KANG \UAC15\UC8FC\UC5F0 (hangul elements, letters & syllables) ; n-yuji(modified)";
familyName = "Keyboard-JP";
featurePrefixes = (
{
automatic = 1;
code = "languagesystem DFLT dflt;\012languagesystem han dflt;\012languagesystem kana dflt;\012languagesystem latn dflt;\012";
name = Languagesystems;
}
);
features = (
{
automatic = 1;

glyphs = (
{
glyphname = A;
lastChange = "2014-10-20 10:44:24 +0000";
layers = (
{
layerId = "F84F5EB2-94F9-4556-9B6C-C2D485160B3A";
name = Regular;
paths = (
{
closed = 1;
nodes = (
"200 -75 LINE SMOOTH",
"115 -75 OFFCURVE",
"45 -5 OFFCURVE",
"45 80 CURVE SMOOTH",
"45 680 LINE SMOOTH",
"45 765 OFFCURVE",
"115 835 OFFCURVE",
"200 835 CURVE SMOOTH",
"800 835 LINE SMOOTH",
"885 835 OFFCURVE",
"955 765 OFFCURVE",
"955 680 CURVE SMOOTH",
"955 80 LINE SMOOTH",
"955 -5 OFFCURVE",
"885 -75 OFFCURVE",
"800 -75 CURVE SMOOTH"
);
},
{
closed = 1;
nodes = (
"131 805 OFFCURVE",
"75 749 OFFCURVE",
"75 680 CURVE SMOOTH",
"75 80 LINE SMOOTH",
"75 11 OFFCURVE",
"131 -45 OFFCURVE",
"200 -45 CURVE SMOOTH",
"800 -45 LINE SMOOTH",
"869 -45 OFFCURVE",
"925 11 OFFCURVE",
"925 80 CURVE SMOOTH",
"925 680 LINE SMOOTH",
"925 749 OFFCURVE",
"869 805 OFFCURVE",
"800 805 CURVE SMOOTH",
"200 805 LINE SMOOTH"
);
},
{
closed = 1;
nodes = (
"391 248 LINE",
"338 71 LINE",
"239 71 LINE",
"444 689 LINE",
"556 689 LINE",
"761 71 LINE",
"658 71 LINE",
"606 248 LINE"
);
},
{
closed = 1;
nodes = (
"558 407 LINE SMOOTH",
"537 474 OFFCURVE",
"518 543 OFFCURVE",
"499 613 CURVE",
"496 613 LINE",
"478 542 OFFCURVE",
"459 474 OFFCURVE",
"439 407 CURVE SMOOTH",
"413 324 LINE",
"582 324 LINE"
);
}
);
width = 1000;
}
);
unicode = 0041;
},
{
glyphname = B;
lastChange = "2014-10-20 10:55:22 +0000";
layers = (
{
layerId = "F84F5EB2-94F9-4556-9B6C-C2D485160B3A";
name = Regular;
paths = (
{
closed = 1;
nodes = (
"200 -75 LINE SMOOTH",
"115 -75 OFFCURVE",
"45 -5 OFFCURVE",
"45 80 CURVE SMOOTH",
"45 680 LINE SMOOTH",
"45 765 OFFCURVE",
"115 835 OFFCURVE",
"200 835 CURVE SMOOTH",
"800 835 LINE SMOOTH",
"886 835 OFFCURVE",
"955 765 OFFCURVE",
"955 680 CURVE SMOOTH",
"955 80 LINE SMOOTH",
"955 -5 OFFCURVE",
"886 -75 OFFCURVE",
"800 -75 CURVE SMOOTH"
);
},
{
closed = 1;
nodes = (
"131 805 OFFCURVE",
"75 749 OFFCURVE",
"75 680 CURVE SMOOTH",
"75 80 LINE SMOOTH",
"75 11 OFFCURVE",
"131 -45 OFFCURVE",
"200 -45 CURVE SMOOTH",
"800 -45 LINE SMOOTH",
"869 -45 OFFCURVE",
"925 11 OFFCURVE",
"925 80 CURVE SMOOTH",
"925 680 LINE SMOOTH",
"925 749 OFFCURVE",
"869 805 OFFCURVE",
"800 805 CURVE SMOOTH",
"200 805 LINE SMOOTH"
);
},
{
closed = 1;
nodes = (
"493 689 LINE SMOOTH",
"620 689 OFFCURVE",
"712 649 OFFCURVE",
"712 537 CURVE SMOOTH",
"712 479 OFFCURVE",
"679 422 OFFCURVE",
"623 404 CURVE",
"623 400 LINE",
"694 385 OFFCURVE",
"745 337 OFFCURVE",
"745 253 CURVE SMOOTH",
"745 130 OFFCURVE",
"645 71 OFFCURVE",
"508 71 CURVE SMOOTH",
"302 71 LINE",
"302 689 LINE"
);
},
{
closed = 1;
nodes = (
"576 432 OFFCURVE",
"616 467 OFFCURVE",
"616 525 CURVE SMOOTH",
"616 590 OFFCURVE",
"572 614 OFFCURVE",
"485 614 CURVE SMOOTH",
"399 614 LINE",
"399 432 LINE",
"482 432 LINE SMOOTH"
);
},
{
closed = 1;
nodes = (
"594 148 OFFCURVE",
"649 182 OFFCURVE",
"649 258 CURVE SMOOTH",
"649 327 OFFCURVE",
"596 358 OFFCURVE",
"497 358 CURVE SMOOTH",
"399 358 LINE",
"399 148 LINE",
"497 148 LINE SMOOTH"
);
}
);
width = 1000;
}
);
unicode = 0042;
},
{
glyphname = C;
lastChange = "2014-10-20 11:08:36 +0000";
layers = (
{
layerId = "F84F5EB2-94F9-4556-9B6C-C2D485160B3A";
name = Regular;
paths = (
{
closed = 1;
nodes = (
"200 -75 LINE SMOOTH",
"115 -75 OFFCURVE",
"45 -5 OFFCURVE",
"45 80 CURVE SMOOTH",
"45 680 LINE SMOOTH",
"45 766 OFFCURVE",
"115 835 OFFCURVE",
"200 835 CURVE SMOOTH",
"800 835 LINE SMOOTH",
"885 835 OFFCURVE",
"955 766 OFFCURVE",
"955 680 CURVE SMOOTH",
"955 80 LINE SMOOTH",
"955 -5 OFFCURVE",
"885 -75 OFFCURVE",
"800 -75 CURVE SMOOTH"
);
},
{
closed = 1;
nodes = (
"131 805 OFFCURVE",
"75 749 OFFCURVE",
"75 680 CURVE SMOOTH",
"75 80 LINE SMOOTH",
"75 12 OFFCURVE",
"131 -45 OFFCURVE",
"200 -45 CURVE SMOOTH",
"800 -45 LINE SMOOTH",
"869 -45 OFFCURVE",
"925 12 OFFCURVE",
"925 80 CURVE SMOOTH",
"925 680 LINE SMOOTH",
"925 749 OFFCURVE",
"869 805 OFFCURVE",
"800 805 CURVE SMOOTH",
"200 805 LINE SMOOTH"
);
},
{
closed = 1;
nodes = (
"277 581 OFFCURVE",
"399 702 OFFCURVE",
"555 702 CURVE SMOOTH",
"633 702 OFFCURVE",
"693 665 OFFCURVE",
"731 624 CURVE",
"678 561 LINE",
"646 594 OFFCURVE",
"608 617 OFFCURVE",
"557 617 CURVE SMOOTH",
"450 617 OFFCURVE",
"377 528 OFFCURVE",
"377 383 CURVE SMOOTH",
"377 236 OFFCURVE",
"445 146 OFFCURVE",
"555 146 CURVE SMOOTH",
"611 146 OFFCURVE",
"655 171 OFFCURVE",
"691 211 CURVE",
"744 150 LINE",
"694 93 OFFCURVE",
"631 61 OFFCURVE",
"551 61 CURVE SMOOTH",
"396 61 OFFCURVE",
"277 177 OFFCURVE",
"277 379 CURVE SMOOTH"
);
}
);
width = 1000;
}
);
unicode = 0043;
},
{
glyphname = D;
lastChange = "2014-10-20 11:10:54 +0000";
layers = (
{
layerId = "F84F5EB2-94F9-4556-9B6C-C2D485160B3A";
name = Regular;
paths = (
{
closed = 1;
nodes = (
"200 -75 LINE SMOOTH",
"115 -75 OFFCURVE",
"45 -5 OFFCURVE",
"45 80 CURVE SMOOTH",
"45 680 LINE SMOOTH",
"45 766 OFFCURVE",
"115 835 OFFCURVE",
"200 835 CURVE SMOOTH",
"800 835 LINE SMOOTH",
"885 835 OFFCURVE",
"955 766 OFFCURVE",
"955 680 CURVE SMOOTH",
"955 80 LINE SMOOTH",
"955 -5 OFFCURVE",
"885 -75 OFFCURVE",
"800 -75 CURVE SMOOTH"
);
},
{
closed = 1;
nodes = (
"131 805 OFFCURVE",
"75 749 OFFCURVE",
"75 680 CURVE SMOOTH",
"75 80 LINE SMOOTH",
"75 12 OFFCURVE",
"131 -45 OFFCURVE",
"200 -45 CURVE SMOOTH",
"800 -45 LINE SMOOTH",
"869 -45 OFFCURVE",
"925 12 OFFCURVE",
"925 80 CURVE SMOOTH",
"925 680 LINE SMOOTH",
"925 749 OFFCURVE",
"869 805 OFFCURVE",
"800 805 CURVE SMOOTH",
"200 805 LINE SMOOTH"
);
},
{
closed = 1;
nodes = (
"448 690 LINE SMOOTH",
"638 690 OFFCURVE",
"747 585 OFFCURVE",
"747 383 CURVE SMOOTH",
"747 183 OFFCURVE",
"638 72 OFFCURVE",
"453 72 CURVE SMOOTH",
"288 72 LINE",
"288 690 LINE"
);
},
{
closed = 1;
nodes = (
"574 152 OFFCURVE",
"646 230 OFFCURVE",
"646 383 CURVE SMOOTH",
"646 538 OFFCURVE",
"574 611 OFFCURVE",
"442 611 CURVE SMOOTH",
"385 611 LINE",
"385 152 LINE",
"442 152 LINE SMOOTH"
);
}
);
width = 1000;
}
);
unicode = 0044;
},
{
glyphname = E;
lastChange = "2014-10-20 11:13:23 +0000";
layers = (
{
layerId = "F84F5EB2-94F9-4556-9B6C-C2D485160B3A";
name = Regular;
paths = (
{
closed = 1;
nodes = (
"200 -75 LINE SMOOTH",
"115 -75 OFFCURVE",
"45 -5 OFFCURVE",
"45 80 CURVE SMOOTH",
"45 680 LINE SMOOTH",
"45 766 OFFCURVE",
"115 835 OFFCURVE",
"200 835 CURVE SMOOTH",
"800 835 LINE SMOOTH",
"885 835 OFFCURVE",
"955 766 OFFCURVE",
"955 680 CURVE SMOOTH",
"955 80 LINE SMOOTH",
"955 -5 OFFCURVE",
"885 -75 OFFCURVE",
"800 -75 CURVE SMOOTH"
);
},
{
closed = 1;
nodes = (
"131 805 OFFCURVE",
"75 749 OFFCURVE",
"75 680 CURVE SMOOTH",
"75 80 LINE SMOOTH",
"75 12 OFFCURVE",
"131 -45 OFFCURVE",
"200 -45 CURVE SMOOTH",
"800 -45 LINE SMOOTH",
"869 -45 OFFCURVE",
"925 12 OFFCURVE",
"925 80 CURVE SMOOTH",
"925 680 LINE SMOOTH",
"925 749 OFFCURVE",
"869 805 OFFCURVE",
"800 805 CURVE SMOOTH",
"200 805 LINE SMOOTH"
);
},
{
closed = 1;
nodes = (
"695 690 LINE",
"695 608 LINE",
"427 608 LINE",
"427 436 LINE",
"654 436 LINE",
"654 354 LINE",
"427 354 LINE",
"427 154 LINE",
"704 154 LINE",
"704 72 LINE",
"329 72 LINE",
"329 690 LINE"
);
}
);
width = 1000;
}
);
unicode = 0045;
},
{
glyphname = F;
lastChange = "2014-10-20 11:15:20 +0000";
layers = (
{
layerId = "F84F5EB2-94F9-4556-9B6C-C2D485160B3A";
name = Regular;
paths = (
{
closed = 1;
nodes = (
"200 -75 LINE SMOOTH",
"115 -75 OFFCURVE",
"45 -5 OFFCURVE",
"45 80 CURVE SMOOTH",
"45 680 LINE SMOOTH",
"45 766 OFFCURVE",
"115 835 OFFCURVE",
"200 835 CURVE SMOOTH",
"800 835 LINE SMOOTH",
"885 835 OFFCURVE",
"955 766 OFFCURVE",
"955 680 CURVE SMOOTH",
"955 80 LINE SMOOTH",
"955 -5 OFFCURVE",
"885 -75 OFFCURVE",
"800 -75 CURVE SMOOTH"
);
},
{
closed = 1;
nodes = (
"131 805 OFFCURVE",
"75 749 OFFCURVE",
"75 680 CURVE SMOOTH",
"75 80 LINE SMOOTH",
"75 12 OFFCURVE",
"131 -45 OFFCURVE",
"200 -45 CURVE SMOOTH",
"800 -45 LINE SMOOTH",
"869 -45 OFFCURVE",
"925 12 OFFCURVE",
"925 80 CURVE SMOOTH",
"925 680 LINE SMOOTH",
"925 749 OFFCURVE",
"869 805 OFFCURVE",
"800 805 CURVE SMOOTH",
"200 805 LINE SMOOTH"
);
},
{
closed = 1;
nodes = (
"710 690 LINE",
"710 608 LINE",
"441 608 LINE",
"441 419 LINE",
"670 419 LINE",
"670 338 LINE",
"441 338 LINE",
"441 72 LINE",
"344 72 LINE",
"344 690 LINE"
);
}
);
width = 1000;
}
);
unicode = 0046;
},
{
glyphname = G;
lastChange = "2014-10-20 11:18:03 +0000";
layers = (
{
layerId = "F84F5EB2-94F9-4556-9B6C-C2D485160B3A";
name = Regular;
paths = (
{
closed = 1;
nodes = (
"200 -75 LINE SMOOTH",
"115 -75 OFFCURVE",
"45 -5 OFFCURVE",
"45 80 CURVE SMOOTH",
"45 680 LINE SMOOTH",
"45 766 OFFCURVE",
"115 835 OFFCURVE",
"200 835 CURVE SMOOTH",
"800 835 LINE SMOOTH",
"885 835 OFFCURVE",
"955 766 OFFCURVE",
"955 680 CURVE SMOOTH",
"955 80 LINE SMOOTH",
"955 -5 OFFCURVE",
"885 -75 OFFCURVE",
"800 -75 CURVE SMOOTH"
);
},
{
closed = 1;
nodes = (
"131 805 OFFCURVE",
"75 749 OFFCURVE",
"75 680 CURVE SMOOTH",
"75 80 LINE SMOOTH",
"75 12 OFFCURVE",
"131 -45 OFFCURVE",
"200 -45 CURVE SMOOTH",
"800 -45 LINE SMOOTH",
"869 -45 OFFCURVE",
"925 12 OFFCURVE",
"925 80 CURVE SMOOTH",
"925 680 LINE SMOOTH",
"925 749 OFFCURVE",
"869 805 OFFCURVE",
"800 805 CURVE SMOOTH",
"200 805 LINE SMOOTH"
);
},
{
closed = 1;
nodes = (
"253 581 OFFCURVE",
"378 702 OFFCURVE",
"542 702 CURVE SMOOTH",
"629 702 OFFCURVE",
"688 663 OFFCURVE",
"726 624 CURVE",
"673 561 LINE",
"642 593 OFFCURVE",
"605 617 OFFCURVE",
"545 617 CURVE SMOOTH",
"430 617 OFFCURVE",
"353 528 OFFCURVE",
"353 383 CURVE SMOOTH",
"353 236 OFFCURVE",
"421 146 OFFCURVE",
"549 146 CURVE SMOOTH",
"587 146 OFFCURVE",
"625 157 OFFCURVE",
"647 176 CURVE",
"647 321 LINE",
"524 321 LINE",
"524 401 LINE",
"735 401 LINE",
"735 133 LINE",
"694 92 OFFCURVE",
"624 61 OFFCURVE",
"539 61 CURVE SMOOTH",
"374 61 OFFCURVE",
"253 177 OFFCURVE",
"253 379 CURVE SMOOTH"
);
}
);
width = 1000;
}
);
unicode = 0047;
},
{
glyphname = H;
lastChange = "2014-10-20 11:19:20 +0000";
layers = (
{
layerId = "F84F5EB2-94F9-4556-9B6C-C2D485160B3A";
name = Regular;
paths = (
{
closed = 1;
nodes = (
"200 -75 LINE SMOOTH",
"115 -75 OFFCURVE",
"45 -5 OFFCURVE",
"45 80 CURVE SMOOTH",
"45 680 LINE SMOOTH",
"45 766 OFFCURVE",
"115 835 OFFCURVE",
"200 835 CURVE SMOOTH",
"800 835 LINE SMOOTH",
"885 835 OFFCURVE",
"955 766 OFFCURVE",
"955 680 CURVE SMOOTH",
"955 80 LINE SMOOTH",
"955 -5 OFFCURVE",
"885 -75 OFFCURVE",
"800 -75 CURVE SMOOTH"
);
},
{
closed = 1;
nodes = (
"131 805 OFFCURVE",
"75 749 OFFCURVE",
"75 680 CURVE SMOOTH",
"75 80 LINE SMOOTH",
"75 12 OFFCURVE",
"131 -45 OFFCURVE",
"200 -45 CURVE SMOOTH",
"800 -45 LINE SMOOTH",
"869 -45 OFFCURVE",
"925 12 OFFCURVE",
"925 80 CURVE SMOOTH",
"925 680 LINE SMOOTH",
"925 749 OFFCURVE",
"869 805 OFFCURVE",
"800 805 CURVE SMOOTH",
"200 805 LINE SMOOTH"
);
},
{
closed = 1;
nodes = (
"368 690 LINE",
"368 438 LINE",
"633 438 LINE",
"633 690 LINE",
"730 690 LINE",
"730 72 LINE",
"633 72 LINE",
"633 353 LINE",
"368 353 LINE",
"368 72 LINE",
"271 72 LINE",
"271 690 LINE"
);
}
);
width = 1000;
}
);
unicode = 0048;
},
{
glyphname = I;
lastChange = "2014-10-20 11:20:01 +0000";
layers = (
{
layerId = "F84F5EB2-94F9-4556-9B6C-C2D485160B3A";
name = Regular;
paths = (
{
closed = 1;
nodes = (
"200 -75 LINE SMOOTH",
"115 -75 OFFCURVE",
"45 -5 OFFCURVE",
"45 80 CURVE SMOOTH",
"45 680 LINE SMOOTH",
"45 766 OFFCURVE",
"115 835 OFFCURVE",
"200 835 CURVE SMOOTH",
"800 835 LINE SMOOTH",
"885 835 OFFCURVE",
"955 766 OFFCURVE",
"955 680 CURVE SMOOTH",
"955 80 LINE SMOOTH",
"955 -5 OFFCURVE",
"885 -75 OFFCURVE",
"800 -75 CURVE SMOOTH"
);
},
{
closed = 1;
nodes = (
"131 805 OFFCURVE",
"75 749 OFFCURVE",
"75 680 CURVE SMOOTH",
"75 80 LINE SMOOTH",
"75 12 OFFCURVE",
"131 -45 OFFCURVE",
"200 -45 CURVE SMOOTH",
"800 -45 LINE SMOOTH",
"869 -45 OFFCURVE",
"925 12 OFFCURVE",
"925 80 CURVE SMOOTH",
"925 680 LINE SMOOTH",
"925 749 OFFCURVE",
"869 805 OFFCURVE",
"800 805 CURVE SMOOTH",
"200 805 LINE SMOOTH"
);
},
{
closed = 1;
nodes = (
"549 690 LINE",
"549 72 LINE",
"452 72 LINE",
"452 690 LINE"
);
}
);
width = 1000;
}
);
unicode = 0049;
},
{
glyphname = J;
lastChange = "2014-10-20 11:21:01 +0000";
layers = (
{
layerId = "F84F5EB2-94F9-4556-9B6C-C2D485160B3A";
name = Regular;
paths = (
{
closed = 1;
nodes = (
"200 -75 LINE SMOOTH",
"115 -75 OFFCURVE",
"45 -5 OFFCURVE",
"45 80 CURVE SMOOTH",
"45 680 LINE SMOOTH",
"45 766 OFFCURVE",
"115 835 OFFCURVE",
"200 835 CURVE SMOOTH",
"800 835 LINE SMOOTH",
"885 835 OFFCURVE",
"955 766 OFFCURVE",
"955 680 CURVE SMOOTH",
"955 80 LINE SMOOTH",
"955 -5 OFFCURVE",
"885 -75 OFFCURVE",
"800 -75 CURVE SMOOTH"
);
},
{
closed = 1;
nodes = (
"131 805 OFFCURVE",
"75 749 OFFCURVE",
"75 680 CURVE SMOOTH",
"75 80 LINE SMOOTH",
"75 12 OFFCURVE",
"131 -45 OFFCURVE",
"200 -45 CURVE SMOOTH",
"800 -45 LINE SMOOTH",
"869 -45 OFFCURVE",
"925 12 OFFCURVE",
"925 80 CURVE SMOOTH",
"925 680 LINE SMOOTH",
"925 749 OFFCURVE",
"869 805 OFFCURVE",
"800 805 CURVE SMOOTH",
"200 805 LINE SMOOTH"
);
},
{
closed = 1;
nodes = (
"362 213 LINE",
"388 165 OFFCURVE",
"422 146 OFFCURVE",
"462 146 CURVE SMOOTH",
"524 146 OFFCURVE",
"555 179 OFFCURVE",
"555 270 CURVE SMOOTH",
"555 690 LINE",
"653 690 LINE",
"653 261 LINE SMOOTH",
"653 150 OFFCURVE",
"599 61 OFFCURVE",
"473 61 CURVE SMOOTH",
"390 61 OFFCURVE",
"333 95 OFFCURVE",
"294 163 CURVE"
);
}
);
width = 1000;
}
);
unicode = 004A;
},
{
glyphname = K;
lastChange = "2014-10-20 11:21:39 +0000";
layers = (
{
layerId = "F84F5EB2-94F9-4556-9B6C-C2D485160B3A";
name = Regular;
paths = (
{
closed = 1;
nodes = (
"200 -75 LINE SMOOTH",
"115 -75 OFFCURVE",
"45 -5 OFFCURVE",
"45 80 CURVE SMOOTH",
"45 680 LINE SMOOTH",
"45 766 OFFCURVE",
"115 835 OFFCURVE",
"200 835 CURVE SMOOTH",
"800 835 LINE SMOOTH",
"885 835 OFFCURVE",
"955 766 OFFCURVE",
"955 680 CURVE SMOOTH",
"955 80 LINE SMOOTH",
"955 -5 OFFCURVE",
"885 -75 OFFCURVE",
"800 -75 CURVE SMOOTH"
);
},
{
closed = 1;
nodes = (
"131 805 OFFCURVE",
"75 749 OFFCURVE",
"75 680 CURVE SMOOTH",
"75 80 LINE SMOOTH",
"75 12 OFFCURVE",
"131 -45 OFFCURVE",
"200 -45 CURVE SMOOTH",
"800 -45 LINE SMOOTH",
"869 -45 OFFCURVE",
"925 12 OFFCURVE",
"925 80 CURVE SMOOTH",
"925 680 LINE SMOOTH",
"925 749 OFFCURVE",
"869 805 OFFCURVE",
"800 805 CURVE SMOOTH",
"200 805 LINE SMOOTH"
);
},
{
closed = 1;
nodes = (
"400 690 LINE",
"400 398 LINE",
"403 398 LINE",
"638 690 LINE",
"747 690 LINE",
"555 451 LINE",
"778 72 LINE",
"670 72 LINE",
"495 374 LINE",
"400 258 LINE",
"400 72 LINE",
"303 72 LINE",
"303 690 LINE"
);
}
);
width = 1000;
}
);
unicode = 004B;
},
{
glyphname = L;
lastChange = "2014-10-20 11:22:22 +0000";
layers = (
{
layerId = "F84F5EB2-94F9-4556-9B6C-C2D485160B3A";
name = Regular;
paths = (
{
closed = 1;
nodes = (
"200 -75 LINE SMOOTH",
"115 -75 OFFCURVE",
"45 -5 OFFCURVE",
"45 80 CURVE SMOOTH",
"45 680 LINE SMOOTH",
"45 766 OFFCURVE",
"115 835 OFFCURVE",
"200 835 CURVE SMOOTH",
"800 835 LINE SMOOTH",
"885 835 OFFCURVE",
"955 766 OFFCURVE",
"955 680 CURVE SMOOTH",
"955 80 LINE SMOOTH",
"955 -5 OFFCURVE",
"885 -75 OFFCURVE",
"800 -75 CURVE SMOOTH"
);
},
{
closed = 1;
nodes = (
"131 805 OFFCURVE",
"75 749 OFFCURVE",
"75 680 CURVE SMOOTH",
"75 80 LINE SMOOTH",
"75 12 OFFCURVE",
"131 -45 OFFCURVE",
"200 -45 CURVE SMOOTH",
"800 -45 LINE SMOOTH",
"869 -45 OFFCURVE",
"925 12 OFFCURVE",
"925 80 CURVE SMOOTH",
"925 680 LINE SMOOTH",
"925 749 OFFCURVE",
"869 805 OFFCURVE",
"800 805 CURVE SMOOTH",
"200 805 LINE SMOOTH"
);
},
{
closed = 1;
nodes = (
"445 690 LINE",
"445 154 LINE",
"706 154 LINE",
"706 72 LINE",
"348 72 LINE",
"348 690 LINE"
);
}
);
width = 1000;
}
);
unicode = 004C;
},
{
glyphname = M;
lastChange = "2014-10-20 11:23:47 +0000";
layers = (
{
layerId = "F84F5EB2-94F9-4556-9B6C-C2D485160B3A";
name = Regular;
paths = (
{
closed = 1;
nodes = (
"200 -75 LINE SMOOTH",
"115 -75 OFFCURVE",
"45 -5 OFFCURVE",
"45 80 CURVE SMOOTH",
"45 680 LINE SMOOTH",
"45 766 OFFCURVE",
"115 835 OFFCURVE",
"200 835 CURVE SMOOTH",
"800 835 LINE SMOOTH",
"885 835 OFFCURVE",
"955 766 OFFCURVE",
"955 680 CURVE SMOOTH",
"955 80 LINE SMOOTH",
"955 -5 OFFCURVE",
"885 -75 OFFCURVE",
"800 -75 CURVE SMOOTH"
);
},
{
closed = 1;
nodes = (
"131 805 OFFCURVE",
"75 749 OFFCURVE",
"75 680 CURVE SMOOTH",
"75 80 LINE SMOOTH",
"75 12 OFFCURVE",
"131 -45 OFFCURVE",
"200 -45 CURVE SMOOTH",
"800 -45 LINE SMOOTH",
"869 -45 OFFCURVE",
"925 12 OFFCURVE",
"925 80 CURVE SMOOTH",
"925 680 LINE SMOOTH",
"925 749 OFFCURVE",
"869 805 OFFCURVE",
"800 805 CURVE SMOOTH",
"200 805 LINE SMOOTH"
);
},
{
closed = 1;
nodes = (
"345 690 LINE",
"458 377 LINE SMOOTH",
"472 336 OFFCURVE",
"485 294 OFFCURVE",
"499 252 CURVE",
"503 252 LINE",
"518 294 OFFCURVE",
"529 336 OFFCURVE",
"544 377 CURVE SMOOTH",
"655 690 LINE",
"768 690 LINE",
"768 72 LINE",
"677 72 LINE",
"677 377 LINE SMOOTH",
"677 433 OFFCURVE",
"685 513 OFFCURVE",
"690 569 CURVE",
"686 569 LINE",
"637 426 LINE",
"529 131 LINE",
"469 131 LINE",
"361 426 LINE",
"312 569 LINE",
"308 569 LINE",
"313 513 OFFCURVE",
"320 433 OFFCURVE",
"320 377 CURVE SMOOTH",
"320 72 LINE",
"233 72 LINE",
"233 690 LINE"
);
}
);
width = 1000;
}
);
unicode = 004D;
},
{
glyphname = N;
lastChange = "2014-10-20 11:24:31 +0000";
layers = (
{
layerId = "F84F5EB2-94F9-4556-9B6C-C2D485160B3A";
name = Regular;
paths = (
{
closed = 1;
nodes = (
"200 -75 LINE SMOOTH",
"115 -75 OFFCURVE",
"45 -6 OFFCURVE",
"45 80 CURVE SMOOTH",
"45 680 LINE SMOOTH",
"45 765 OFFCURVE",
"115 835 OFFCURVE",
"200 835 CURVE SMOOTH",
"800 835 LINE SMOOTH",
"885 835 OFFCURVE",
"955 765 OFFCURVE",
"955 680 CURVE SMOOTH",
"955 80 LINE SMOOTH",
"955 -6 OFFCURVE",
"885 -75 OFFCURVE",
"800 -75 CURVE SMOOTH"
);
},
{
closed = 1;
nodes = (
"131 805 OFFCURVE",
"75 749 OFFCURVE",
"75 680 CURVE SMOOTH",
"75 80 LINE SMOOTH",
"75 11 OFFCURVE",
"131 -45 OFFCURVE",
"200 -45 CURVE SMOOTH",
"800 -45 LINE SMOOTH",
"869 -45 OFFCURVE",
"925 11 OFFCURVE",
"925 80 CURVE SMOOTH",
"925 680 LINE SMOOTH",
"925 749 OFFCURVE",
"869 805 OFFCURVE",
"800 805 CURVE SMOOTH",
"200 805 LINE SMOOTH"
);
},
{
closed = 1;
nodes = (
"373 689 LINE",
"578 326 LINE",
"643 195 LINE",
"647 195 LINE",
"642 259 OFFCURVE",
"634 334 OFFCURVE",
"634 401 CURVE SMOOTH",
"634 689 LINE",
"727 689 LINE",
"727 71 LINE",
"627 71 LINE",
"422 435 LINE",
"357 565 LINE",
"353 565 LINE",
"358 501 OFFCURVE",
"366 430 OFFCURVE",
"366 362 CURVE SMOOTH",
"366 71 LINE",
"273 71 LINE",
"273 689 LINE"
);
}
);
width = 1000;
}
);
unicode = 004E;
},
{
glyphname = O;
lastChange = "2014-10-20 11:27:41 +0000";
layers = (
{
layerId = "F84F5EB2-94F9-4556-9B6C-C2D485160B3A";
name = Regular;
paths = (
{
closed = 1;
nodes = (
"200 -75 LINE SMOOTH",
"115 -75 OFFCURVE",
"45 -6 OFFCURVE",
"45 80 CURVE SMOOTH",
"45 680 LINE SMOOTH",
"45 765 OFFCURVE",
"115 835 OFFCURVE",
"200 835 CURVE SMOOTH",
"800 835 LINE SMOOTH",
"885 835 OFFCURVE",
"955 765 OFFCURVE",
"955 680 CURVE SMOOTH",
"955 80 LINE SMOOTH",
"955 -6 OFFCURVE",
"885 -75 OFFCURVE",
"800 -75 CURVE SMOOTH"
);
},
{
closed = 1;
nodes = (
"131 805 OFFCURVE",
"75 749 OFFCURVE",
"75 680 CURVE SMOOTH",
"75 80 LINE SMOOTH",
"75 11 OFFCURVE",
"131 -45 OFFCURVE",
"200 -45 CURVE SMOOTH",
"800 -45 LINE SMOOTH",
"869 -45 OFFCURVE",
"925 11 OFFCURVE",
"925 80 CURVE SMOOTH",
"925 680 LINE SMOOTH",
"925 749 OFFCURVE",
"869 805 OFFCURVE",
"800 805 CURVE SMOOTH",
"200 805 LINE SMOOTH"
);
},
{
closed = 1;
nodes = (
"231 582 OFFCURVE",
"341 701 OFFCURVE",
"500 701 CURVE SMOOTH",
"659 701 OFFCURVE",
"770 582 OFFCURVE",
"770 383 CURVE SMOOTH",
"770 183 OFFCURVE",
"659 60 OFFCURVE",
"500 60 CURVE SMOOTH",
"341 60 OFFCURVE",
"231 183 OFFCURVE",
"231 383 CURVE SMOOTH"
);
},
{
closed = 1;
nodes = (
"670 528 OFFCURVE",
"602 616 OFFCURVE",
"500 616 CURVE SMOOTH",
"398 616 OFFCURVE",
"331 528 OFFCURVE",
"331 383 CURVE SMOOTH",
"331 237 OFFCURVE",
"398 145 OFFCURVE",
"500 145 CURVE SMOOTH",
"602 145 OFFCURVE",
"670 237 OFFCURVE",
"670 383 CURVE SMOOTH"
);
}
);
width = 1000;
}
);
unicode = 004F;
},
{
glyphname = P;
lastChange = "2014-10-20 11:28:20 +0000";
layers = (
{
layerId = "F84F5EB2-94F9-4556-9B6C-C2D485160B3A";
name = Regular;
paths = (
{
closed = 1;
nodes = (
"200 -75 LINE SMOOTH",
"115 -75 OFFCURVE",
"45 -6 OFFCURVE",
"45 80 CURVE SMOOTH",
"45 680 LINE SMOOTH",
"45 765 OFFCURVE",
"115 835 OFFCURVE",
"200 835 CURVE SMOOTH",
"800 835 LINE SMOOTH",
"885 835 OFFCURVE",
"955 765 OFFCURVE",
"955 680 CURVE SMOOTH",
"955 80 LINE SMOOTH",
"955 -6 OFFCURVE",
"885 -75 OFFCURVE",
"800 -75 CURVE SMOOTH"
);
},
{
closed = 1;
nodes = (
"131 805 OFFCURVE",
"75 749 OFFCURVE",
"75 680 CURVE SMOOTH",
"75 80 LINE SMOOTH",
"75 11 OFFCURVE",
"131 -45 OFFCURVE",
"200 -45 CURVE SMOOTH",
"800 -45 LINE SMOOTH",
"869 -45 OFFCURVE",
"925 11 OFFCURVE",
"925 80 CURVE SMOOTH",
"925 680 LINE SMOOTH",
"925 749 OFFCURVE",
"869 805 OFFCURVE",
"800 805 CURVE SMOOTH",
"200 805 LINE SMOOTH"
);
},
{
closed = 1;
nodes = (
"497 689 LINE SMOOTH",
"635 689 OFFCURVE",
"733 642 OFFCURVE",
"733 503 CURVE SMOOTH",
"733 367 OFFCURVE",
"635 305 OFFCURVE",
"500 305 CURVE SMOOTH",
"407 305 LINE",
"407 71 LINE",
"310 71 LINE",
"310 689 LINE"
);
},
{
closed = 1;
nodes = (
"590 383 OFFCURVE",
"637 421 OFFCURVE",
"637 503 CURVE SMOOTH",
"637 584 OFFCURVE",
"586 611 OFFCURVE",
"488 611 CURVE SMOOTH",
"407 611 LINE",
"407 383 LINE",
"491 383 LINE SMOOTH"
);
}
);
width = 1000;
}
);
unicode = 0050;
},
{
glyphname = Q;
lastChange = "2014-10-20 11:29:23 +0000";
layers = (
{
layerId = "F84F5EB2-94F9-4556-9B6C-C2D485160B3A";
name = Regular;
paths = (
{
closed = 1;
nodes = (
"200 -75 LINE SMOOTH",
"115 -75 OFFCURVE",
"45 -6 OFFCURVE",
"45 80 CURVE SMOOTH",
"45 680 LINE SMOOTH",
"45 765 OFFCURVE",
"115 835 OFFCURVE",
"200 835 CURVE SMOOTH",
"800 835 LINE SMOOTH",
"885 835 OFFCURVE",
"955 765 OFFCURVE",
"955 680 CURVE SMOOTH",
"955 80 LINE SMOOTH",
"955 -6 OFFCURVE",
"885 -75 OFFCURVE",
"800 -75 CURVE SMOOTH"
);
},
{
closed = 1;
nodes = (
"131 805 OFFCURVE",
"75 749 OFFCURVE",
"75 680 CURVE SMOOTH",
"75 80 LINE SMOOTH",
"75 11 OFFCURVE",
"131 -45 OFFCURVE",
"200 -45 CURVE SMOOTH",
"800 -45 LINE SMOOTH",
"869 -45 OFFCURVE",
"925 11 OFFCURVE",
"925 80 CURVE SMOOTH",
"925 680 LINE SMOOTH",
"925 749 OFFCURVE",
"869 805 OFFCURVE",
"800 805 CURVE SMOOTH",
"200 805 LINE SMOOTH"
);
},
{
closed = 1;
nodes = (
"737 206 LINE",
"760 255 OFFCURVE",
"774 314 OFFCURVE",
"774 383 CURVE SMOOTH",
"774 582 OFFCURVE",
"663 701 OFFCURVE",
"504 701 CURVE SMOOTH",
"345 701 OFFCURVE",
"235 582 OFFCURVE",
"235 383 CURVE SMOOTH",
"235 183 OFFCURVE",
"345 60 OFFCURVE",
"504 60 CURVE SMOOTH",
"579 60 OFFCURVE",
"643 88 OFFCURVE",
"689 137 CURVE",
"801 64 LINE",
"847 134 LINE"
);
},
{
closed = 1;
nodes = (
"402 145 OFFCURVE",
"335 237 OFFCURVE",
"335 383 CURVE SMOOTH",
"335 528 OFFCURVE",
"402 616 OFFCURVE",
"504 616 CURVE SMOOTH",
"606 616 OFFCURVE",
"674 528 OFFCURVE",
"674 383 CURVE SMOOTH",
"674 336 OFFCURVE",
"667 295 OFFCURVE",
"654 260 CURVE",
"530 342 LINE",
"484 272 LINE",
"610 189 LINE",
"582 161 OFFCURVE",
"546 145 OFFCURVE",
"504 145 CURVE SMOOTH"
);
}
);
width = 1000;
}
);
unicode = 0051;
},
{
glyphname = R;
lastChange = "2014-10-20 11:30:41 +0000";
layers = (
{
layerId = "F84F5EB2-94F9-4556-9B6C-C2D485160B3A";
name = Regular;
paths = (
{
closed = 1;
nodes = (
"200 -75 LINE SMOOTH",
"115 -75 OFFCURVE",
"45 -6 OFFCURVE",
"45 80 CURVE SMOOTH",
"45 680 LINE SMOOTH",
"45 765 OFFCURVE",
"115 835 OFFCURVE",
"200 835 CURVE SMOOTH",
"800 835 LINE SMOOTH",
"885 835 OFFCURVE",
"955 765 OFFCURVE",
"955 680 CURVE SMOOTH",
"955 80 LINE SMOOTH",
"955 -6 OFFCURVE",
"885 -75 OFFCURVE",
"800 -75 CURVE SMOOTH"
);
},
{
closed = 1;
nodes = (
"131 805 OFFCURVE",
"75 749 OFFCURVE",
"75 680 CURVE SMOOTH",
"75 80 LINE SMOOTH",
"75 11 OFFCURVE",
"131 -45 OFFCURVE",
"200 -45 CURVE SMOOTH",
"800 -45 LINE SMOOTH",
"869 -45 OFFCURVE",
"925 11 OFFCURVE",
"925 80 CURVE SMOOTH",
"925 680 LINE SMOOTH",
"925 749 OFFCURVE",
"869 805 OFFCURVE",
"800 805 CURVE SMOOTH",
"200 805 LINE SMOOTH"
);
},
{
closed = 1;
nodes = (
"504 320 LINE",
"404 320 LINE",
"404 71 LINE",
"306 71 LINE",
"306 689 LINE",
"509 689 LINE SMOOTH",
"636 689 OFFCURVE",
"732 644 OFFCURVE",
"732 510 CURVE SMOOTH",
"732 414 OFFCURVE",
"681 357 OFFCURVE",
"603 333 CURVE",
"754 71 LINE",
"644 71 LINE"
);
},
{
closed = 1;
nodes = (
"497 398 LINE SMOOTH",
"587 398 OFFCURVE",
"636 435 OFFCURVE",
"636 510 CURVE SMOOTH",
"636 585 OFFCURVE",
"587 611 OFFCURVE",
"497 611 CURVE SMOOTH",
"404 611 LINE",
"404 398 LINE"
);
}
);
width = 1000;
}
);
unicode = 0052;
},
{
glyphname = S;
lastChange = "2014-10-20 11:31:21 +0000";
layers = (
{
layerId = "F84F5EB2-94F9-4556-9B6C-C2D485160B3A";
name = Regular;
paths = (
{
closed = 1;
nodes = (
"200 -75 LINE SMOOTH",
"115 -75 OFFCURVE",
"45 -6 OFFCURVE",
"45 80 CURVE SMOOTH",
"45 680 LINE SMOOTH",
"45 765 OFFCURVE",
"115 835 OFFCURVE",
"200 835 CURVE SMOOTH",
"800 835 LINE SMOOTH",
"885 835 OFFCURVE",
"955 765 OFFCURVE",
"955 680 CURVE SMOOTH",
"955 80 LINE SMOOTH",
"955 -6 OFFCURVE",
"885 -75 OFFCURVE",
"800 -75 CURVE SMOOTH"
);
},
{
closed = 1;
nodes = (
"131 805 OFFCURVE",
"75 749 OFFCURVE",
"75 680 CURVE SMOOTH",
"75 80 LINE SMOOTH",
"75 11 OFFCURVE",
"131 -45 OFFCURVE",
"200 -45 CURVE SMOOTH",
"800 -45 LINE SMOOTH",
"869 -45 OFFCURVE",
"925 11 OFFCURVE",
"925 80 CURVE SMOOTH",
"925 680 LINE SMOOTH",
"925 749 OFFCURVE",
"869 805 OFFCURVE",
"800 805 CURVE SMOOTH",
"200 805 LINE SMOOTH"
);
},
{
closed = 1;
nodes = (
"340 218 LINE",
"384 173 OFFCURVE",
"445 145 OFFCURVE",
"504 145 CURVE SMOOTH",
"579 145 OFFCURVE",
"621 180 OFFCURVE",
"621 232 CURVE SMOOTH",
"621 288 OFFCURVE",
"579 306 OFFCURVE",
"522 331 CURVE SMOOTH",
"436 368 LINE SMOOTH",
"377 393 OFFCURVE",
"310 440 OFFCURVE",
"310 530 CURVE SMOOTH",
"310 628 OFFCURVE",
"396 701 OFFCURVE",
"513 701 CURVE SMOOTH",
"586 701 OFFCURVE",
"654 671 OFFCURVE",
"701 623 CURVE",
"650 561 LINE",
"611 595 OFFCURVE",
"568 616 OFFCURVE",
"513 616 CURVE SMOOTH",
"450 616 OFFCURVE",
"409 586 OFFCURVE",
"409 536 CURVE SMOOTH",
"409 483 OFFCURVE",
"459 463 OFFCURVE",
"509 443 CURVE SMOOTH",
"594 407 LINE SMOOTH",
"667 376 OFFCURVE",
"720 330 OFFCURVE",
"720 240 CURVE SMOOTH",
"720 141 OFFCURVE",
"638 60 OFFCURVE",
"503 60 CURVE SMOOTH",
"418 60 OFFCURVE",
"339 94 OFFCURVE",
"282 151 CURVE"
);
}
);
width = 1000;
}
);
unicode = 0053;
},
{
glyphname = T;
lastChange = "2014-10-20 11:31:57 +0000";
layers = (
{
layerId = "F84F5EB2-94F9-4556-9B6C-C2D485160B3A";
name = Regular;
paths = (
{
closed = 1;
nodes = (
"200 -75 LINE SMOOTH",
"115 -75 OFFCURVE",
"45 -6 OFFCURVE",
"45 80 CURVE SMOOTH",
"45 680 LINE SMOOTH",
"45 765 OFFCURVE",
"115 835 OFFCURVE",
"200 835 CURVE SMOOTH",
"800 835 LINE SMOOTH",
"885 835 OFFCURVE",
"955 765 OFFCURVE",
"955 680 CURVE SMOOTH",
"955 80 LINE SMOOTH",
"955 -6 OFFCURVE",
"885 -75 OFFCURVE",
"800 -75 CURVE SMOOTH"
);
},
{
closed = 1;
nodes = (
"131 805 OFFCURVE",
"75 749 OFFCURVE",
"75 680 CURVE SMOOTH",
"75 80 LINE SMOOTH",
"75 11 OFFCURVE",
"131 -45 OFFCURVE",
"200 -45 CURVE SMOOTH",
"800 -45 LINE SMOOTH",
"869 -45 OFFCURVE",
"925 11 OFFCURVE",
"925 80 CURVE SMOOTH",
"925 680 LINE SMOOTH",
"925 749 OFFCURVE",
"869 805 OFFCURVE",
"800 805 CURVE SMOOTH",
"200 805 LINE SMOOTH"
);
},
{
closed = 1;
nodes = (
"270 608 LINE",
"270 689 LINE",
"731 689 LINE",
"731 608 LINE",
"549 608 LINE",
"549 71 LINE",
"451 71 LINE",
"451 608 LINE"
);
}
);
width = 1000;
}
);
unicode = 0054;
},
{
glyphname = U;
lastChange = "2014-10-20 11:33:15 +0000";
layers = (
{
layerId = "F84F5EB2-94F9-4556-9B6C-C2D485160B3A";
name = Regular;
paths = (
{
closed = 1;
nodes = (
"200 -75 LINE SMOOTH",
"115 -75 OFFCURVE",
"45 -6 OFFCURVE",
"45 80 CURVE SMOOTH",
"45 680 LINE SMOOTH",
"45 765 OFFCURVE",
"115 835 OFFCURVE",
"200 835 CURVE SMOOTH",
"800 835 LINE SMOOTH",
"885 835 OFFCURVE",
"955 765 OFFCURVE",
"955 680 CURVE SMOOTH",
"955 80 LINE SMOOTH",
"955 -6 OFFCURVE",
"885 -75 OFFCURVE",
"800 -75 CURVE SMOOTH"
);
},
{
closed = 1;
nodes = (
"131 805 OFFCURVE",
"75 749 OFFCURVE",
"75 680 CURVE SMOOTH",
"75 80 LINE SMOOTH",
"75 11 OFFCURVE",
"131 -45 OFFCURVE",
"200 -45 CURVE SMOOTH",
"800 -45 LINE SMOOTH",
"869 -45 OFFCURVE",
"925 11 OFFCURVE",
"925 80 CURVE SMOOTH",
"925 680 LINE SMOOTH",
"925 749 OFFCURVE",
"869 805 OFFCURVE",
"800 805 CURVE SMOOTH",
"200 805 LINE SMOOTH"
);
},
{
closed = 1;
nodes = (
"270 689 LINE",
"368 689 LINE",
"368 330 LINE SMOOTH",
"368 190 OFFCURVE",
"423 145 OFFCURVE",
"500 145 CURVE SMOOTH",
"579 145 OFFCURVE",
"636 190 OFFCURVE",
"636 330 CURVE SMOOTH",
"636 689 LINE",
"730 689 LINE",
"730 336 LINE SMOOTH",
"730 135 OFFCURVE",
"637 60 OFFCURVE",
"500 60 CURVE SMOOTH",
"363 60 OFFCURVE",
"270 135 OFFCURVE",
"270 336 CURVE SMOOTH"
);
}
);
width = 1000;
}
);
unicode = 0055;
},
{
glyphname = V;
lastChange = "2014-10-20 11:34:19 +0000";
layers = (
{
layerId = "F84F5EB2-94F9-4556-9B6C-C2D485160B3A";
name = Regular;
paths = (
{
closed = 1;
nodes = (
"200 -75 LINE SMOOTH",
"115 -75 OFFCURVE",
"45 -6 OFFCURVE",
"45 80 CURVE SMOOTH",
"45 680 LINE SMOOTH",
"45 765 OFFCURVE",
"115 835 OFFCURVE",
"200 835 CURVE SMOOTH",
"800 835 LINE SMOOTH",
"885 835 OFFCURVE",
"955 765 OFFCURVE",
"955 680 CURVE SMOOTH",
"955 80 LINE SMOOTH",
"955 -6 OFFCURVE",
"885 -75 OFFCURVE",
"800 -75 CURVE SMOOTH"
);
},
{
closed = 1;
nodes = (
"131 805 OFFCURVE",
"75 749 OFFCURVE",
"75 680 CURVE SMOOTH",
"75 80 LINE SMOOTH",
"75 11 OFFCURVE",
"131 -45 OFFCURVE",
"200 -45 CURVE SMOOTH",
"800 -45 LINE SMOOTH",
"869 -45 OFFCURVE",
"925 11 OFFCURVE",
"925 80 CURVE SMOOTH",
"925 680 LINE SMOOTH",
"925 749 OFFCURVE",
"869 805 OFFCURVE",
"800 805 CURVE SMOOTH",
"200 805 LINE SMOOTH"
);
},
{
closed = 1;
nodes = (
"352 689 LINE",
"444 369 LINE SMOOTH",
"465 299 OFFCURVE",
"478 238 OFFCURVE",
"500 167 CURVE",
"504 167 LINE",
"525 238 OFFCURVE",
"540 299 OFFCURVE",
"560 369 CURVE SMOOTH",
"652 689 LINE",
"751 689 LINE",
"558 71 LINE",
"443 71 LINE",
"249 689 LINE"
);
}
);
width = 1000;
}
);
unicode = 0056;
},
{
glyphname = W;
lastChange = "2014-10-20 11:34:56 +0000";
layers = (
{
layerId = "F84F5EB2-94F9-4556-9B6C-C2D485160B3A";
name = Regular;
paths = (
{
closed = 1;
nodes = (
"200 -75 LINE SMOOTH",
"115 -75 OFFCURVE",
"45 -6 OFFCURVE",
"45 80 CURVE SMOOTH",
"45 680 LINE SMOOTH",
"45 765 OFFCURVE",
"115 835 OFFCURVE",
"200 835 CURVE SMOOTH",
"800 835 LINE SMOOTH",
"885 835 OFFCURVE",
"955 765 OFFCURVE",
"955 680 CURVE SMOOTH",
"955 80 LINE SMOOTH",
"955 -6 OFFCURVE",
"885 -75 OFFCURVE",
"800 -75 CURVE SMOOTH"
);
},
{
closed = 1;
nodes = (
"131 805 OFFCURVE",
"75 749 OFFCURVE",
"75 680 CURVE SMOOTH",
"75 80 LINE SMOOTH",
"75 11 OFFCURVE",
"131 -45 OFFCURVE",
"200 -45 CURVE SMOOTH",
"800 -45 LINE SMOOTH",
"869 -45 OFFCURVE",
"925 11 OFFCURVE",
"925 80 CURVE SMOOTH",
"925 680 LINE SMOOTH",
"925 749 OFFCURVE",
"869 805 OFFCURVE",
"800 805 CURVE SMOOTH",
"200 805 LINE SMOOTH"
);
},
{
closed = 1;
nodes = (
"244 689 LINE",
"302 367 LINE",
"335 169 LINE",
"338 169 LINE",
"351 236 OFFCURVE",
"366 302 OFFCURVE",
"380 367 CURVE SMOOTH",
"460 689 LINE",
"545 689 LINE",
"626 367 LINE SMOOTH",
"640 303 OFFCURVE",
"654 236 OFFCURVE",
"668 169 CURVE",
"672 169 LINE",
"682 236 OFFCURVE",
"693 303 OFFCURVE",
"703 367 CURVE SMOOTH",
"762 689 LINE",
"855 689 LINE",
"733 71 LINE",
"613 71 LINE",
"530 414 LINE SMOOTH",
"519 463 OFFCURVE",
"510 509 OFFCURVE",
"502 556 CURVE",
"497 556 LINE",
"489 509 OFFCURVE",
"479 463 OFFCURVE",
"469 414 CURVE SMOOTH",
"387 71 LINE",
"270 71 LINE",
"143 689 LINE"
);
}
);
width = 1000;
}
);
unicode = 0057;
},
{
glyphname = X;
lastChange = "2014-10-20 11:35:33 +0000";
layers = (
{
layerId = "F84F5EB2-94F9-4556-9B6C-C2D485160B3A";
name = Regular;
paths = (
{
closed = 1;
nodes = (
"200 -75 LINE SMOOTH",
"115 -75 OFFCURVE",
"45 -6 OFFCURVE",
"45 80 CURVE SMOOTH",
"45 680 LINE SMOOTH",
"45 765 OFFCURVE",
"115 835 OFFCURVE",
"200 835 CURVE SMOOTH",
"800 835 LINE SMOOTH",
"885 835 OFFCURVE",
"955 765 OFFCURVE",
"955 680 CURVE SMOOTH",
"955 80 LINE SMOOTH",
"955 -6 OFFCURVE",
"885 -75 OFFCURVE",
"800 -75 CURVE SMOOTH"
);
},
{
closed = 1;
nodes = (
"131 805 OFFCURVE",
"75 749 OFFCURVE",
"75 680 CURVE SMOOTH",
"75 80 LINE SMOOTH",
"75 11 OFFCURVE",
"131 -45 OFFCURVE",
"200 -45 CURVE SMOOTH",
"800 -45 LINE SMOOTH",
"869 -45 OFFCURVE",
"925 11 OFFCURVE",
"925 80 CURVE SMOOTH",
"925 680 LINE SMOOTH",
"925 749 OFFCURVE",
"869 805 OFFCURVE",
"800 805 CURVE SMOOTH",
"200 805 LINE SMOOTH"
);
},
{
closed = 1;
nodes = (
"274 689 LINE",
"382 689 LINE",
"457 545 LINE SMOOTH",
"472 516 OFFCURVE",
"486 488 OFFCURVE",
"504 451 CURVE",
"508 451 LINE",
"524 488 OFFCURVE",
"536 516 OFFCURVE",
"550 545 CURVE SMOOTH",
"623 689 LINE",
"726 689 LINE",
"560 385 LINE",
"738 71 LINE",
"629 71 LINE",
"548 225 LINE SMOOTH",
"532 256 OFFCURVE",
"516 288 OFFCURVE",
"497 325 CURVE",
"493 325 LINE",
"476 288 OFFCURVE",
"461 256 OFFCURVE",
"445 225 CURVE SMOOTH",
"366 71 LINE",
"263 71 LINE",
"440 390 LINE"
);
}
);
width = 1000;
}
);
unicode = 0058;
},
{
glyphname = Y;
lastChange = "2014-10-20 11:36:09 +0000";
layers = (
{
layerId = "F84F5EB2-94F9-4556-9B6C-C2D485160B3A";
name = Regular;
paths = (
{
closed = 1;
nodes = (
"200 -75 LINE SMOOTH",
"115 -75 OFFCURVE",
"45 -6 OFFCURVE",
"45 80 CURVE SMOOTH",
"45 680 LINE SMOOTH",
"45 765 OFFCURVE",
"115 835 OFFCURVE",
"200 835 CURVE SMOOTH",
"800 835 LINE SMOOTH",
"885 835 OFFCURVE",
"955 765 OFFCURVE",
"955 680 CURVE SMOOTH",
"955 80 LINE SMOOTH",
"955 -6 OFFCURVE",
"885 -75 OFFCURVE",
"800 -75 CURVE SMOOTH"
);
},
{
closed = 1;
nodes = (
"131 805 OFFCURVE",
"75 749 OFFCURVE",
"75 680 CURVE SMOOTH",
"75 80 LINE SMOOTH",
"75 11 OFFCURVE",
"131 -45 OFFCURVE",
"200 -45 CURVE SMOOTH",
"800 -45 LINE SMOOTH",
"869 -45 OFFCURVE",
"925 11 OFFCURVE",
"925 80 CURVE SMOOTH",
"925 680 LINE SMOOTH",
"925 749 OFFCURVE",
"869 805 OFFCURVE",
"800 805 CURVE SMOOTH",
"200 805 LINE SMOOTH"
);
},
{
closed = 1;
nodes = (
"265 689 LINE",
"369 689 LINE",
"441 525 LINE SMOOTH",
"460 479 OFFCURVE",
"478 436 OFFCURVE",
"499 389 CURVE",
"502 389 LINE",
"522 436 OFFCURVE",
"542 479 OFFCURVE",
"561 525 CURVE",
"633 689 LINE",
"735 689 LINE",
"548 305 LINE",
"548 71 LINE",
"451 71 LINE",
"451 305 LINE"
);
}
);
width = 1000;
}
);
unicode = 0059;
},
{
glyphname = Z;
lastChange = "2014-10-20 11:36:51 +0000";
layers = (
{
layerId = "F84F5EB2-94F9-4556-9B6C-C2D485160B3A";
name = Regular;
paths = (
{
closed = 1;
nodes = (
"200 -75 LINE SMOOTH",
"115 -75 OFFCURVE",
"45 -6 OFFCURVE",
"45 80 CURVE SMOOTH",
"45 680 LINE SMOOTH",
"45 765 OFFCURVE",
"115 835 OFFCURVE",
"200 835 CURVE SMOOTH",
"800 835 LINE SMOOTH",
"885 835 OFFCURVE",
"955 765 OFFCURVE",
"955 680 CURVE SMOOTH",
"955 80 LINE SMOOTH",
"955 -6 OFFCURVE",
"885 -75 OFFCURVE",
"800 -75 CURVE SMOOTH"
);
},
{
closed = 1;
nodes = (
"131 805 OFFCURVE",
"75 749 OFFCURVE",
"75 680 CURVE SMOOTH",
"75 80 LINE SMOOTH",
"75 11 OFFCURVE",
"131 -45 OFFCURVE",
"200 -45 CURVE SMOOTH",
"800 -45 LINE SMOOTH",
"869 -45 OFFCURVE",
"925 11 OFFCURVE",
"925 80 CURVE SMOOTH",
"925 680 LINE SMOOTH",
"925 749 OFFCURVE",
"869 805 OFFCURVE",
"800 805 CURVE SMOOTH",
"200 805 LINE SMOOTH"
);
},
{
closed = 1;
nodes = (
"594 608 LINE",
"313 608 LINE",
"313 689 LINE",
"715 689 LINE",
"715 631 LINE",
"405 153 LINE",
"718 153 LINE",
"718 71 LINE",
"285 71 LINE",
"285 130 LINE"
);
}
);
width = 1000;
}
);
unicode = 005A;
},
{
glyphname = a;
lastChange = "2014-12-22 02:58:54 +0000";
layers = (
{
layerId = "F84F5EB2-94F9-4556-9B6C-C2D485160B3A";
name = Regular;
paths = (
{
closed = 1;
nodes = (
"200 -75 LINE SMOOTH",
"115 -75 OFFCURVE",
"45 -6 OFFCURVE",
"45 80 CURVE SMOOTH",
"45 680 LINE SMOOTH",
"45 765 OFFCURVE",
"115 835 OFFCURVE",
"200 835 CURVE SMOOTH",
"800 835 LINE SMOOTH",
"885 835 OFFCURVE",
"955 765 OFFCURVE",
"955 680 CURVE SMOOTH",
"955 80 LINE SMOOTH",
"955 -6 OFFCURVE",
"885 -75 OFFCURVE",
"800 -75 CURVE SMOOTH"
);
},
{
closed = 1;
nodes = (
"131 805 OFFCURVE",
"75 749 OFFCURVE",
"75 680 CURVE SMOOTH",
"75 80 LINE SMOOTH",
"75 11 OFFCURVE",
"131 -45 OFFCURVE",
"200 -45 CURVE SMOOTH",
"800 -45 LINE SMOOTH",
"869 -45 OFFCURVE",
"925 11 OFFCURVE",
"925 80 CURVE SMOOTH",
"925 680 LINE SMOOTH",
"925 749 OFFCURVE",
"869 805 OFFCURVE",
"800 805 CURVE SMOOTH",
"200 805 LINE SMOOTH"
);
},
{
closed = 1;
nodes = (
"305 285 OFFCURVE",
"389 336 OFFCURVE",
"581 357 CURVE",
"580 411 OFFCURVE",
"561 458 OFFCURVE",
"493 458 CURVE SMOOTH",
"444 458 OFFCURVE",
"399 436 OFFCURVE",
"359 411 CURVE",
"323 476 LINE",
"371 507 OFFCURVE",
"436 537 OFFCURVE",
"510 537 CURVE SMOOTH",
"625 537 OFFCURVE",
"678 464 OFFCURVE",
"678 341 CURVE SMOOTH",
"678 63 LINE",
"599 63 LINE",
"590 116 LINE",
"588 116 LINE",
"546 80 OFFCURVE",
"496 52 OFFCURVE",
"441 52 CURVE SMOOTH",
"361 52 OFFCURVE",
"305 104 OFFCURVE",
"305 186 CURVE SMOOTH"
);
},
{
closed = 1;
nodes = (
"581 296 LINE",
"444 279 OFFCURVE",
"398 245 OFFCURVE",
"398 193 CURVE SMOOTH",
"398 147 OFFCURVE",
"429 129 OFFCURVE",
"470 129 CURVE SMOOTH",
"510 129 OFFCURVE",
"543 148 OFFCURVE",
"581 182 CURVE"
);
}
);
width = 1000;
}
);
unicode = 0061;
},
{
glyphname = b;
lastChange = "2014-12-22 02:59:24 +0000";
layers = (
{
layerId = "F84F5EB2-94F9-4556-9B6C-C2D485160B3A";
name = Regular;
paths = (
{
closed = 1;
nodes = (
"200 -75 LINE SMOOTH",
"115 -75 OFFCURVE",
"45 -6 OFFCURVE",
"45 80 CURVE SMOOTH",
"45 680 LINE SMOOTH",
"45 765 OFFCURVE",
"115 835 OFFCURVE",
"200 835 CURVE SMOOTH",
"800 835 LINE SMOOTH",
"885 835 OFFCURVE",
"955 765 OFFCURVE",
"955 680 CURVE SMOOTH",
"955 80 LINE SMOOTH",
"955 -6 OFFCURVE",
"885 -75 OFFCURVE",
"800 -75 CURVE SMOOTH"
);
},
{
closed = 1;
nodes = (
"131 805 OFFCURVE",
"75 749 OFFCURVE",
"75 680 CURVE SMOOTH",
"75 80 LINE SMOOTH",
"75 11 OFFCURVE",
"131 -45 OFFCURVE",
"200 -45 CURVE SMOOTH",
"800 -45 LINE SMOOTH",
"869 -45 OFFCURVE",
"925 11 OFFCURVE",
"925 80 CURVE SMOOTH",
"925 680 LINE SMOOTH",
"925 749 OFFCURVE",
"869 805 OFFCURVE",
"800 805 CURVE SMOOTH",
"200 805 LINE SMOOTH"
);
},
{
closed = 1;
nodes = (
"394 111 LINE",
"384 63 LINE",
"309 63 LINE",
"309 733 LINE",
"405 733 LINE",
"405 555 LINE",
"402 476 LINE",
"442 511 OFFCURVE",
"491 537 OFFCURVE",
"540 537 CURVE SMOOTH",
"657 537 OFFCURVE",
"723 444 OFFCURVE",
"723 302 CURVE SMOOTH",
"723 143 OFFCURVE",
"628 52 OFFCURVE",
"524 52 CURVE SMOOTH",
"482 52 OFFCURVE",
"436 73 OFFCURVE",
"396 111 CURVE"
);
},
{
closed = 1;
nodes = (
"623 397 OFFCURVE",
"592 456 OFFCURVE",
"515 456 CURVE SMOOTH",
"479 456 OFFCURVE",
"443 438 OFFCURVE",
"405 400 CURVE",
"405 174 LINE",
"440 143 OFFCURVE",
"477 132 OFFCURVE",
"505 132 CURVE SMOOTH",
"573 132 OFFCURVE",
"623 192 OFFCURVE",
"623 300 CURVE SMOOTH"
);
}
);
width = 1000;
}
);
unicode = 0062;
},
{
glyphname = c;
lastChange = "2014-12-22 02:59:56 +0000";
layers = (
{
layerId = "F84F5EB2-94F9-4556-9B6C-C2D485160B3A";
name = Regular;
paths = (
{
closed = 1;
nodes = (
"200 -75 LINE SMOOTH",
"115 -75 OFFCURVE",
"45 -6 OFFCURVE",
"45 80 CURVE SMOOTH",
"45 680 LINE SMOOTH",
"45 765 OFFCURVE",
"115 835 OFFCURVE",
"200 835 CURVE SMOOTH",
"800 835 LINE SMOOTH",
"885 835 OFFCURVE",
"955 765 OFFCURVE",
"955 680 CURVE SMOOTH",
"955 80 LINE SMOOTH",
"955 -6 OFFCURVE",
"885 -75 OFFCURVE",
"800 -75 CURVE SMOOTH"
);
},
{
closed = 1;
nodes = (
"131 805 OFFCURVE",
"75 749 OFFCURVE",
"75 680 CURVE SMOOTH",
"75 80 LINE SMOOTH",
"75 11 OFFCURVE",
"131 -45 OFFCURVE",
"200 -45 CURVE SMOOTH",
"800 -45 LINE SMOOTH",
"869 -45 OFFCURVE",
"925 11 OFFCURVE",
"925 80 CURVE SMOOTH",
"925 680 LINE SMOOTH",
"925 749 OFFCURVE",
"869 805 OFFCURVE",
"800 805 CURVE SMOOTH",
"200 805 LINE SMOOTH"
);
},
{
closed = 1;
nodes = (
"323 448 OFFCURVE",
"430 537 OFFCURVE",
"552 537 CURVE SMOOTH",
"610 537 OFFCURVE",
"653 513 OFFCURVE",
"687 484 CURVE",
"639 421 LINE",
"614 444 OFFCURVE",
"588 457 OFFCURVE",
"556 457 CURVE SMOOTH",
"479 457 OFFCURVE",
"423 392 OFFCURVE",
"423 293 CURVE SMOOTH",
"423 196 OFFCURVE",
"476 131 OFFCURVE",
"553 131 CURVE SMOOTH",
"592 131 OFFCURVE",
"626 150 OFFCURVE",
"654 173 CURVE",
"694 109 LINE",
"652 72 OFFCURVE",
"597 52 OFFCURVE",
"544 52 CURVE SMOOTH",
"419 52 OFFCURVE",
"323 140 OFFCURVE",
"323 293 CURVE SMOOTH"
);
}
);
width = 1000;
}
);
unicode = 0063;
},
{
glyphname = d;
lastChange = "2014-12-22 03:00:31 +0000";
layers = (
{
layerId = "F84F5EB2-94F9-4556-9B6C-C2D485160B3A";
name = Regular;
paths = (
{
closed = 1;
nodes = (
"200 -75 LINE SMOOTH",
"115 -75 OFFCURVE",
"45 -6 OFFCURVE",
"45 80 CURVE SMOOTH",
"45 680 LINE SMOOTH",
"45 765 OFFCURVE",
"115 835 OFFCURVE",
"200 835 CURVE SMOOTH",
"800 835 LINE SMOOTH",
"885 835 OFFCURVE",
"955 765 OFFCURVE",
"955 680 CURVE SMOOTH",
"955 80 LINE SMOOTH",
"955 -6 OFFCURVE",
"885 -75 OFFCURVE",
"800 -75 CURVE SMOOTH"
);
},
{
closed = 1;
nodes = (
"131 805 OFFCURVE",
"75 749 OFFCURVE",
"75 680 CURVE SMOOTH",
"75 80 LINE SMOOTH",
"75 11 OFFCURVE",
"131 -45 OFFCURVE",
"200 -45 CURVE SMOOTH",
"800 -45 LINE SMOOTH",
"869 -45 OFFCURVE",
"925 11 OFFCURVE",
"925 80 CURVE SMOOTH",
"925 680 LINE SMOOTH",
"925 749 OFFCURVE",
"869 805 OFFCURVE",
"800 805 CURVE SMOOTH",
"200 805 LINE SMOOTH"
);
},
{
closed = 1;
nodes = (
"277 444 OFFCURVE",
"372 537 OFFCURVE",
"476 537 CURVE SMOOTH",
"529 537 OFFCURVE",
"562 517 OFFCURVE",
"600 485 CURVE",
"596 561 LINE",
"596 733 LINE",
"692 733 LINE",
"692 63 LINE",
"613 63 LINE",
"605 115 LINE",
"602 115 LINE",
"568 80 OFFCURVE",
"520 52 OFFCURVE",
"468 52 CURVE SMOOTH",
"352 52 OFFCURVE",
"277 140 OFFCURVE",
"277 293 CURVE SMOOTH"
);
},
{
closed = 1;
nodes = (
"596 414 LINE",
"561 445 OFFCURVE",
"529 456 OFFCURVE",
"494 456 CURVE SMOOTH",
"429 456 OFFCURVE",
"377 395 OFFCURVE",
"377 295 CURVE SMOOTH",
"377 190 OFFCURVE",
"419 132 OFFCURVE",
"491 132 CURVE SMOOTH",
"529 132 OFFCURVE",
"562 150 OFFCURVE",
"596 188 CURVE"
);
}
);
width = 1000;
}
);
unicode = 0064;
},
{
glyphname = e;
lastChange = "2014-12-22 03:01:07 +0000";
layers = (
{
layerId = "F84F5EB2-94F9-4556-9B6C-C2D485160B3A";
name = Regular;
paths = (
{
closed = 1;
nodes = (
"200 -75 LINE SMOOTH",
"115 -75 OFFCURVE",
"45 -6 OFFCURVE",
"45 80 CURVE SMOOTH",
"45 680 LINE SMOOTH",
"45 765 OFFCURVE",
"115 835 OFFCURVE",
"200 835 CURVE SMOOTH",
"800 835 LINE SMOOTH",
"885 835 OFFCURVE",
"955 765 OFFCURVE",
"955 680 CURVE SMOOTH",
"955 80 LINE SMOOTH",
"955 -6 OFFCURVE",
"885 -75 OFFCURVE",
"800 -75 CURVE SMOOTH"
);
},
{
closed = 1;
nodes = (
"131 805 OFFCURVE",
"75 749 OFFCURVE",
"75 680 CURVE SMOOTH",
"75 80 LINE SMOOTH",
"75 11 OFFCURVE",
"131 -45 OFFCURVE",
"200 -45 CURVE SMOOTH",
"800 -45 LINE SMOOTH",
"869 -45 OFFCURVE",
"925 11 OFFCURVE",
"925 80 CURVE SMOOTH",
"925 680 LINE SMOOTH",
"925 749 OFFCURVE",
"869 805 OFFCURVE",
"800 805 CURVE SMOOTH",
"200 805 LINE SMOOTH"
);
},
{
closed = 1;
nodes = (
"303 444 OFFCURVE",
"406 537 OFFCURVE",
"514 537 CURVE SMOOTH",
"636 537 OFFCURVE",
"702 449 OFFCURVE",
"702 318 CURVE SMOOTH",
"702 299 OFFCURVE",
"700 280 OFFCURVE",
"698 269 CURVE",
"398 269 LINE",
"406 181 OFFCURVE",
"461 128 OFFCURVE",
"541 128 CURVE SMOOTH",
"582 128 OFFCURVE",
"617 140 OFFCURVE",
"651 162 CURVE",
"684 101 LINE",
"642 72 OFFCURVE",
"589 52 OFFCURVE",
"528 52 CURVE SMOOTH",
"403 52 OFFCURVE",
"303 141 OFFCURVE",
"303 293 CURVE SMOOTH"
);
},
{
closed = 1;
nodes = (
"619 415 OFFCURVE",
"583 461 OFFCURVE",
"516 461 CURVE SMOOTH",
"458 461 OFFCURVE",
"406 417 OFFCURVE",
"397 335 CURVE",
"619 335 LINE"
);
}
);
width = 1000;
}
);
unicode = 0065;
},
{
glyphname = f;
lastChange = "2014-12-22 03:01:34 +0000";
layers = (
{
layerId = "F84F5EB2-94F9-4556-9B6C-C2D485160B3A";
name = Regular;
paths = (
{
closed = 1;
nodes = (
"200 -75 LINE SMOOTH",
"115 -75 OFFCURVE",
"45 -6 OFFCURVE",
"45 80 CURVE SMOOTH",
"45 680 LINE SMOOTH",
"45 765 OFFCURVE",
"115 835 OFFCURVE",
"200 835 CURVE SMOOTH",
"800 835 LINE SMOOTH",
"885 835 OFFCURVE",
"955 765 OFFCURVE",
"955 680 CURVE SMOOTH",
"955 80 LINE SMOOTH",
"955 -6 OFFCURVE",
"885 -75 OFFCURVE",
"800 -75 CURVE SMOOTH"
);
},
{
closed = 1;
nodes = (
"131 805 OFFCURVE",
"75 749 OFFCURVE",
"75 680 CURVE SMOOTH",
"75 80 LINE SMOOTH",
"75 11 OFFCURVE",
"131 -45 OFFCURVE",
"200 -45 CURVE SMOOTH",
"800 -45 LINE SMOOTH",
"869 -45 OFFCURVE",
"925 11 OFFCURVE",
"925 80 CURVE SMOOTH",
"925 680 LINE SMOOTH",
"925 749 OFFCURVE",
"869 805 OFFCURVE",
"800 805 CURVE SMOOTH",
"200 805 LINE SMOOTH"
);
},
{
closed = 1;
nodes = (
"636 655 OFFCURVE",
"618 659 OFFCURVE",
"602 659 CURVE SMOOTH",
"561 659 OFFCURVE",
"541 632 OFFCURVE",
"541 576 CURVE SMOOTH",
"541 517 LINE",
"634 517 LINE",
"634 440 LINE",
"541 440 LINE",
"541 55 LINE",
"444 55 LINE",
"444 440 LINE",
"381 440 LINE",
"381 512 LINE",
"444 517 LINE",
"444 575 LINE SMOOTH",
"444 670 OFFCURVE",
"487 736 OFFCURVE",
"590 736 CURVE SMOOTH",
"621 736 OFFCURVE",
"651 729 OFFCURVE",
"672 720 CURVE",
"652 647 LINE"
);
}
);
width = 1000;
}
);
unicode = 0066;
},
{
glyphname = g;
lastChange = "2014-12-22 03:02:07 +0000";
layers = (
{
layerId = "F84F5EB2-94F9-4556-9B6C-C2D485160B3A";
name = Regular;
paths = (
{
closed = 1;
nodes = (
"200 -75 LINE SMOOTH",
"115 -75 OFFCURVE",
"45 -6 OFFCURVE",
"45 80 CURVE SMOOTH",
"45 680 LINE SMOOTH",
"45 765 OFFCURVE",
"115 835 OFFCURVE",
"200 835 CURVE SMOOTH",
"800 835 LINE SMOOTH",
"885 835 OFFCURVE",
"955 765 OFFCURVE",
"955 680 CURVE SMOOTH",
"955 80 LINE SMOOTH",
"955 -6 OFFCURVE",
"885 -75 OFFCURVE",
"800 -75 CURVE SMOOTH"
);
},
{
closed = 1;
nodes = (
"131 805 OFFCURVE",
"75 749 OFFCURVE",
"75 680 CURVE SMOOTH",
"75 80 LINE SMOOTH",
"75 11 OFFCURVE",
"131 -45 OFFCURVE",
"200 -45 CURVE SMOOTH",
"800 -45 LINE SMOOTH",
"869 -45 OFFCURVE",
"925 11 OFFCURVE",
"925 80 CURVE SMOOTH",
"925 680 LINE SMOOTH",
"925 749 OFFCURVE",
"869 805 OFFCURVE",
"800 805 CURVE SMOOTH",
"200 805 LINE SMOOTH"
);
},
{
closed = 1;
nodes = (
"297 160 OFFCURVE",
"321 196 OFFCURVE",
"364 222 CURVE",
"364 226 LINE",
"340 241 OFFCURVE",
"322 265 OFFCURVE",
"322 303 CURVE SMOOTH",
"322 339 OFFCURVE",
"348 370 OFFCURVE",
"373 389 CURVE",
"373 392 LINE",
"342 416 OFFCURVE",
"313 460 OFFCURVE",
"313 515 CURVE SMOOTH",
"313 620 OFFCURVE",
"396 681 OFFCURVE",
"492 681 CURVE SMOOTH",
"518 681 OFFCURVE",
"541 676 OFFCURVE",
"559 669 CURVE",
"723 669 LINE",
"723 597 LINE",
"634 597 LINE",
"652 578 OFFCURVE",
"665 547 OFFCURVE",
"665 512 CURVE SMOOTH",
"665 411 OFFCURVE",
"588 353 OFFCURVE",
"492 353 CURVE SMOOTH",
"471 353 OFFCURVE",
"447 358 OFFCURVE",
"427 368 CURVE",
"412 354 OFFCURVE",
"402 341 OFFCURVE",
"402 319 CURVE SMOOTH",
"402 291 OFFCURVE",
"420 274 OFFCURVE",
"479 274 CURVE SMOOTH",
"564 274 LINE SMOOTH",
"673 274 OFFCURVE",
"730 240 OFFCURVE",
"730 161 CURVE SMOOTH",
"730 72 OFFCURVE",
"636 0 OFFCURVE",
"488 0 CURVE SMOOTH",
"377 0 OFFCURVE",
"297 41 OFFCURVE",
"297 121 CURVE SMOOTH"
);
},
{
closed = 1;
nodes = (
"637 184 OFFCURVE",
"607 196 OFFCURVE",
"550 196 CURVE SMOOTH",
"481 196 LINE SMOOTH",
"459 196 OFFCURVE",
"438 199 OFFCURVE",
"419 203 CURVE",
"391 183 OFFCURVE",
"379 159 OFFCURVE",
"379 136 CURVE SMOOTH",
"379 90 OFFCURVE",
"426 64 OFFCURVE",
"503 64 CURVE SMOOTH",
"583 64 OFFCURVE",
"637 103 OFFCURVE",
"637 146 CURVE SMOOTH"
);
},
{
closed = 1;
nodes = (
"579 577 OFFCURVE",
"540 613 OFFCURVE",
"492 613 CURVE SMOOTH",
"443 613 OFFCURVE",
"404 578 OFFCURVE",
"404 515 CURVE SMOOTH",
"404 453 OFFCURVE",
"444 415 OFFCURVE",
"492 415 CURVE SMOOTH",
"539 415 OFFCURVE",
"579 453 OFFCURVE",
"579 515 CURVE SMOOTH"
);
}
);
width = 1000;
}
);
unicode = 0067;
},
{
glyphname = h;
lastChange = "2014-12-22 03:02:45 +0000";
layers = (
{
layerId = "F84F5EB2-94F9-4556-9B6C-C2D485160B3A";
name = Regular;
paths = (
{
closed = 1;
nodes = (
"200 -75 LINE SMOOTH",
"115 -75 OFFCURVE",
"45 -6 OFFCURVE",
"45 80 CURVE SMOOTH",
"45 680 LINE SMOOTH",
"45 765 OFFCURVE",
"115 835 OFFCURVE",
"200 835 CURVE SMOOTH",
"800 835 LINE SMOOTH",
"885 835 OFFCURVE",
"955 765 OFFCURVE",
"955 680 CURVE SMOOTH",
"955 80 LINE SMOOTH",
"955 -6 OFFCURVE",
"885 -75 OFFCURVE",
"800 -75 CURVE SMOOTH"
);
},
{
closed = 1;
nodes = (
"131 805 OFFCURVE",
"75 749 OFFCURVE",
"75 680 CURVE SMOOTH",
"75 80 LINE SMOOTH",
"75 11 OFFCURVE",
"131 -45 OFFCURVE",
"200 -45 CURVE SMOOTH",
"800 -45 LINE SMOOTH",
"869 -45 OFFCURVE",
"925 11 OFFCURVE",
"925 80 CURVE SMOOTH",
"925 680 LINE SMOOTH",
"925 749 OFFCURVE",
"869 805 OFFCURVE",
"800 805 CURVE SMOOTH",
"200 805 LINE SMOOTH"
);
},
{
closed = 1;
nodes = (
"408 733 LINE",
"408 555 LINE",
"405 464 LINE",
"445 502 OFFCURVE",
"491 537 OFFCURVE",
"554 537 CURVE SMOOTH",
"652 537 OFFCURVE",
"696 471 OFFCURVE",
"696 354 CURVE SMOOTH",
"696 63 LINE",
"600 63 LINE",
"600 342 LINE SMOOTH",
"600 422 OFFCURVE",
"576 454 OFFCURVE",
"521 454 CURVE SMOOTH",
"479 454 OFFCURVE",
"449 432 OFFCURVE",
"408 391 CURVE",
"408 63 LINE",
"312 63 LINE",
"312 733 LINE"
);
}
);
width = 1000;
}
);
unicode = 0068;
},
{
glyphname = i;
lastChange = "2014-12-22 03:03:14 +0000";
layers = (
{
layerId = "F84F5EB2-94F9-4556-9B6C-C2D485160B3A";
name = Regular;
paths = (
{
closed = 1;
nodes = (
"200 -75 LINE SMOOTH",
"115 -75 OFFCURVE",
"45 -6 OFFCURVE",
"45 80 CURVE SMOOTH",
"45 680 LINE SMOOTH",
"45 765 OFFCURVE",
"115 835 OFFCURVE",
"200 835 CURVE SMOOTH",
"800 835 LINE SMOOTH",
"885 835 OFFCURVE",
"955 765 OFFCURVE",
"955 680 CURVE SMOOTH",
"955 80 LINE SMOOTH",
"955 -6 OFFCURVE",
"885 -75 OFFCURVE",
"800 -75 CURVE SMOOTH"
);
},
{
closed = 1;
nodes = (
"131 805 OFFCURVE",
"75 749 OFFCURVE",
"75 680 CURVE SMOOTH",
"75 80 LINE SMOOTH",
"75 11 OFFCURVE",
"131 -45 OFFCURVE",
"200 -45 CURVE SMOOTH",
"800 -45 LINE SMOOTH",
"869 -45 OFFCURVE",
"925 11 OFFCURVE",
"925 80 CURVE SMOOTH",
"925 680 LINE SMOOTH",
"925 749 OFFCURVE",
"869 805 OFFCURVE",
"800 805 CURVE SMOOTH",
"200 805 LINE SMOOTH"
);
},
{
closed = 1;
nodes = (
"439 703 OFFCURVE",
"465 726 OFFCURVE",
"500 726 CURVE SMOOTH",
"536 726 OFFCURVE",
"563 703 OFFCURVE",
"563 669 CURVE SMOOTH",
"563 635 OFFCURVE",
"536 612 OFFCURVE",
"500 612 CURVE SMOOTH",
"465 612 OFFCURVE",
"439 635 OFFCURVE",
"439 669 CURVE SMOOTH"
);
},
{
closed = 1;
nodes = (
"548 525 LINE",
"548 63 LINE",
"453 63 LINE",
"453 525 LINE"
);
}
);
width = 1000;
}
);
unicode = 0069;
},
{
glyphname = j;
lastChange = "2014-12-22 03:03:41 +0000";
layers = (
{
layerId = "F84F5EB2-94F9-4556-9B6C-C2D485160B3A";
name = Regular;
paths = (
{
closed = 1;
nodes = (
"200 -75 LINE SMOOTH",
"115 -75 OFFCURVE",
"45 -6 OFFCURVE",
"45 80 CURVE SMOOTH",
"45 680 LINE SMOOTH",
"45 765 OFFCURVE",
"115 835 OFFCURVE",
"200 835 CURVE SMOOTH",
"800 835 LINE SMOOTH",
"885 835 OFFCURVE",
"955 765 OFFCURVE",
"955 680 CURVE SMOOTH",
"955 80 LINE SMOOTH",
"955 -6 OFFCURVE",
"885 -75 OFFCURVE",
"800 -75 CURVE SMOOTH"
);
},
{
closed = 1;
nodes = (
"131 805 OFFCURVE",
"75 749 OFFCURVE",
"75 680 CURVE SMOOTH",
"75 80 LINE SMOOTH",
"75 11 OFFCURVE",
"131 -45 OFFCURVE",
"200 -45 CURVE SMOOTH",
"800 -45 LINE SMOOTH",
"869 -45 OFFCURVE",
"925 11 OFFCURVE",
"925 80 CURVE SMOOTH",
"925 680 LINE SMOOTH",
"925 749 OFFCURVE",
"869 805 OFFCURVE",
"800 805 CURVE SMOOTH",
"200 805 LINE SMOOTH"
);
},
{
closed = 1;
nodes = (
"356 97 LINE",
"369 93 OFFCURVE",
"383 89 OFFCURVE",
"398 89 CURVE SMOOTH",
"441 89 OFFCURVE",
"453 120 OFFCURVE",
"453 175 CURVE SMOOTH",
"453 533 LINE",
"550 533 LINE",
"550 177 LINE SMOOTH",
"550 80 OFFCURVE",
"513 12 OFFCURVE",
"410 12 CURVE SMOOTH",
"379 12 OFFCURVE",
"356 18 OFFCURVE",
"339 25 CURVE"
);
},
{
closed = 1;
nodes = (
"440 711 OFFCURVE",
"466 734 OFFCURVE",
"501 734 CURVE SMOOTH",
"536 734 OFFCURVE",
"563 711 OFFCURVE",
"563 677 CURVE SMOOTH",
"563 643 OFFCURVE",
"536 620 OFFCURVE",
"501 620 CURVE SMOOTH",
"466 620 OFFCURVE",
"440 643 OFFCURVE",
"440 677 CURVE SMOOTH"
);
}
);
width = 1000;
}
);
unicode = 006A;
},
{
glyphname = k;
lastChange = "2014-12-22 03:04:13 +0000";
layers = (
{
layerId = "F84F5EB2-94F9-4556-9B6C-C2D485160B3A";
name = Regular;
paths = (
{
closed = 1;
nodes = (
"200 -75 LINE SMOOTH",
"115 -75 OFFCURVE",
"45 -6 OFFCURVE",
"45 80 CURVE SMOOTH",
"45 680 LINE SMOOTH",
"45 765 OFFCURVE",
"115 835 OFFCURVE",
"200 835 CURVE SMOOTH",
"800 835 LINE SMOOTH",
"885 835 OFFCURVE",
"955 765 OFFCURVE",
"955 680 CURVE SMOOTH",
"955 80 LINE SMOOTH",
"955 -6 OFFCURVE",
"885 -75 OFFCURVE",
"800 -75 CURVE SMOOTH"
);
},
{
closed = 1;
nodes = (
"131 805 OFFCURVE",
"75 749 OFFCURVE",
"75 680 CURVE SMOOTH",
"75 80 LINE SMOOTH",
"75 11 OFFCURVE",
"131 -45 OFFCURVE",
"200 -45 CURVE SMOOTH",
"800 -45 LINE SMOOTH",
"869 -45 OFFCURVE",
"925 11 OFFCURVE",
"925 80 CURVE SMOOTH",
"925 680 LINE SMOOTH",
"925 749 OFFCURVE",
"869 805 OFFCURVE",
"800 805 CURVE SMOOTH",
"200 805 LINE SMOOTH"
);
},
{
closed = 1;
nodes = (
"426 733 LINE",
"426 301 LINE",
"428 301 LINE",
"610 525 LINE",
"716 525 LINE",
"559 338 LINE",
"734 63 LINE",
"629 63 LINE",
"504 272 LINE",
"426 182 LINE",
"426 63 LINE",
"332 63 LINE",
"332 733 LINE"
);
}
);
width = 1000;
}
);
unicode = 006B;
},
{
glyphname = l;
lastChange = "2014-12-22 03:04:47 +0000";
layers = (
{
layerId = "F84F5EB2-94F9-4556-9B6C-C2D485160B3A";
name = Regular;
paths = (
{
closed = 1;
nodes = (
"200 -75 LINE SMOOTH",
"115 -75 OFFCURVE",
"45 -6 OFFCURVE",
"45 80 CURVE SMOOTH",
"45 680 LINE SMOOTH",
"45 765 OFFCURVE",
"115 835 OFFCURVE",
"200 835 CURVE SMOOTH",
"800 835 LINE SMOOTH",
"885 835 OFFCURVE",
"955 765 OFFCURVE",
"955 680 CURVE SMOOTH",
"955 80 LINE SMOOTH",
"955 -6 OFFCURVE",
"885 -75 OFFCURVE",
"800 -75 CURVE SMOOTH"
);
},
{
closed = 1;
nodes = (
"131 805 OFFCURVE",
"75 749 OFFCURVE",
"75 680 CURVE SMOOTH",
"75 80 LINE SMOOTH",
"75 11 OFFCURVE",
"131 -45 OFFCURVE",
"200 -45 CURVE SMOOTH",
"800 -45 LINE SMOOTH",
"869 -45 OFFCURVE",
"925 11 OFFCURVE",
"925 80 CURVE SMOOTH",
"925 680 LINE SMOOTH",
"925 749 OFFCURVE",
"869 805 OFFCURVE",
"800 805 CURVE SMOOTH",
"200 805 LINE SMOOTH"
);
},
{
closed = 1;
nodes = (
"448 725 LINE",
"544 725 LINE",
"544 158 LINE SMOOTH",
"544 132 OFFCURVE",
"555 123 OFFCURVE",
"567 123 CURVE SMOOTH",
"571 123 OFFCURVE",
"575 123 OFFCURVE",
"583 125 CURVE",
"596 52 LINE",
"584 48 OFFCURVE",
"567 44 OFFCURVE",
"544 44 CURVE SMOOTH",
"474 44 OFFCURVE",
"448 89 OFFCURVE",
"448 164 CURVE SMOOTH"
);
}
);
width = 1000;
}
);
unicode = 006C;
},
{
glyphname = m;
lastChange = "2014-12-22 03:05:16 +0000";
layers = (
{
layerId = "F84F5EB2-94F9-4556-9B6C-C2D485160B3A";
name = Regular;
paths = (
{
closed = 1;
nodes = (
"200 -75 LINE SMOOTH",
"115 -75 OFFCURVE",
"45 -6 OFFCURVE",
"45 80 CURVE SMOOTH",
"45 680 LINE SMOOTH",
"45 765 OFFCURVE",
"115 835 OFFCURVE",
"200 835 CURVE SMOOTH",
"800 835 LINE SMOOTH",
"885 835 OFFCURVE",
"955 765 OFFCURVE",
"955 680 CURVE SMOOTH",
"955 80 LINE SMOOTH",
"955 -6 OFFCURVE",
"885 -75 OFFCURVE",
"800 -75 CURVE SMOOTH"
);
},
{
closed = 1;
nodes = (
"131 805 OFFCURVE",
"75 749 OFFCURVE",
"75 680 CURVE SMOOTH",
"75 80 LINE SMOOTH",
"75 11 OFFCURVE",
"131 -45 OFFCURVE",
"200 -45 CURVE SMOOTH",
"800 -45 LINE SMOOTH",
"869 -45 OFFCURVE",
"925 11 OFFCURVE",
"925 80 CURVE SMOOTH",
"925 680 LINE SMOOTH",
"925 749 OFFCURVE",
"869 805 OFFCURVE",
"800 805 CURVE SMOOTH",
"200 805 LINE SMOOTH"
);
},
{
closed = 1;
nodes = (
"256 525 LINE",
"264 460 LINE",
"266 460 LINE",
"306 502 OFFCURVE",
"352 537 OFFCURVE",
"409 537 CURVE SMOOTH",
"478 537 OFFCURVE",
"517 505 OFFCURVE",
"537 452 CURVE",
"582 501 OFFCURVE",
"629 537 OFFCURVE",
"687 537 CURVE SMOOTH",
"784 537 OFFCURVE",
"829 471 OFFCURVE",
"829 354 CURVE SMOOTH",
"829 63 LINE",
"733 63 LINE",
"733 342 LINE SMOOTH",
"733 422 OFFCURVE",
"707 454 OFFCURVE",
"655 454 CURVE SMOOTH",
"623 454 OFFCURVE",
"590 433 OFFCURVE",
"551 391 CURVE",
"551 63 LINE",
"455 63 LINE",
"455 342 LINE SMOOTH",
"455 422 OFFCURVE",
"430 454 OFFCURVE",
"377 454 CURVE SMOOTH",
"346 454 OFFCURVE",
"312 433 OFFCURVE",
"273 391 CURVE",
"273 63 LINE",
"177 63 LINE",
"177 525 LINE"
);
}
);
width = 1000;
}
);
unicode = 006D;
},
{
glyphname = n;
lastChange = "2014-12-22 03:27:28 +0000";
layers = (
{
layerId = "F84F5EB2-94F9-4556-9B6C-C2D485160B3A";
name = Regular;
paths = (
{
closed = 1;
nodes = (
"200 -75 LINE SMOOTH",
"115 -75 OFFCURVE",
"45 -5 OFFCURVE",
"45 80 CURVE SMOOTH",
"45 680 LINE SMOOTH",
"45 765 OFFCURVE",
"115 835 OFFCURVE",
"200 835 CURVE SMOOTH",
"800 835 LINE SMOOTH",
"885 835 OFFCURVE",
"955 765 OFFCURVE",
"955 680 CURVE SMOOTH",
"955 80 LINE SMOOTH",
"955 -5 OFFCURVE",
"885 -75 OFFCURVE",
"800 -75 CURVE SMOOTH"
);
},
{
closed = 1;
nodes = (
"131 805 OFFCURVE",
"75 749 OFFCURVE",
"75 680 CURVE SMOOTH",
"75 80 LINE SMOOTH",
"75 11 OFFCURVE",
"131 -45 OFFCURVE",
"200 -45 CURVE SMOOTH",
"800 -45 LINE SMOOTH",
"869 -45 OFFCURVE",
"925 11 OFFCURVE",
"925 80 CURVE SMOOTH",
"925 680 LINE SMOOTH",
"925 749 OFFCURVE",
"869 805 OFFCURVE",
"800 805 CURVE SMOOTH",
"200 805 LINE SMOOTH"
);
},
{
closed = 1;
nodes = (
"390 525 LINE",
"398 461 LINE",
"400 461 LINE",
"443 503 OFFCURVE",
"490 537 OFFCURVE",
"553 537 CURVE SMOOTH",
"651 537 OFFCURVE",
"695 471 OFFCURVE",
"695 354 CURVE SMOOTH",
"695 63 LINE",
"598 63 LINE",
"598 342 LINE SMOOTH",
"598 422 OFFCURVE",
"575 454 OFFCURVE",
"520 454 CURVE SMOOTH",
"477 454 OFFCURVE",
"448 432 OFFCURVE",
"407 391 CURVE",
"407 63 LINE",
"311 63 LINE",
"311 525 LINE"
);
}
);
width = 1000;
}
);
unicode = 006E;
},
{
glyphname = o;
lastChange = "2014-12-22 03:27:57 +0000";
layers = (
{
layerId = "F84F5EB2-94F9-4556-9B6C-C2D485160B3A";
name = Regular;
paths = (
{
closed = 1;
nodes = (
"200 -75 LINE SMOOTH",
"115 -75 OFFCURVE",
"45 -5 OFFCURVE",
"45 80 CURVE SMOOTH",
"45 680 LINE SMOOTH",
"45 765 OFFCURVE",
"115 835 OFFCURVE",
"200 835 CURVE SMOOTH",
"800 835 LINE SMOOTH",
"885 835 OFFCURVE",
"955 765 OFFCURVE",
"955 680 CURVE SMOOTH",
"955 80 LINE SMOOTH",
"955 -5 OFFCURVE",
"885 -75 OFFCURVE",
"800 -75 CURVE SMOOTH"
);
},
{
closed = 1;
nodes = (
"131 805 OFFCURVE",
"75 749 OFFCURVE",
"75 680 CURVE SMOOTH",
"75 80 LINE SMOOTH",
"75 11 OFFCURVE",
"131 -45 OFFCURVE",
"200 -45 CURVE SMOOTH",
"800 -45 LINE SMOOTH",
"869 -45 OFFCURVE",
"925 11 OFFCURVE",
"925 80 CURVE SMOOTH",
"925 680 LINE SMOOTH",
"925 749 OFFCURVE",
"869 805 OFFCURVE",
"800 805 CURVE SMOOTH",
"200 805 LINE SMOOTH"
);
},
{
closed = 1;
nodes = (
"282 448 OFFCURVE",
"386 537 OFFCURVE",
"500 537 CURVE SMOOTH",
"614 537 OFFCURVE",
"718 448 OFFCURVE",
"718 293 CURVE SMOOTH",
"718 141 OFFCURVE",
"614 52 OFFCURVE",
"500 52 CURVE SMOOTH",
"386 52 OFFCURVE",
"282 141 OFFCURVE",
"282 293 CURVE SMOOTH"
);
},
{
closed = 1;
nodes = (
"618 392 OFFCURVE",
"573 457 OFFCURVE",
"500 457 CURVE SMOOTH",
"428 457 OFFCURVE",
"382 392 OFFCURVE",
"382 293 CURVE SMOOTH",
"382 196 OFFCURVE",
"428 131 OFFCURVE",
"500 131 CURVE SMOOTH",
"573 131 OFFCURVE",
"618 196 OFFCURVE",
"618 293 CURVE SMOOTH"
);
}
);
width = 1000;
}
);
unicode = 006F;
},
{
glyphname = p;
lastChange = "2014-12-22 03:07:38 +0000";
layers = (
{
layerId = "F84F5EB2-94F9-4556-9B6C-C2D485160B3A";
name = Regular;
paths = (
{
closed = 1;
nodes = (
"200 -75 LINE SMOOTH",
"115 -75 OFFCURVE",
"45 -5 OFFCURVE",
"45 80 CURVE SMOOTH",
"45 680 LINE SMOOTH",
"45 765 OFFCURVE",
"115 835 OFFCURVE",
"200 835 CURVE SMOOTH",
"800 835 LINE SMOOTH",
"885 835 OFFCURVE",
"955 765 OFFCURVE",
"955 680 CURVE SMOOTH",
"955 80 LINE SMOOTH",
"955 -5 OFFCURVE",
"885 -75 OFFCURVE",
"800 -75 CURVE SMOOTH"
);
},
{
closed = 1;
nodes = (
"131 805 OFFCURVE",
"75 749 OFFCURVE",
"75 680 CURVE SMOOTH",
"75 80 LINE SMOOTH",
"75 11 OFFCURVE",
"131 -45 OFFCURVE",
"200 -45 CURVE SMOOTH",
"800 -45 LINE SMOOTH",
"869 -45 OFFCURVE",
"925 11 OFFCURVE",
"925 80 CURVE SMOOTH",
"925 680 LINE SMOOTH",
"925 749 OFFCURVE",
"869 805 OFFCURVE",
"800 805 CURVE SMOOTH",
"200 805 LINE SMOOTH"
);
},
{
closed = 1;
nodes = (
"387 657 LINE",
"395 607 LINE",
"398 607 LINE",
"438 640 OFFCURVE",
"488 669 OFFCURVE",
"539 669 CURVE SMOOTH",
"657 669 OFFCURVE",
"723 576 OFFCURVE",
"723 434 CURVE SMOOTH",
"723 275 OFFCURVE",
"628 184 OFFCURVE",
"524 184 CURVE SMOOTH",
"482 184 OFFCURVE",
"441 203 OFFCURVE",
"402 236 CURVE",
"404 157 LINE",
"404 8 LINE",
"308 8 LINE",
"308 657 LINE"
);
},
{
closed = 1;
nodes = (
"623 529 OFFCURVE",
"592 588 OFFCURVE",
"514 588 CURVE SMOOTH",
"478 588 OFFCURVE",
"444 570 OFFCURVE",
"404 532 CURVE",
"404 306 LINE",
"440 275 OFFCURVE",
"476 264 OFFCURVE",
"505 264 CURVE SMOOTH",
"572 264 OFFCURVE",
"623 324 OFFCURVE",
"623 432 CURVE SMOOTH"
);
}
);
width = 1000;
}
);
unicode = 0070;
},
{
glyphname = q;
lastChange = "2014-12-22 03:08:09 +0000";
layers = (
{
layerId = "F84F5EB2-94F9-4556-9B6C-C2D485160B3A";
name = Regular;
paths = (
{
closed = 1;
nodes = (
"200 -75 LINE SMOOTH",
"115 -75 OFFCURVE",
"45 -5 OFFCURVE",
"45 80 CURVE SMOOTH",
"45 680 LINE SMOOTH",
"45 765 OFFCURVE",
"115 835 OFFCURVE",
"200 835 CURVE SMOOTH",
"800 835 LINE SMOOTH",
"885 835 OFFCURVE",
"955 765 OFFCURVE",
"955 680 CURVE SMOOTH",
"955 80 LINE SMOOTH",
"955 -5 OFFCURVE",
"885 -75 OFFCURVE",
"800 -75 CURVE SMOOTH"
);
},
{
closed = 1;
nodes = (
"131 805 OFFCURVE",
"75 749 OFFCURVE",
"75 680 CURVE SMOOTH",
"75 80 LINE SMOOTH",
"75 11 OFFCURVE",
"131 -45 OFFCURVE",
"200 -45 CURVE SMOOTH",
"800 -45 LINE SMOOTH",
"869 -45 OFFCURVE",
"925 11 OFFCURVE",
"925 80 CURVE SMOOTH",
"925 680 LINE SMOOTH",
"925 749 OFFCURVE",
"869 805 OFFCURVE",
"800 805 CURVE SMOOTH",
"200 805 LINE SMOOTH"
);
},
{
closed = 1;
nodes = (
"604 245 LINE",
"569 210 OFFCURVE",
"522 184 OFFCURVE",
"472 184 CURVE SMOOTH",
"356 184 OFFCURVE",
"281 273 OFFCURVE",
"281 425 CURVE SMOOTH",
"281 576 OFFCURVE",
"376 669 OFFCURVE",
"480 669 CURVE SMOOTH",
"532 669 OFFCURVE",
"570 650 OFFCURVE",
"608 613 CURVE",
"612 613 LINE",
"620 657 LINE",
"696 657 LINE",
"696 8 LINE",
"600 8 LINE",
"600 165 LINE"
);
},
{
closed = 1;
nodes = (
"600 546 LINE",
"565 577 OFFCURVE",
"533 588 OFFCURVE",
"498 588 CURVE SMOOTH",
"433 588 OFFCURVE",
"381 527 OFFCURVE",
"381 427 CURVE SMOOTH",
"381 322 OFFCURVE",
"423 264 OFFCURVE",
"495 264 CURVE SMOOTH",
"533 264 OFFCURVE",
"566 282 OFFCURVE",
"600 320 CURVE"
);
}
);
width = 1000;
}
);
unicode = 0071;
},
{
glyphname = r;
lastChange = "2014-12-22 03:28:31 +0000";
layers = (
{
layerId = "F84F5EB2-94F9-4556-9B6C-C2D485160B3A";
name = Regular;
paths = (
{
closed = 1;
nodes = (
"200 -75 LINE SMOOTH",
"115 -75 OFFCURVE",
"45 -5 OFFCURVE",
"45 80 CURVE SMOOTH",
"45 680 LINE SMOOTH",
"45 765 OFFCURVE",
"115 835 OFFCURVE",
"200 835 CURVE SMOOTH",
"800 835 LINE SMOOTH",
"885 835 OFFCURVE",
"955 765 OFFCURVE",
"955 680 CURVE SMOOTH",
"955 80 LINE SMOOTH",
"955 -5 OFFCURVE",
"885 -75 OFFCURVE",
"800 -75 CURVE SMOOTH"
);
},
{
closed = 1;
nodes = (
"131 805 OFFCURVE",
"75 749 OFFCURVE",
"75 680 CURVE SMOOTH",
"75 80 LINE SMOOTH",
"75 11 OFFCURVE",
"131 -45 OFFCURVE",
"200 -45 CURVE SMOOTH",
"800 -45 LINE SMOOTH",
"869 -45 OFFCURVE",
"925 11 OFFCURVE",
"925 80 CURVE SMOOTH",
"925 680 LINE SMOOTH",
"925 749 OFFCURVE",
"869 805 OFFCURVE",
"800 805 CURVE SMOOTH",
"200 805 LINE SMOOTH"
);
},
{
closed = 1;
nodes = (
"480 525 LINE",
"488 442 LINE",
"490 442 LINE",
"523 502 OFFCURVE",
"572 537 OFFCURVE",
"621 537 CURVE SMOOTH",
"644 537 OFFCURVE",
"659 534 OFFCURVE",
"673 527 CURVE",
"656 443 LINE",
"640 448 OFFCURVE",
"628 451 OFFCURVE",
"610 451 CURVE SMOOTH",
"572 451 OFFCURVE",
"526 424 OFFCURVE",
"497 351 CURVE",
"497 63 LINE",
"401 63 LINE",
"401 525 LINE"
);
}
);
width = 1000;
}
);
unicode = 0072;
},
{
glyphname = s;
lastChange = "2014-12-22 03:28:58 +0000";
layers = (
{
layerId = "F84F5EB2-94F9-4556-9B6C-C2D485160B3A";
name = Regular;
paths = (
{
closed = 1;
nodes = (
"200 -75 LINE SMOOTH",
"115 -75 OFFCURVE",
"45 -5 OFFCURVE",
"45 80 CURVE SMOOTH",
"45 680 LINE SMOOTH",
"45 765 OFFCURVE",
"115 835 OFFCURVE",
"200 835 CURVE SMOOTH",
"800 835 LINE SMOOTH",
"885 835 OFFCURVE",
"955 765 OFFCURVE",
"955 680 CURVE SMOOTH",
"955 80 LINE SMOOTH",
"955 -5 OFFCURVE",
"885 -75 OFFCURVE",
"800 -75 CURVE SMOOTH"
);
},
{
closed = 1;
nodes = (
"131 805 OFFCURVE",
"75 749 OFFCURVE",
"75 680 CURVE SMOOTH",
"75 80 LINE SMOOTH",
"75 11 OFFCURVE",
"131 -45 OFFCURVE",
"200 -45 CURVE SMOOTH",
"800 -45 LINE SMOOTH",
"869 -45 OFFCURVE",
"925 11 OFFCURVE",
"925 80 CURVE SMOOTH",
"925 680 LINE SMOOTH",
"925 749 OFFCURVE",
"869 805 OFFCURVE",
"800 805 CURVE SMOOTH",
"200 805 LINE SMOOTH"
);
},
{
closed = 1;
nodes = (
"368 178 LINE",
"409 146 OFFCURVE",
"450 125 OFFCURVE",
"499 125 CURVE SMOOTH",
"555 125 OFFCURVE",
"581 152 OFFCURVE",
"581 188 CURVE SMOOTH",
"581 230 OFFCURVE",
"529 248 OFFCURVE",
"478 267 CURVE SMOOTH",
"417 291 OFFCURVE",
"346 324 OFFCURVE",
"346 402 CURVE SMOOTH",
"346 479 OFFCURVE",
"408 537 OFFCURVE",
"510 537 CURVE SMOOTH",
"572 537 OFFCURVE",
"623 512 OFFCURVE",
"660 482 CURVE",
"615 423 LINE",
"583 446 OFFCURVE",
"550 463 OFFCURVE",
"512 463 CURVE SMOOTH",
"461 463 OFFCURVE",
"438 438 OFFCURVE",
"438 406 CURVE SMOOTH",
"438 367 OFFCURVE",
"486 351 OFFCURVE",
"536 333 CURVE SMOOTH",
"601 309 OFFCURVE",
"672 280 OFFCURVE",
"672 193 CURVE SMOOTH",
"672 115 OFFCURVE",
"611 52 OFFCURVE",
"497 52 CURVE SMOOTH",
"433 52 OFFCURVE",
"367 79 OFFCURVE",
"323 116 CURVE"
);
}
);
width = 1000;
}
);
unicode = 0073;
},
{
glyphname = t;
lastChange = "2014-12-22 03:30:03 +0000";
layers = (
{
layerId = "F84F5EB2-94F9-4556-9B6C-C2D485160B3A";
name = Regular;
paths = (
{
closed = 1;
nodes = (
"200 -75 LINE SMOOTH",
"115 -75 OFFCURVE",
"45 -5 OFFCURVE",
"45 80 CURVE SMOOTH",
"45 680 LINE SMOOTH",
"45 765 OFFCURVE",
"115 835 OFFCURVE",
"200 835 CURVE SMOOTH",
"800 835 LINE SMOOTH",
"885 835 OFFCURVE",
"955 765 OFFCURVE",
"955 680 CURVE SMOOTH",
"955 80 LINE SMOOTH",
"955 -5 OFFCURVE",
"885 -75 OFFCURVE",
"800 -75 CURVE SMOOTH"
);
},
{
closed = 1;
nodes = (
"131 805 OFFCURVE",
"75 749 OFFCURVE",
"75 680 CURVE SMOOTH",
"75 80 LINE SMOOTH",
"75 11 OFFCURVE",
"131 -45 OFFCURVE",
"200 -45 CURVE SMOOTH",
"800 -45 LINE SMOOTH",
"869 -45 OFFCURVE",
"925 11 OFFCURVE",
"925 80 CURVE SMOOTH",
"925 680 LINE SMOOTH",
"925 749 OFFCURVE",
"869 805 OFFCURVE",
"800 805 CURVE SMOOTH",
"200 805 LINE SMOOTH"
);
},
{
closed = 1;
nodes = (
"422 448 LINE",
"355 448 LINE",
"355 520 LINE",
"426 525 LINE",
"437 653 LINE",
"518 653 LINE",
"518 525 LINE",
"639 525 LINE",
"639 448 LINE",
"518 448 LINE",
"518 214 LINE SMOOTH",
"518 158 OFFCURVE",
"538 130 OFFCURVE",
"586 130 CURVE SMOOTH",
"602 130 OFFCURVE",
"622 135 OFFCURVE",
"635 141 CURVE",
"653 69 LINE",
"627 61 OFFCURVE",
"596 52 OFFCURVE",
"562 52 CURVE SMOOTH",
"458 52 OFFCURVE",
"422 117 OFFCURVE",
"422 214 CURVE SMOOTH"
);
}
);
width = 1000;
}
);
unicode = 0074;
},
{
glyphname = u;
lastChange = "2014-12-22 03:30:32 +0000";
layers = (
{
layerId = "F84F5EB2-94F9-4556-9B6C-C2D485160B3A";
name = Regular;
paths = (
{
closed = 1;
nodes = (
"200 -75 LINE SMOOTH",
"115 -75 OFFCURVE",
"45 -5 OFFCURVE",
"45 80 CURVE SMOOTH",
"45 680 LINE SMOOTH",
"45 765 OFFCURVE",
"115 835 OFFCURVE",
"200 835 CURVE SMOOTH",
"800 835 LINE SMOOTH",
"885 835 OFFCURVE",
"955 765 OFFCURVE",
"955 680 CURVE SMOOTH",
"955 80 LINE SMOOTH",
"955 -5 OFFCURVE",
"885 -75 OFFCURVE",
"800 -75 CURVE SMOOTH"
);
},
{
closed = 1;
nodes = (
"131 805 OFFCURVE",
"75 749 OFFCURVE",
"75 680 CURVE SMOOTH",
"75 80 LINE SMOOTH",
"75 11 OFFCURVE",
"131 -45 OFFCURVE",
"200 -45 CURVE SMOOTH",
"800 -45 LINE SMOOTH",
"869 -45 OFFCURVE",
"925 11 OFFCURVE",
"925 80 CURVE SMOOTH",
"925 680 LINE SMOOTH",
"925 749 OFFCURVE",
"869 805 OFFCURVE",
"800 805 CURVE SMOOTH",
"200 805 LINE SMOOTH"
);
},
{
closed = 1;
nodes = (
"307 525 LINE",
"403 525 LINE",
"403 246 LINE SMOOTH",
"403 167 OFFCURVE",
"426 136 OFFCURVE",
"481 136 CURVE SMOOTH",
"524 136 OFFCURVE",
"553 156 OFFCURVE",
"592 204 CURVE",
"592 525 LINE",
"688 525 LINE",
"688 63 LINE",
"609 63 LINE",
"602 133 LINE",
"599 133 LINE",
"557 84 OFFCURVE",
"512 52 OFFCURVE",
"448 52 CURVE SMOOTH",
"350 52 OFFCURVE",
"307 117 OFFCURVE",
"307 235 CURVE SMOOTH"
);
}
);
width = 1000;
}
);
unicode = 0075;
},
{
glyphname = v;
lastChange = "2014-12-22 03:31:03 +0000";
layers = (
{
layerId = "F84F5EB2-94F9-4556-9B6C-C2D485160B3A";
name = Regular;
paths = (
{
closed = 1;
nodes = (
"200 -75 LINE SMOOTH",
"115 -75 OFFCURVE",
"45 -5 OFFCURVE",
"45 80 CURVE SMOOTH",
"45 680 LINE SMOOTH",
"45 765 OFFCURVE",
"115 835 OFFCURVE",
"200 835 CURVE SMOOTH",
"800 835 LINE SMOOTH",
"885 835 OFFCURVE",
"955 765 OFFCURVE",
"955 680 CURVE SMOOTH",
"955 80 LINE SMOOTH",
"955 -5 OFFCURVE",
"885 -75 OFFCURVE",
"800 -75 CURVE SMOOTH"
);
},
{
closed = 1;
nodes = (
"131 805 OFFCURVE",
"75 749 OFFCURVE",
"75 680 CURVE SMOOTH",
"75 80 LINE SMOOTH",
"75 11 OFFCURVE",
"131 -45 OFFCURVE",
"200 -45 CURVE SMOOTH",
"800 -45 LINE SMOOTH",
"869 -45 OFFCURVE",
"925 11 OFFCURVE",
"925 80 CURVE SMOOTH",
"925 680 LINE SMOOTH",
"925 749 OFFCURVE",
"869 805 OFFCURVE",
"800 805 CURVE SMOOTH",
"200 805 LINE SMOOTH"
);
},
{
closed = 1;
nodes = (
"381 525 LINE",
"460 277 LINE",
"473 231 OFFCURVE",
"487 184 OFFCURVE",
"500 139 CURVE",
"504 139 LINE",
"517 184 OFFCURVE",
"531 231 OFFCURVE",
"544 277 CURVE",
"623 525 LINE",
"717 525 LINE",
"558 63 LINE",
"446 63 LINE",
"282 525 LINE"
);
}
);
width = 1000;
}
);
unicode = 0076;
},
{
glyphname = w;
lastChange = "2014-12-22 03:31:31 +0000";
layers = (
{
layerId = "F84F5EB2-94F9-4556-9B6C-C2D485160B3A";
name = Regular;
paths = (
{
closed = 1;
nodes = (
"200 -75 LINE SMOOTH",
"115 -75 OFFCURVE",
"45 -5 OFFCURVE",
"45 80 CURVE SMOOTH",
"45 680 LINE SMOOTH",
"45 765 OFFCURVE",
"115 835 OFFCURVE",
"200 835 CURVE SMOOTH",
"800 835 LINE SMOOTH",
"885 835 OFFCURVE",
"955 765 OFFCURVE",
"955 680 CURVE SMOOTH",
"955 80 LINE SMOOTH",
"955 -5 OFFCURVE",
"885 -75 OFFCURVE",
"800 -75 CURVE SMOOTH"
);
},
{
closed = 1;
nodes = (
"131 805 OFFCURVE",
"75 749 OFFCURVE",
"75 680 CURVE SMOOTH",
"75 80 LINE SMOOTH",
"75 11 OFFCURVE",
"131 -45 OFFCURVE",
"200 -45 CURVE SMOOTH",
"800 -45 LINE SMOOTH",
"869 -45 OFFCURVE",
"925 11 OFFCURVE",
"925 80 CURVE SMOOTH",
"925 680 LINE SMOOTH",
"925 749 OFFCURVE",
"869 805 OFFCURVE",
"800 805 CURVE SMOOTH",
"200 805 LINE SMOOTH"
);
},
{
closed = 1;
nodes = (
"272 525 LINE",
"334 275 LINE",
"343 230 OFFCURVE",
"350 188 OFFCURVE",
"359 144 CURVE",
"362 144 LINE",
"372 188 OFFCURVE",
"382 231 OFFCURVE",
"392 275 CURVE SMOOTH",
"457 525 LINE",
"547 525 LINE",
"613 275 LINE SMOOTH",
"624 230 OFFCURVE",
"634 188 OFFCURVE",
"644 144 CURVE",
"648 144 LINE",
"657 188 OFFCURVE",
"665 230 OFFCURVE",
"675 275 CURVE SMOOTH",
"734 525 LINE",
"825 525 LINE",
"706 63 LINE",
"590 63 LINE",
"531 292 LINE SMOOTH",
"520 335 OFFCURVE",
"512 377 OFFCURVE",
"502 425 CURVE",
"497 425 LINE",
"488 377 OFFCURVE",
"480 335 OFFCURVE",
"468 291 CURVE SMOOTH",
"412 63 LINE",
"300 63 LINE",
"175 525 LINE"
);
}
);
width = 1000;
}
);
unicode = 0077;
},
{
glyphname = x;
lastChange = "2014-12-22 03:31:57 +0000";
layers = (
{
layerId = "F84F5EB2-94F9-4556-9B6C-C2D485160B3A";
name = Regular;
paths = (
{
closed = 1;
nodes = (
"200 -75 LINE SMOOTH",
"115 -75 OFFCURVE",
"45 -5 OFFCURVE",
"45 80 CURVE SMOOTH",
"45 680 LINE SMOOTH",
"45 765 OFFCURVE",
"115 835 OFFCURVE",
"200 835 CURVE SMOOTH",
"800 835 LINE SMOOTH",
"885 835 OFFCURVE",
"955 765 OFFCURVE",
"955 680 CURVE SMOOTH",
"955 80 LINE SMOOTH",
"955 -5 OFFCURVE",
"885 -75 OFFCURVE",
"800 -75 CURVE SMOOTH"
);
},
{
closed = 1;
nodes = (
"131 805 OFFCURVE",
"75 749 OFFCURVE",
"75 680 CURVE SMOOTH",
"75 80 LINE SMOOTH",
"75 11 OFFCURVE",
"131 -45 OFFCURVE",
"200 -45 CURVE SMOOTH",
"800 -45 LINE SMOOTH",
"869 -45 OFFCURVE",
"925 11 OFFCURVE",
"925 80 CURVE SMOOTH",
"925 680 LINE SMOOTH",
"925 749 OFFCURVE",
"869 805 OFFCURVE",
"800 805 CURVE SMOOTH",
"200 805 LINE SMOOTH"
);
},
{
closed = 1;
nodes = (
"303 525 LINE",
"407 525 LINE",
"462 432 LINE",
"476 407 OFFCURVE",
"491 381 OFFCURVE",
"506 355 CURVE",
"509 355 LINE",
"522 381 OFFCURVE",
"535 407 OFFCURVE",
"548 432 CURVE SMOOTH",
"597 525 LINE",
"697 525 LINE",
"559 293 LINE",
"707 63 LINE",
"602 63 LINE",
"542 161 LINE",
"527 188 OFFCURVE",
"511 217 OFFCURVE",
"494 243 CURVE",
"490 243 LINE",
"476 217 OFFCURVE",
"461 189 OFFCURVE",
"447 161 CURVE",
"393 63 LINE",
"292 63 LINE",
"441 304 LINE"
);
}
);
width = 1000;
}
);
unicode = 0078;
},
{
glyphname = y;
lastChange = "2014-12-22 03:13:12 +0000";
layers = (
{
layerId = "F84F5EB2-94F9-4556-9B6C-C2D485160B3A";
name = Regular;
paths = (
{
closed = 1;
nodes = (
"200 -75 LINE SMOOTH",
"115 -75 OFFCURVE",
"45 -5 OFFCURVE",
"45 80 CURVE SMOOTH",
"45 680 LINE SMOOTH",
"45 765 OFFCURVE",
"115 835 OFFCURVE",
"200 835 CURVE SMOOTH",
"800 835 LINE SMOOTH",
"885 835 OFFCURVE",
"955 765 OFFCURVE",
"955 680 CURVE SMOOTH",
"955 80 LINE SMOOTH",
"955 -5 OFFCURVE",
"885 -75 OFFCURVE",
"800 -75 CURVE SMOOTH"
);
},
{
closed = 1;
nodes = (
"131 805 OFFCURVE",
"75 749 OFFCURVE",
"75 680 CURVE SMOOTH",
"75 80 LINE SMOOTH",
"75 11 OFFCURVE",
"131 -45 OFFCURVE",
"200 -45 CURVE SMOOTH",
"800 -45 LINE SMOOTH",
"869 -45 OFFCURVE",
"925 11 OFFCURVE",
"925 80 CURVE SMOOTH",
"925 680 LINE SMOOTH",
"925 749 OFFCURVE",
"869 805 OFFCURVE",
"800 805 CURVE SMOOTH",
"200 805 LINE SMOOTH"
);
},
{
closed = 1;
nodes = (
"512 72 OFFCURVE",
"463 6 OFFCURVE",
"366 6 CURVE SMOOTH",
"342 6 OFFCURVE",
"324 9 OFFCURVE",
"308 15 CURVE",
"326 91 LINE",
"335 88 OFFCURVE",
"348 84 OFFCURVE",
"360 84 CURVE SMOOTH",
"410 84 OFFCURVE",
"439 121 OFFCURVE",
"456 171 CURVE",
"466 203 LINE",
"282 661 LINE",
"382 661 LINE",
"467 424 LINE SMOOTH",
"481 382 OFFCURVE",
"495 336 OFFCURVE",
"509 293 CURVE",
"513 293 LINE",
"550 424 LINE",
"623 661 LINE",
"718 661 LINE",
"548 172 LINE SMOOTH"
);
}
);
width = 1000;
}
);
unicode = 0079;
},
{
glyphname = z;
lastChange = "2014-12-22 03:34:02 +0000";
layers = (
{
layerId = "F84F5EB2-94F9-4556-9B6C-C2D485160B3A";
name = Regular;
paths = (
{
closed = 1;
nodes = (
"200 -75 LINE SMOOTH",
"115 -75 OFFCURVE",
"45 -5 OFFCURVE",
"45 80 CURVE SMOOTH",
"45 680 LINE SMOOTH",
"45 765 OFFCURVE",
"115 835 OFFCURVE",
"200 835 CURVE SMOOTH",
"800 835 LINE SMOOTH",
"885 835 OFFCURVE",
"955 765 OFFCURVE",
"955 680 CURVE SMOOTH",
"955 80 LINE SMOOTH",
"955 -5 OFFCURVE",
"885 -75 OFFCURVE",
"800 -75 CURVE SMOOTH"
);
},
{
closed = 1;
nodes = (
"131 805 OFFCURVE",
"75 749 OFFCURVE",
"75 680 CURVE SMOOTH",
"75 80 LINE SMOOTH",
"75 11 OFFCURVE",
"131 -45 OFFCURVE",
"200 -45 CURVE SMOOTH",
"800 -45 LINE SMOOTH",
"869 -45 OFFCURVE",
"925 11 OFFCURVE",
"925 80 CURVE SMOOTH",
"925 680 LINE SMOOTH",
"925 749 OFFCURVE",
"869 805 OFFCURVE",
"800 805 CURVE SMOOTH",
"200 805 LINE SMOOTH"
);
},
{
closed = 1;
nodes = (
"553 448 LINE",
"350 448 LINE",
"350 525 LINE",
"675 525 LINE",
"675 474 LINE",
"447 141 LINE",
"682 141 LINE",
"682 63 LINE",
"325 63 LINE",
"325 115 LINE"
);
}
);
width = 1000;
}
);
unicode = 007A;
},
{
glyphname = A_l_t;
lastChange = "2014-10-27 06:40:38 +0000";
layers = (
{
layerId = "F84F5EB2-94F9-4556-9B6C-C2D485160B3A";
name = Regular;
paths = (
{
closed = 1;
nodes = (
"200 -75 LINE SMOOTH",
"115 -75 OFFCURVE",
"45 -5 OFFCURVE",
"45 80 CURVE SMOOTH",
"45 680 LINE SMOOTH",
"45 765 OFFCURVE",
"115 835 OFFCURVE",
"200 835 CURVE SMOOTH",
"1800 835 LINE SMOOTH",
"1885 835 OFFCURVE",
"1955 765 OFFCURVE",
"1955 680 CURVE SMOOTH",
"1955 80 LINE SMOOTH",
"1955 -5 OFFCURVE",
"1885 -75 OFFCURVE",
"1800 -75 CURVE SMOOTH"
);
},
{
closed = 1;
nodes = (
"131 805 OFFCURVE",
"75 749 OFFCURVE",
"75 680 CURVE SMOOTH",
"75 80 LINE SMOOTH",
"75 11 OFFCURVE",
"131 -45 OFFCURVE",
"200 -45 CURVE SMOOTH",
"1800 -45 LINE SMOOTH",
"1869 -45 OFFCURVE",
"1925 11 OFFCURVE",
"1925 80 CURVE SMOOTH",
"1925 680 LINE SMOOTH",
"1925 749 OFFCURVE",
"1869 805 OFFCURVE",
"1800 805 CURVE SMOOTH",
"200 805 LINE SMOOTH"
);
},
{
closed = 1;
nodes = (
"642 258 LINE",
"599 115 LINE",
"519 115 LINE",
"684 616 LINE",
"776 616 LINE",
"942 115 LINE",
"858 115 LINE",
"816 258 LINE"
);
},
{
closed = 1;
nodes = (
"777 387 LINE SMOOTH",
"760 442 OFFCURVE",
"745 497 OFFCURVE",
"729 554 CURVE",
"727 554 LINE",
"712 497 OFFCURVE",
"697 442 OFFCURVE",
"680 387 CURVE SMOOTH",
"660 320 LINE",
"797 320 LINE"
);
},
{
closed = 1;
nodes = (
"1035 657 LINE",
"1112 657 LINE",
"1112 199 LINE SMOOTH",
"1112 178 OFFCURVE",
"1122 170 OFFCURVE",
"1131 170 CURVE SMOOTH",
"1135 170 OFFCURVE",
"1137 170 OFFCURVE",
"1144 172 CURVE",
"1154 113 LINE",
"1145 109 OFFCURVE",
"1131 106 OFFCURVE",
"1112 106 CURVE SMOOTH",
"1056 106 OFFCURVE",
"1035 142 OFFCURVE",
"1035 203 CURVE SMOOTH"
);
},
{
closed = 1;
nodes = (
"1284 427 LINE",
"1229 427 LINE",
"1229 485 LINE",
"1287 489 LINE",
"1296 593 LINE",
"1362 593 LINE",
"1362 489 LINE",
"1459 489 LINE",
"1459 427 LINE",
"1362 427 LINE",
"1362 237 LINE SMOOTH",
"1362 192 OFFCURVE",
"1377 169 OFFCURVE",
"1416 169 CURVE SMOOTH",
"1429 169 OFFCURVE",
"1445 173 OFFCURVE",
"1456 178 CURVE",
"1471 120 LINE",
"1449 113 OFFCURVE",
"1424 106 OFFCURVE",
"1397 106 CURVE SMOOTH",
"1313 106 OFFCURVE",
"1284 159 OFFCURVE",
"1284 238 CURVE SMOOTH"
);
}
);
width = 2000;
}
);
},
{
glyphname = B_a_c_k_s_p_a_c_e;
lastChange = "2014-10-27 07:04:38 +0000";
layers = (
{
layerId = "F84F5EB2-94F9-4556-9B6C-C2D485160B3A";
name = Regular;
paths = (
{
closed = 1;
nodes = (
"200 -75 LINE SMOOTH",
"115 -75 OFFCURVE",
"45 -5 OFFCURVE",
"45 80 CURVE SMOOTH",
"45 680 LINE SMOOTH",
"45 765 OFFCURVE",
"115 835 OFFCURVE",
"200 835 CURVE SMOOTH",
"1800 835 LINE SMOOTH",
"1885 835 OFFCURVE",
"1955 765 OFFCURVE",
"1955 680 CURVE SMOOTH",
"1955 80 LINE SMOOTH",
"1955 -5 OFFCURVE",
"1885 -75 OFFCURVE",
"1800 -75 CURVE SMOOTH"
);
},
{
closed = 1;
nodes = (
"131 805 OFFCURVE",
"75 749 OFFCURVE",
"75 680 CURVE SMOOTH",
"75 80 LINE SMOOTH",
"75 11 OFFCURVE",
"131 -45 OFFCURVE",
"200 -45 CURVE SMOOTH",
"1800 -45 LINE SMOOTH",
"1869 -45 OFFCURVE",
"1925 11 OFFCURVE",
"1925 80 CURVE SMOOTH",
"1925 680 LINE SMOOTH",
"1925 749 OFFCURVE",
"1869 805 OFFCURVE",
"1800 805 CURVE SMOOTH",
"200 805 LINE SMOOTH"
);
},
{
closed = 1;
nodes = (
"533 728 LINE SMOOTH",
"606 728 OFFCURVE",
"662 709 OFFCURVE",
"662 649 CURVE SMOOTH",
"662 620 OFFCURVE",
"644 589 OFFCURVE",
"613 580 CURVE",
"613 578 LINE",
"652 570 OFFCURVE",
"680 545 OFFCURVE",
"680 502 CURVE SMOOTH",
"680 438 OFFCURVE",
"621 408 OFFCURVE",
"542 408 CURVE SMOOTH",
"416 408 LINE",
"416 728 LINE"
);
},
{
closed = 1;
nodes = (
"573 598 OFFCURVE",
"593 614 OFFCURVE",
"593 640 CURVE SMOOTH",
"593 668 OFFCURVE",
"572 679 OFFCURVE",
"529 679 CURVE SMOOTH",
"487 679 LINE",
"487 598 LINE",
"528 598 LINE SMOOTH"
);
},
{
closed = 1;
nodes = (
"585 457 OFFCURVE",
"611 473 OFFCURVE",
"611 506 CURVE SMOOTH",
"611 537 OFFCURVE",
"585 550 OFFCURVE",
"536 550 CURVE SMOOTH",
"487 550 LINE",
"487 457 LINE",
"536 457 LINE SMOOTH"
);
},
{
closed = 1;
nodes = (
"714 525 OFFCURVE",
"760 553 OFFCURVE",
"868 563 CURVE",
"867 587 OFFCURVE",
"856 605 OFFCURVE",
"823 605 CURVE SMOOTH",
"798 605 OFFCURVE",
"774 595 OFFCURVE",
"749 582 CURVE",
"723 624 LINE",
"755 642 OFFCURVE",
"793 656 OFFCURVE",
"836 656 CURVE SMOOTH",
"904 656 OFFCURVE",
"939 619 OFFCURVE",
"939 549 CURVE SMOOTH",
"939 408 LINE",
"881 408 LINE",
"876 434 LINE",
"875 434 LINE",
"851 416 OFFCURVE",
"824 402 OFFCURVE",
"793 402 CURVE SMOOTH",
"745 402 OFFCURVE",
"714 433 OFFCURVE",
"714 474 CURVE SMOOTH"
);
},
{
closed = 1;
nodes = (
"868 524 LINE",
"803 516 OFFCURVE",
"781 500 OFFCURVE",
"781 479 CURVE SMOOTH",
"781 460 OFFCURVE",
"796 452 OFFCURVE",
"816 452 CURVE SMOOTH",
"837 452 OFFCURVE",
"852 460 OFFCURVE",
"868 475 CURVE"
);
},
{
closed = 1;
nodes = (
"984 609 OFFCURVE",
"1049 656 OFFCURVE",
"1122 656 CURVE SMOOTH",
"1155 656 OFFCURVE",
"1180 644 OFFCURVE",
"1200 629 CURVE",
"1166 588 LINE",
"1153 598 OFFCURVE",
"1140 604 OFFCURVE",
"1125 604 CURVE SMOOTH",
"1084 604 OFFCURVE",
"1056 574 OFFCURVE",
"1056 529 CURVE SMOOTH",
"1056 483 OFFCURVE",
"1084 454 OFFCURVE",
"1123 454 CURVE SMOOTH",
"1142 454 OFFCURVE",
"1161 462 OFFCURVE",
"1175 473 CURVE",
"1203 431 LINE",
"1178 411 OFFCURVE",
"1145 402 OFFCURVE",
"1115 402 CURVE SMOOTH",
"1041 402 OFFCURVE",
"984 449 OFFCURVE",
"984 529 CURVE SMOOTH"
);
},
{
closed = 1;
nodes = (
"1313 753 LINE",
"1313 545 LINE",
"1315 545 LINE",
"1408 650 LINE",
"1485 650 LINE",
"1392 551 LINE",
"1494 408 LINE",
"1417 408 LINE",
"1352 508 LINE",
"1313 468 LINE",
"1313 408 LINE",
"1245 408 LINE",
"1245 753 LINE"
);
},
{
closed = 1;
nodes = (
"417 136 LINE",
"441 119 OFFCURVE",
"464 109 OFFCURVE",
"489 109 CURVE SMOOTH",
"515 109 OFFCURVE",
"527 120 OFFCURVE",
"527 135 CURVE SMOOTH",
"527 153 OFFCURVE",
"500 161 OFFCURVE",
"471 171 CURVE SMOOTH",
"437 183 OFFCURVE",
"398 201 OFFCURVE",
"398 242 CURVE SMOOTH",
"398 285 OFFCURVE",
"437 316 OFFCURVE",
"498 316 CURVE SMOOTH",
"537 316 OFFCURVE",
"567 301 OFFCURVE",
"589 286 CURVE",
"558 248 LINE",
"539 260 OFFCURVE",
"520 268 OFFCURVE",
"500 268 CURVE SMOOTH",
"476 268 OFFCURVE",
"464 259 OFFCURVE",
"464 245 CURVE SMOOTH",
"464 227 OFFCURVE",
"491 221 OFFCURVE",
"519 211 CURVE SMOOTH",
"554 199 OFFCURVE",
"594 183 OFFCURVE",
"594 138 CURVE SMOOTH",
"594 96 OFFCURVE",
"557 62 OFFCURVE",
"487 62 CURVE SMOOTH",
"451 62 OFFCURVE",
"411 76 OFFCURVE",
"384 96 CURVE"
);
},
{
closed = 1;
nodes = (
"700 310 LINE",
"705 285 LINE",
"707 285 LINE",
"730 302 OFFCURVE",
"757 316 OFFCURVE",
"786 316 CURVE SMOOTH",
"852 316 OFFCURVE",
"892 267 OFFCURVE",
"892 193 CURVE SMOOTH",
"892 110 OFFCURVE",
"837 62 OFFCURVE",
"778 62 CURVE SMOOTH",
"754 62 OFFCURVE",
"731 71 OFFCURVE",
"711 88 CURVE",
"713 49 LINE",
"713 -25 LINE",
"643 -25 LINE",
"643 310 LINE"
);
},
{
closed = 1;
nodes = (
"819 238 OFFCURVE",
"803 264 OFFCURVE",
"766 264 CURVE SMOOTH",
"748 264 OFFCURVE",
"731 255 OFFCURVE",
"713 239 CURVE",
"713 132 LINE",
"730 119 OFFCURVE",
"747 114 OFFCURVE",
"762 114 CURVE SMOOTH",
"794 114 OFFCURVE",
"819 139 OFFCURVE",
"819 192 CURVE SMOOTH"
);
},
{
closed = 1;
nodes = (
"934 185 OFFCURVE",
"980 213 OFFCURVE",
"1088 223 CURVE",
"1087 247 OFFCURVE",
"1076 265 OFFCURVE",
"1043 265 CURVE SMOOTH",
"1018 265 OFFCURVE",
"994 255 OFFCURVE",
"969 242 CURVE",
"943 284 LINE",
"975 302 OFFCURVE",
"1013 316 OFFCURVE",
"1055 316 CURVE SMOOTH",
"1124 316 OFFCURVE",
"1159 279 OFFCURVE",
"1159 209 CURVE SMOOTH",
"1159 68 LINE",
"1101 68 LINE",
"1096 94 LINE",
"1094 94 LINE",
"1071 76 OFFCURVE",
"1044 62 OFFCURVE",
"1013 62 CURVE SMOOTH",
"965 62 OFFCURVE",
"934 93 OFFCURVE",
"934 134 CURVE SMOOTH"
);
},
{
closed = 1;
nodes = (
"1088 184 LINE",
"1023 176 OFFCURVE",
"1001 160 OFFCURVE",
"1001 139 CURVE SMOOTH",
"1001 120 OFFCURVE",
"1016 112 OFFCURVE",
"1036 112 CURVE SMOOTH",
"1056 112 OFFCURVE",
"1071 120 OFFCURVE",
"1088 135 CURVE"
);
},
{
closed = 1;
nodes = (
"1209 269 OFFCURVE",
"1273 316 OFFCURVE",
"1346 316 CURVE SMOOTH",
"1379 316 OFFCURVE",
"1405 304 OFFCURVE",
"1425 289 CURVE",
"1391 248 LINE",
"1378 258 OFFCURVE",
"1365 264 OFFCURVE",
"1350 264 CURVE SMOOTH",
"1309 264 OFFCURVE",
"1281 234 OFFCURVE",
"1281 189 CURVE SMOOTH",
"1281 143 OFFCURVE",
"1309 114 OFFCURVE",
"1348 114 CURVE SMOOTH",
"1367 114 OFFCURVE",
"1385 122 OFFCURVE",
"1400 133 CURVE",
"1428 91 LINE",
"1403 71 OFFCURVE",
"1370 62 OFFCURVE",
"1340 62 CURVE SMOOTH",
"1266 62 OFFCURVE",
"1209 109 OFFCURVE",
"1209 189 CURVE SMOOTH"
);
},
{
closed = 1;
nodes = (
"1457 267 OFFCURVE",
"1518 316 OFFCURVE",
"1583 316 CURVE SMOOTH",
"1656 316 OFFCURVE",
"1695 267 OFFCURVE",
"1695 200 CURVE SMOOTH",
"1695 189 OFFCURVE",
"1693 177 OFFCURVE",
"1691 171 CURVE",
"1526 171 LINE",
"1532 131 OFFCURVE",
"1560 111 OFFCURVE",
"1600 111 CURVE SMOOTH",
"1622 111 OFFCURVE",
"1642 117 OFFCURVE",
"1661 128 CURVE",
"1685 89 LINE",
"1658 72 OFFCURVE",
"1624 62 OFFCURVE",
"1591 62 CURVE SMOOTH",
"1516 62 OFFCURVE",
"1457 109 OFFCURVE",
"1457 189 CURVE SMOOTH"
);
},
{
closed = 1;
nodes = (
"1634 246 OFFCURVE",
"1618 267 OFFCURVE",
"1583 267 CURVE SMOOTH",
"1555 267 OFFCURVE",
"1530 249 OFFCURVE",
"1525 213 CURVE",
"1634 213 LINE"
);
}
);
width = 2000;
}
);
},
{
glyphname = B_r_e_a_k;
lastChange = "2014-10-27 07:07:37 +0000";
layers = (
{
layerId = "F84F5EB2-94F9-4556-9B6C-C2D485160B3A";
name = Regular;
paths = (
{
closed = 1;
nodes = (
"200 -75 LINE SMOOTH",
"115 -75 OFFCURVE",
"45 -5 OFFCURVE",
"45 80 CURVE SMOOTH",
"45 680 LINE SMOOTH",
"45 766 OFFCURVE",
"115 835 OFFCURVE",
"200 835 CURVE SMOOTH",
"1800 835 LINE SMOOTH",
"1885 835 OFFCURVE",
"1955 766 OFFCURVE",
"1955 680 CURVE SMOOTH",
"1955 80 LINE SMOOTH",
"1955 -5 OFFCURVE",
"1885 -75 OFFCURVE",
"1800 -75 CURVE SMOOTH"
);
},
{
closed = 1;
nodes = (
"131 805 OFFCURVE",
"75 749 OFFCURVE",
"75 680 CURVE SMOOTH",
"75 80 LINE SMOOTH",
"75 11 OFFCURVE",
"131 -45 OFFCURVE",
"200 -45 CURVE SMOOTH",
"1800 -45 LINE SMOOTH",
"1869 -45 OFFCURVE",
"1925 11 OFFCURVE",
"1925 80 CURVE SMOOTH",
"1925 680 LINE SMOOTH",
"1925 749 OFFCURVE",
"1869 805 OFFCURVE",
"1800 805 CURVE SMOOTH",
"200 805 LINE SMOOTH"
);
},
{
closed = 1;
nodes = (
"438 559 LINE SMOOTH",
"517 559 OFFCURVE",
"577 539 OFFCURVE",
"577 474 CURVE SMOOTH",
"577 442 OFFCURVE",
"557 410 OFFCURVE",
"525 399 CURVE",
"525 397 LINE",
"566 388 OFFCURVE",
"597 362 OFFCURVE",
"597 315 CURVE SMOOTH",
"597 245 OFFCURVE",
"533 213 OFFCURVE",
"448 213 CURVE SMOOTH",
"310 213 LINE",
"310 559 LINE"
);
},
{
closed = 1;
nodes = (
"481 418 OFFCURVE",
"502 436 OFFCURVE",
"502 464 CURVE SMOOTH",
"502 494 OFFCURVE",
"479 506 OFFCURVE",
"433 506 CURVE SMOOTH",
"387 506 LINE",
"387 418 LINE",
"432 418 LINE SMOOTH"
);
},
{
closed = 1;
nodes = (
"494 266 OFFCURVE",
"522 283 OFFCURVE",
"522 319 CURVE SMOOTH",
"522 353 OFFCURVE",
"494 367 OFFCURVE",
"441 367 CURVE SMOOTH",
"387 367 LINE",
"387 266 LINE",
"441 266 LINE SMOOTH"
);
},
{
closed = 1;
nodes = (
"716 475 LINE",
"721 429 LINE",
"723 429 LINE",
"744 463 OFFCURVE",
"775 482 OFFCURVE",
"806 482 CURVE SMOOTH",
"822 482 OFFCURVE",
"831 479 OFFCURVE",
"840 476 CURVE",
"826 417 LINE",
"816 419 OFFCURVE",
"808 421 OFFCURVE",
"796 421 CURVE SMOOTH",
"773 421 OFFCURVE",
"746 407 OFFCURVE",
"729 369 CURVE",
"729 213 LINE",
"653 213 LINE",
"653 475 LINE"
);
},
{
closed = 1;
nodes = (
"856 429 OFFCURVE",
"923 482 OFFCURVE",
"992 482 CURVE SMOOTH",
"1072 482 OFFCURVE",
"1114 429 OFFCURVE",
"1114 356 CURVE SMOOTH",
"1114 344 OFFCURVE",
"1112 331 OFFCURVE",
"1110 325 CURVE",
"931 325 LINE",
"937 282 OFFCURVE",
"968 259 OFFCURVE",
"1011 259 CURVE SMOOTH",
"1035 259 OFFCURVE",
"1056 266 OFFCURVE",
"1077 278 CURVE",
"1103 235 LINE",
"1074 218 OFFCURVE",
"1037 206 OFFCURVE",
"1001 206 CURVE SMOOTH",
"920 206 OFFCURVE",
"856 257 OFFCURVE",
"856 344 CURVE SMOOTH"
);
},
{
closed = 1;
nodes = (
"1048 406 OFFCURVE",
"1031 428 OFFCURVE",
"993 428 CURVE SMOOTH",
"963 428 OFFCURVE",
"936 409 OFFCURVE",
"930 370 CURVE",
"1048 370 LINE"
);
},
{
closed = 1;
nodes = (
"1157 340 OFFCURVE",
"1207 370 OFFCURVE",
"1324 381 CURVE",
"1323 407 OFFCURVE",
"1311 426 OFFCURVE",
"1275 426 CURVE SMOOTH",
"1248 426 OFFCURVE",
"1222 416 OFFCURVE",
"1195 402 CURVE",
"1167 447 LINE",
"1202 466 OFFCURVE",
"1243 482 OFFCURVE",
"1289 482 CURVE SMOOTH",
"1363 482 OFFCURVE",
"1401 442 OFFCURVE",
"1401 366 CURVE SMOOTH",
"1401 213 LINE",
"1339 213 LINE",
"1333 241 LINE",
"1331 241 LINE",
"1306 221 OFFCURVE",
"1277 206 OFFCURVE",
"1243 206 CURVE SMOOTH",
"1191 206 OFFCURVE",
"1157 240 OFFCURVE",
"1157 284 CURVE SMOOTH"
);
},
{
closed = 1;
nodes = (
"1324 339 LINE",
"1254 330 OFFCURVE",
"1230 313 OFFCURVE",
"1230 290 CURVE SMOOTH",
"1230 269 OFFCURVE",
"1246 260 OFFCURVE",
"1268 260 CURVE SMOOTH",
"1290 260 OFFCURVE",
"1306 270 OFFCURVE",
"1324 286 CURVE"
);
},
{
closed = 1;
nodes = (
"1538 586 LINE",
"1538 362 LINE",
"1540 362 LINE",
"1641 475 LINE",
"1724 475 LINE",
"1623 368 LINE",
"1733 213 LINE",
"1651 213 LINE",
"1580 322 LINE",
"1538 278 LINE",
"1538 213 LINE",
"1463 213 LINE",
"1463 586 LINE"
);
}
);
width = 2000;
}
);
},
{
glyphname = C_a_p_s;
lastChange = "2014-12-22 02:56:56 +0000";
layers = (
{
layerId = "F84F5EB2-94F9-4556-9B6C-C2D485160B3A";
name = Regular;
paths = (
{
closed = 1;
nodes = (
"200 -75 LINE SMOOTH",
"115 -75 OFFCURVE",
"45 -5 OFFCURVE",
"45 80 CURVE SMOOTH",
"45 680 LINE SMOOTH",
"45 765 OFFCURVE",
"115 835 OFFCURVE",
"200 835 CURVE SMOOTH",
"1800 835 LINE SMOOTH",
"1885 835 OFFCURVE",
"1955 765 OFFCURVE",
"1955 680 CURVE SMOOTH",
"1955 80 LINE SMOOTH",
"1955 -5 OFFCURVE",
"1885 -75 OFFCURVE",
"1800 -75 CURVE SMOOTH"
);
},
{
closed = 1;
nodes = (
"131 805 OFFCURVE",
"75 749 OFFCURVE",
"75 680 CURVE SMOOTH",
"75 80 LINE SMOOTH",
"75 11 OFFCURVE",
"131 -45 OFFCURVE",
"200 -45 CURVE SMOOTH",
"1800 -45 LINE SMOOTH",
"1869 -45 OFFCURVE",
"1925 11 OFFCURVE",
"1925 80 CURVE SMOOTH",
"1925 680 LINE SMOOTH",
"1925 749 OFFCURVE",
"1869 805 OFFCURVE",
"1800 805 CURVE SMOOTH",
"200 805 LINE SMOOTH"
);
},
{
closed = 1;
nodes = (
"267 551 OFFCURVE",
"366 649 OFFCURVE",
"492 649 CURVE SMOOTH",
"555 649 OFFCURVE",
"604 619 OFFCURVE",
"634 586 CURVE",
"592 536 LINE",
"566 562 OFFCURVE",
"535 581 OFFCURVE",
"494 581 CURVE SMOOTH",
"407 581 OFFCURVE",
"348 508 OFFCURVE",
"348 391 CURVE SMOOTH",
"348 272 OFFCURVE",
"403 199 OFFCURVE",
"492 199 CURVE SMOOTH",
"537 199 OFFCURVE",
"573 219 OFFCURVE",
"603 252 CURVE",
"645 202 LINE",
"605 156 OFFCURVE",
"554 130 OFFCURVE",
"489 130 CURVE SMOOTH",
"363 130 OFFCURVE",
"267 224 OFFCURVE",
"267 388 CURVE SMOOTH"
);
},
{
closed = 1;
nodes = (
"705 319 OFFCURVE",
"773 360 OFFCURVE",
"928 377 CURVE",
"928 421 OFFCURVE",
"912 459 OFFCURVE",
"857 459 CURVE SMOOTH",
"817 459 OFFCURVE",
"781 441 OFFCURVE",
"749 421 CURVE",
"720 474 LINE",
"758 498 OFFCURVE",
"811 523 OFFCURVE",
"870 523 CURVE SMOOTH",
"964 523 OFFCURVE",
"1006 464 OFFCURVE",
"1006 364 CURVE SMOOTH",
"1006 139 LINE",
"943 139 LINE",
"936 182 LINE",
"934 182 LINE",
"900 153 OFFCURVE",
"860 130 OFFCURVE",
"815 130 CURVE SMOOTH",
"750 130 OFFCURVE",
"705 173 OFFCURVE",
"705 239 CURVE SMOOTH"
);
},
{
closed = 1;
nodes = (
"928 328 LINE",
"817 314 OFFCURVE",
"780 286 OFFCURVE",
"780 244 CURVE SMOOTH",
"780 207 OFFCURVE",
"805 192 OFFCURVE",
"838 192 CURVE SMOOTH",
"871 192 OFFCURVE",
"898 208 OFFCURVE",
"928 236 CURVE"
);
},
{
closed = 1;
nodes = (
"1161 513 LINE",
"1167 472 LINE",
"1169 472 LINE",
"1202 500 OFFCURVE",
"1242 523 OFFCURVE",
"1284 523 CURVE SMOOTH",
"1379 523 OFFCURVE",
"1432 447 OFFCURVE",
"1432 332 CURVE SMOOTH",
"1432 204 OFFCURVE",
"1355 130 OFFCURVE",
"1271 130 CURVE SMOOTH",
"1238 130 OFFCURVE",
"1204 145 OFFCURVE",
"1172 173 CURVE",
"1174 109 LINE",
"1174 -12 LINE",
"1097 -12 LINE",
"1097 513 LINE"
);
},
{
closed = 1;
nodes = (
"1351 409 OFFCURVE",
"1326 457 OFFCURVE",
"1263 457 CURVE SMOOTH",
"1234 457 OFFCURVE",
"1206 443 OFFCURVE",
"1174 412 CURVE",
"1174 229 LINE",
"1204 204 OFFCURVE",
"1233 195 OFFCURVE",
"1256 195 CURVE SMOOTH",
"1310 195 OFFCURVE",
"1351 243 OFFCURVE",
"1351 331 CURVE SMOOTH"
);
},
{
closed = 1;
nodes = (
"1502 232 LINE",
"1536 206 OFFCURVE",
"1568 190 OFFCURVE",
"1608 190 CURVE SMOOTH",
"1653 190 OFFCURVE",
"1674 211 OFFCURVE",
"1674 240 CURVE SMOOTH",
"1674 274 OFFCURVE",
"1632 289 OFFCURVE",
"1591 304 CURVE SMOOTH",
"1542 324 OFFCURVE",
"1484 350 OFFCURVE",
"1484 413 CURVE SMOOTH",
"1484 476 OFFCURVE",
"1535 523 OFFCURVE",
"1617 523 CURVE SMOOTH",
"1667 523 OFFCURVE",
"1708 502 OFFCURVE",
"1739 479 CURVE",
"1702 430 LINE",
"1676 449 OFFCURVE",
"1650 463 OFFCURVE",
"1618 463 CURVE SMOOTH",
"1578 463 OFFCURVE",
"1559 443 OFFCURVE",
"1559 417 CURVE SMOOTH",
"1559 385 OFFCURVE",
"1597 372 OFFCURVE",
"1638 358 CURVE SMOOTH",
"1691 338 OFFCURVE",
"1748 315 OFFCURVE",
"1748 244 CURVE SMOOTH",
"1748 181 OFFCURVE",
"1699 130 OFFCURVE",
"1606 130 CURVE SMOOTH",
"1555 130 OFFCURVE",
"1501 152 OFFCURVE",
"1465 182 CURVE"
);
}
);
width = 2000;
}
);
},
{
glyphname = C_a_p_s_L_o_c_k;
lastChange = "2014-10-27 06:53:44 +0000";
layers = (
{
layerId = "F84F5EB2-94F9-4556-9B6C-C2D485160B3A";
name = Regular;
paths = (
{
closed = 1;
nodes = (
"200 -75 LINE SMOOTH",
"115 -75 OFFCURVE",
"45 -5 OFFCURVE",
"45 80 CURVE SMOOTH",
"45 680 LINE SMOOTH",
"45 765 OFFCURVE",
"115 835 OFFCURVE",
"200 835 CURVE SMOOTH",
"1800 835 LINE SMOOTH",
"1885 835 OFFCURVE",
"1955 765 OFFCURVE",
"1955 680 CURVE SMOOTH",
"1955 80 LINE SMOOTH",
"1955 -5 OFFCURVE",
"1885 -75 OFFCURVE",
"1800 -75 CURVE SMOOTH"
);
},
{
closed = 1;
nodes = (
"131 805 OFFCURVE",
"75 749 OFFCURVE",
"75 680 CURVE SMOOTH",
"75 80 LINE SMOOTH",
"75 11 OFFCURVE",
"131 -45 OFFCURVE",
"200 -45 CURVE SMOOTH",
"1800 -45 LINE SMOOTH",
"1869 -45 OFFCURVE",
"1925 11 OFFCURVE",
"1925 80 CURVE SMOOTH",
"1925 680 LINE SMOOTH",
"1925 749 OFFCURVE",
"1869 805 OFFCURVE",
"1800 805 CURVE SMOOTH",
"200 805 LINE SMOOTH"
);
},
{
closed = 1;
nodes = (
"482 680 OFFCURVE",
"557 742 OFFCURVE",
"647 742 CURVE SMOOTH",
"692 742 OFFCURVE",
"728 723 OFFCURVE",
"751 701 CURVE",
"714 661 LINE",
"696 676 OFFCURVE",
"675 687 OFFCURVE",
"648 687 CURVE SMOOTH",
"595 687 OFFCURVE",
"554 646 OFFCURVE",
"554 577 CURVE SMOOTH",
"554 508 OFFCURVE",
"591 466 OFFCURVE",
"647 466 CURVE SMOOTH",
"677 466 OFFCURVE",
"701 479 OFFCURVE",
"720 497 CURVE",
"758 458 LINE",
"729 427 OFFCURVE",
"691 411 OFFCURVE",
"645 411 CURVE SMOOTH",
"555 411 OFFCURVE",
"482 468 OFFCURVE",
"482 575 CURVE SMOOTH"
);
},
{
closed = 1;
nodes = (
"786 534 OFFCURVE",
"833 561 OFFCURVE",
"941 572 CURVE",
"940 595 OFFCURVE",
"928 614 OFFCURVE",
"895 614 CURVE SMOOTH",
"870 614 OFFCURVE",
"846 604 OFFCURVE",
"821 591 CURVE",
"796 633 LINE",
"828 650 OFFCURVE",
"866 665 OFFCURVE",
"908 665 CURVE SMOOTH",
"976 665 OFFCURVE",
"1011 628 OFFCURVE",
"1011 558 CURVE SMOOTH",
"1011 417 LINE",
"954 417 LINE",
"948 442 LINE",
"947 442 LINE",
"923 424 OFFCURVE",
"897 411 OFFCURVE",
"866 411 CURVE SMOOTH",
"818 411 OFFCURVE",
"786 441 OFFCURVE",
"786 482 CURVE SMOOTH"
);
},
{
closed = 1;
nodes = (
"941 533 LINE",
"876 525 OFFCURVE",
"853 509 OFFCURVE",
"853 487 CURVE SMOOTH",
"853 468 OFFCURVE",
"868 460 OFFCURVE",
"889 460 CURVE SMOOTH",
"909 460 OFFCURVE",
"924 469 OFFCURVE",
"941 484 CURVE"
);
},
{
closed = 1;
nodes = (
"1122 658 LINE",
"1127 633 LINE",
"1128 633 LINE",
"1151 651 OFFCURVE",
"1179 665 OFFCURVE",
"1208 665 CURVE SMOOTH",
"1274 665 OFFCURVE",
"1313 616 OFFCURVE",
"1313 541 CURVE SMOOTH",
"1313 458 OFFCURVE",
"1258 411 OFFCURVE",
"1199 411 CURVE SMOOTH",
"1175 411 OFFCURVE",
"1153 420 OFFCURVE",
"1132 437 CURVE",
"1134 397 LINE",
"1134 324 LINE",
"1064 324 LINE",
"1064 658 LINE"
);
},
{
closed = 1;
nodes = (
"1241 587 OFFCURVE",
"1224 612 OFFCURVE",
"1187 612 CURVE SMOOTH",
"1169 612 OFFCURVE",
"1153 604 OFFCURVE",
"1134 587 CURVE",
"1134 481 LINE",
"1151 468 OFFCURVE",
"1169 463 OFFCURVE",
"1183 463 CURVE SMOOTH",
"1216 463 OFFCURVE",
"1241 488 OFFCURVE",
"1241 541 CURVE SMOOTH"
);
},
{
closed = 1;
nodes = (
"1370 484 LINE",
"1394 468 OFFCURVE",
"1417 458 OFFCURVE",
"1442 458 CURVE SMOOTH",
"1469 458 OFFCURVE",
"1481 468 OFFCURVE",
"1481 484 CURVE SMOOTH",
"1481 502 OFFCURVE",
"1453 510 OFFCURVE",
"1425 520 CURVE SMOOTH",
"1391 531 OFFCURVE",
"1352 550 OFFCURVE",
"1352 590 CURVE SMOOTH",
"1352 634 OFFCURVE",
"1391 665 OFFCURVE",
"1451 665 CURVE SMOOTH",
"1491 665 OFFCURVE",
"1521 650 OFFCURVE",
"1543 635 CURVE",
"1511 596 LINE",
"1492 608 OFFCURVE",
"1474 617 OFFCURVE",
"1453 617 CURVE SMOOTH",
"1429 617 OFFCURVE",
"1418 607 OFFCURVE",
"1418 594 CURVE SMOOTH",
"1418 576 OFFCURVE",
"1444 569 OFFCURVE",
"1473 560 CURVE SMOOTH",
"1508 548 OFFCURVE",
"1547 532 OFFCURVE",
"1547 487 CURVE SMOOTH",
"1547 445 OFFCURVE",
"1511 411 OFFCURVE",
"1440 411 CURVE SMOOTH",
"1404 411 OFFCURVE",
"1365 425 OFFCURVE",
"1338 445 CURVE"
);
},
{
closed = 1;
nodes = (
"571 356 LINE",
"571 90 LINE",
"715 90 LINE",
"715 37 LINE",
"500 37 LINE",
"500 356 LINE"
);
},
{
closed = 1;
nodes = (
"744 238 OFFCURVE",
"806 285 OFFCURVE",
"874 285 CURVE SMOOTH",
"941 285 OFFCURVE",
"1003 238 OFFCURVE",
"1003 157 CURVE SMOOTH",
"1003 77 OFFCURVE",
"941 31 OFFCURVE",
"874 31 CURVE SMOOTH",
"806 31 OFFCURVE",
"744 77 OFFCURVE",
"744 157 CURVE SMOOTH"
);
},
{
closed = 1;
nodes = (
"931 203 OFFCURVE",
"910 233 OFFCURVE",
"874 233 CURVE SMOOTH",
"837 233 OFFCURVE",
"816 203 OFFCURVE",
"816 157 CURVE SMOOTH",
"816 112 OFFCURVE",
"837 82 OFFCURVE",
"874 82 CURVE SMOOTH",
"910 82 OFFCURVE",
"931 112 OFFCURVE",
"931 157 CURVE SMOOTH"
);
},
{
closed = 1;
nodes = (
"1040 238 OFFCURVE",
"1104 285 OFFCURVE",
"1177 285 CURVE SMOOTH",
"1211 285 OFFCURVE",
"1236 273 OFFCURVE",
"1256 258 CURVE",
"1222 217 LINE",
"1209 227 OFFCURVE",
"1196 233 OFFCURVE",
"1181 233 CURVE SMOOTH",
"1140 233 OFFCURVE",
"1112 203 OFFCURVE",
"1112 157 CURVE SMOOTH",
"1112 112 OFFCURVE",
"1140 82 OFFCURVE",
"1179 82 CURVE SMOOTH",
"1198 82 OFFCURVE",
"1216 91 OFFCURVE",
"1231 102 CURVE",
"1259 60 LINE",
"1234 40 OFFCURVE",
"1201 31 OFFCURVE",
"1171 31 CURVE SMOOTH",
"1097 31 OFFCURVE",
"1040 77 OFFCURVE",
"1040 157 CURVE SMOOTH"
);
},
{
closed = 1;
nodes = (
"1369 381 LINE",
"1369 174 LINE",
"1371 174 LINE",
"1464 278 LINE",
"1541 278 LINE",
"1448 180 LINE",
"1549 37 LINE",
"1473 37 LINE",
"1408 137 LINE",
"1369 97 LINE",
"1369 37 LINE",
"1300 37 LINE",
"1300 381 LINE"
);
}
);
width = 2000;
}
);
},
{
glyphname = C_m_d;
lastChange = "2014-10-25 12:48:13 +0000";
layers = (
{
layerId = "F84F5EB2-94F9-4556-9B6C-C2D485160B3A";
name = Regular;
paths = (
{
closed = 1;
nodes = (
"200 -75 LINE SMOOTH",
"115 -75 OFFCURVE",
"45 -5 OFFCURVE",
"45 80 CURVE SMOOTH",
"45 680 LINE SMOOTH",
"45 766 OFFCURVE",
"115 835 OFFCURVE",
"200 835 CURVE SMOOTH",
"1800 835 LINE SMOOTH",
"1885 835 OFFCURVE",
"1955 766 OFFCURVE",
"1955 680 CURVE SMOOTH",
"1955 80 LINE SMOOTH",
"1955 -5 OFFCURVE",
"1885 -75 OFFCURVE",
"1800 -75 CURVE SMOOTH"
);
},
{
closed = 1;
nodes = (
"131 805 OFFCURVE",
"75 749 OFFCURVE",
"75 680 CURVE SMOOTH",
"75 80 LINE SMOOTH",
"75 11 OFFCURVE",
"131 -45 OFFCURVE",
"200 -45 CURVE SMOOTH",
"1800 -45 LINE SMOOTH",
"1869 -45 OFFCURVE",
"1925 11 OFFCURVE",
"1925 80 CURVE SMOOTH",
"1925 680 LINE SMOOTH",
"1925 749 OFFCURVE",
"1869 805 OFFCURVE",
"1800 805 CURVE SMOOTH",
"200 805 LINE SMOOTH"
);
},
{
closed = 1;
nodes = (
"745 63 OFFCURVE",
"689 120 OFFCURVE",
"689 189 CURVE SMOOTH",
"689 258 OFFCURVE",
"745 314 OFFCURVE",
"814 314 CURVE SMOOTH",
"880 314 LINE",
"880 433 LINE",
"814 433 LINE SMOOTH",
"745 433 OFFCURVE",
"689 489 OFFCURVE",
"689 558 CURVE SMOOTH",
"689 627 OFFCURVE",
"745 683 OFFCURVE",
"814 683 CURVE SMOOTH",
"883 683 OFFCURVE",
"940 627 OFFCURVE",
"940 558 CURVE SMOOTH",
"940 493 LINE",
"1060 493 LINE",
"1060 558 LINE SMOOTH",
"1060 627 OFFCURVE",
"1117 683 OFFCURVE",
"1186 683 CURVE SMOOTH",
"1255 683 OFFCURVE",
"1311 627 OFFCURVE",
"1311 558 CURVE SMOOTH",
"1311 489 OFFCURVE",
"1255 433 OFFCURVE",
"1186 433 CURVE SMOOTH",
"1120 433 LINE",
"1120 314 LINE",
"1186 314 LINE SMOOTH",
"1255 314 OFFCURVE",
"1311 258 OFFCURVE",
"1311 189 CURVE SMOOTH",
"1311 120 OFFCURVE",
"1255 63 OFFCURVE",
"1186 63 CURVE SMOOTH",
"1117 63 OFFCURVE",
"1060 120 OFFCURVE",
"1060 189 CURVE SMOOTH",
"1060 254 LINE",
"940 254 LINE",
"940 189 LINE SMOOTH",
"940 120 OFFCURVE",
"883 63 OFFCURVE",
"814 63 CURVE SMOOTH"
);
},
{
closed = 1;
nodes = (
"814 254 LINE SMOOTH",
"778 254 OFFCURVE",
"749 225 OFFCURVE",
"749 189 CURVE SMOOTH",
"749 153 OFFCURVE",
"778 123 OFFCURVE",
"814 123 CURVE SMOOTH",
"850 123 OFFCURVE",
"880 153 OFFCURVE",
"880 189 CURVE SMOOTH",
"880 254 LINE"
);
},
{
closed = 1;
nodes = (
"1120 189 LINE SMOOTH",
"1120 153 OFFCURVE",
"1150 123 OFFCURVE",
"1186 123 CURVE SMOOTH",
"1222 123 OFFCURVE",
"1251 153 OFFCURVE",
"1251 189 CURVE SMOOTH",
"1251 225 OFFCURVE",
"1222 254 OFFCURVE",
"1186 254 CURVE SMOOTH",
"1120 254 LINE"
);
},
{
closed = 1;
nodes = (
"940 314 LINE",
"1060 314 LINE",
"1060 433 LINE",
"940 433 LINE"
);
},
{
closed = 1;
nodes = (
"778 623 OFFCURVE",
"749 594 OFFCURVE",
"749 558 CURVE SMOOTH",
"749 522 OFFCURVE",
"778 493 OFFCURVE",
"814 493 CURVE SMOOTH",
"880 493 LINE",
"880 558 LINE SMOOTH",
"880 594 OFFCURVE",
"850 623 OFFCURVE",
"814 623 CURVE SMOOTH"
);
},
{
closed = 1;
nodes = (
"1150 623 OFFCURVE",
"1120 594 OFFCURVE",
"1120 558 CURVE SMOOTH",
"1120 493 LINE",
"1186 493 LINE SMOOTH",
"1222 493 OFFCURVE",
"1251 522 OFFCURVE",
"1251 558 CURVE SMOOTH",
"1251 594 OFFCURVE",
"1222 623 OFFCURVE",
"1186 623 CURVE SMOOTH"
);
}
);
width = 2000;
}
);
},
{
glyphname = C_o_m_m_a_n_d;
lastChange = "2014-10-31 13:17:45 +0000";
layers = (
{
layerId = "F84F5EB2-94F9-4556-9B6C-C2D485160B3A";
name = Regular;
paths = (
{
closed = 1;
nodes = (
"200 -75 LINE SMOOTH",
"115 -75 OFFCURVE",
"45 -5 OFFCURVE",
"45 80 CURVE SMOOTH",
"45 680 LINE SMOOTH",
"45 766 OFFCURVE",
"115 835 OFFCURVE",
"200 835 CURVE SMOOTH",
"3800 835 LINE SMOOTH",
"3885 835 OFFCURVE",
"3955 766 OFFCURVE",
"3955 680 CURVE SMOOTH",
"3955 80 LINE SMOOTH",
"3955 -5 OFFCURVE",
"3885 -75 OFFCURVE",
"3800 -75 CURVE SMOOTH"
);
},
{
closed = 1;
nodes = (
"131 805 OFFCURVE",
"75 749 OFFCURVE",
"75 680 CURVE SMOOTH",
"75 80 LINE SMOOTH",
"75 11 OFFCURVE",
"131 -45 OFFCURVE",
"200 -45 CURVE SMOOTH",
"3800 -45 LINE SMOOTH",
"3869 -45 OFFCURVE",
"3925 11 OFFCURVE",
"3925 80 CURVE SMOOTH",
"3925 680 LINE SMOOTH",
"3925 749 OFFCURVE",
"3869 805 OFFCURVE",
"3800 805 CURVE SMOOTH",
"200 805 LINE SMOOTH"
);
},
{
closed = 1;
nodes = (
"389 527 OFFCURVE",
"488 625 OFFCURVE",
"615 625 CURVE SMOOTH",
"677 625 OFFCURVE",
"726 595 OFFCURVE",
"757 562 CURVE",
"714 512 LINE",
"688 538 OFFCURVE",
"657 557 OFFCURVE",
"616 557 CURVE SMOOTH",
"530 557 OFFCURVE",
"470 485 OFFCURVE",
"470 367 CURVE SMOOTH",
"470 248 OFFCURVE",
"525 175 OFFCURVE",
"614 175 CURVE SMOOTH",
"659 175 OFFCURVE",
"695 196 OFFCURVE",
"725 228 CURVE",
"767 179 LINE",
"727 132 OFFCURVE",
"676 107 OFFCURVE",
"611 107 CURVE SMOOTH",
"485 107 OFFCURVE",
"389 200 OFFCURVE",
"389 364 CURVE SMOOTH"
);
},
{
closed = 1;
nodes = (
"822 427 OFFCURVE",
"906 499 OFFCURVE",
"998 499 CURVE SMOOTH",
"1091 499 OFFCURVE",
"1174 427 OFFCURVE",
"1174 302 CURVE SMOOTH",
"1174 178 OFFCURVE",
"1091 107 OFFCURVE",
"998 107 CURVE SMOOTH",
"906 107 OFFCURVE",
"822 178 OFFCURVE",
"822 302 CURVE SMOOTH"
);
},
{
closed = 1;
nodes = (
"1094 381 OFFCURVE",
"1057 434 OFFCURVE",
"998 434 CURVE SMOOTH",
"940 434 OFFCURVE",
"903 381 OFFCURVE",
"903 302 CURVE SMOOTH",
"903 223 OFFCURVE",
"940 170 OFFCURVE",
"998 170 CURVE SMOOTH",
"1057 170 OFFCURVE",
"1094 223 OFFCURVE",
"1094 302 CURVE SMOOTH"
);
},
{
closed = 1;
nodes = (
"1316 489 LINE",
"1322 437 LINE",
"1324 437 LINE",
"1356 471 OFFCURVE",
"1394 499 OFFCURVE",
"1440 499 CURVE SMOOTH",
"1496 499 OFFCURVE",
"1527 473 OFFCURVE",
"1543 430 CURVE",
"1580 470 OFFCURVE",
"1618 499 OFFCURVE",
"1665 499 CURVE SMOOTH",
"1743 499 OFFCURVE",
"1780 446 OFFCURVE",
"1780 351 CURVE SMOOTH",
"1780 115 LINE",
"1702 115 LINE",
"1702 341 LINE SMOOTH",
"1702 406 OFFCURVE",
"1681 432 OFFCURVE",
"1639 432 CURVE SMOOTH",
"1613 432 OFFCURVE",
"1586 415 OFFCURVE",
"1555 381 CURVE",
"1555 115 LINE",
"1477 115 LINE",
"1477 341 LINE SMOOTH",
"1477 406 OFFCURVE",
"1457 432 OFFCURVE",
"1414 432 CURVE SMOOTH",
"1389 432 OFFCURVE",
"1361 415 OFFCURVE",
"1330 381 CURVE",
"1330 115 LINE",
"1252 115 LINE",
"1252 489 LINE"
);
},
{
closed = 1;
nodes = (
"1943 489 LINE",
"1949 437 LINE",
"1951 437 LINE",
"1983 471 OFFCURVE",
"2021 499 OFFCURVE",
"2067 499 CURVE SMOOTH",
"2123 499 OFFCURVE",
"2154 473 OFFCURVE",
"2170 430 CURVE",
"2207 470 OFFCURVE",
"2245 499 OFFCURVE",
"2292 499 CURVE SMOOTH",
"2370 499 OFFCURVE",
"2407 446 OFFCURVE",
"2407 351 CURVE SMOOTH",
"2407 115 LINE",
"2329 115 LINE",
"2329 341 LINE SMOOTH",
"2329 406 OFFCURVE",
"2308 432 OFFCURVE",
"2266 432 CURVE SMOOTH",
"2240 432 OFFCURVE",
"2213 415 OFFCURVE",
"2182 381 CURVE",
"2182 115 LINE",
"2104 115 LINE",
"2104 341 LINE SMOOTH",
"2104 406 OFFCURVE",
"2084 432 OFFCURVE",
"2041 432 CURVE SMOOTH",
"2016 432 OFFCURVE",
"1988 415 OFFCURVE",
"1957 381 CURVE",
"1957 115 LINE",
"1879 115 LINE",
"1879 489 LINE"
);
},
{
closed = 1;
nodes = (
"2485 295 OFFCURVE",
"2553 336 OFFCURVE",
"2708 353 CURVE",
"2708 397 OFFCURVE",
"2692 435 OFFCURVE",
"2637 435 CURVE SMOOTH",
"2597 435 OFFCURVE",
"2561 417 OFFCURVE",
"2529 397 CURVE",
"2499 450 LINE",
"2538 474 OFFCURVE",
"2591 499 OFFCURVE",
"2650 499 CURVE SMOOTH",
"2744 499 OFFCURVE",
"2786 440 OFFCURVE",
"2786 340 CURVE SMOOTH",
"2786 115 LINE",
"2722 115 LINE",
"2716 158 LINE",
"2714 158 LINE",
"2680 129 OFFCURVE",
"2640 107 OFFCURVE",
"2595 107 CURVE SMOOTH",
"2530 107 OFFCURVE",
"2485 149 OFFCURVE",
"2485 215 CURVE SMOOTH"
);
},
{
closed = 1;
nodes = (
"2708 304 LINE",
"2597 290 OFFCURVE",
"2560 262 OFFCURVE",
"2560 220 CURVE SMOOTH",
"2560 183 OFFCURVE",
"2585 168 OFFCURVE",
"2618 168 CURVE SMOOTH",
"2651 168 OFFCURVE",
"2678 184 OFFCURVE",
"2708 212 CURVE"
);
},
{
closed = 1;
nodes = (
"2941 489 LINE",
"2947 438 LINE",
"2949 438 LINE",
"2984 471 OFFCURVE",
"3022 499 OFFCURVE",
"3073 499 CURVE SMOOTH",
"3152 499 OFFCURVE",
"3188 446 OFFCURVE",
"3188 351 CURVE SMOOTH",
"3188 115 LINE",
"3109 115 LINE",
"3109 341 LINE SMOOTH",
"3109 406 OFFCURVE",
"3090 432 OFFCURVE",
"3046 432 CURVE SMOOTH",
"3011 432 OFFCURVE",
"2988 414 OFFCURVE",
"2954 381 CURVE",
"2954 115 LINE",
"2877 115 LINE",
"2877 489 LINE"
);
},
{
closed = 1;
nodes = (
"3256 423 OFFCURVE",
"3332 499 OFFCURVE",
"3416 499 CURVE SMOOTH",
"3459 499 OFFCURVE",
"3486 483 OFFCURVE",
"3517 457 CURVE",
"3513 519 LINE",
"3513 657 LINE",
"3592 657 LINE",
"3592 115 LINE",
"3528 115 LINE",
"3521 158 LINE",
"3519 158 LINE",
"3491 129 OFFCURVE",
"3452 107 OFFCURVE",
"3410 107 CURVE SMOOTH",
"3316 107 OFFCURVE",
"3256 178 OFFCURVE",
"3256 302 CURVE SMOOTH"
);
},
{
closed = 1;
nodes = (
"3513 400 LINE",
"3485 425 OFFCURVE",
"3459 434 OFFCURVE",
"3431 434 CURVE SMOOTH",
"3379 434 OFFCURVE",
"3337 384 OFFCURVE",
"3337 303 CURVE SMOOTH",
"3337 218 OFFCURVE",
"3370 171 OFFCURVE",
"3428 171 CURVE SMOOTH",
"3460 171 OFFCURVE",
"3486 185 OFFCURVE",
"3513 217 CURVE"
);
}
);
width = 4000;
}
);
},
{
glyphname = C_o_n_t_r_o_l;
lastChange = "2014-10-27 06:38:28 +0000";
layers = (
{
layerId = "F84F5EB2-94F9-4556-9B6C-C2D485160B3A";
name = Regular;
paths = (
{
closed = 1;
nodes = (
"200 -75 LINE SMOOTH",
"115 -75 OFFCURVE",
"45 -5 OFFCURVE",
"45 80 CURVE SMOOTH",
"45 680 LINE SMOOTH",
"45 765 OFFCURVE",
"115 835 OFFCURVE",
"200 835 CURVE SMOOTH",
"2800 835 LINE SMOOTH",
"2885 835 OFFCURVE",
"2955 765 OFFCURVE",
"2955 680 CURVE SMOOTH",
"2955 80 LINE SMOOTH",
"2955 -5 OFFCURVE",
"2885 -75 OFFCURVE",
"2800 -75 CURVE SMOOTH"
);
},
{
closed = 1;
nodes = (
"131 805 OFFCURVE",
"75 749 OFFCURVE",
"75 680 CURVE SMOOTH",
"75 80 LINE SMOOTH",
"75 11 OFFCURVE",
"131 -45 OFFCURVE",
"200 -45 CURVE SMOOTH",
"2800 -45 LINE SMOOTH",
"2869 -45 OFFCURVE",
"2925 11 OFFCURVE",
"2925 80 CURVE SMOOTH",
"2925 680 LINE SMOOTH",
"2925 749 OFFCURVE",
"2869 805 OFFCURVE",
"2800 805 CURVE SMOOTH",
"200 805 LINE SMOOTH"
);
},
{
closed = 1;
nodes = (
"344 523 OFFCURVE",
"443 621 OFFCURVE",
"569 621 CURVE SMOOTH",
"632 621 OFFCURVE",
"681 591 OFFCURVE",
"711 558 CURVE",
"669 508 LINE",
"643 534 OFFCURVE",
"612 553 OFFCURVE",
"571 553 CURVE SMOOTH",
"484 553 OFFCURVE",
"425 480 OFFCURVE",
"425 363 CURVE SMOOTH",
"425 244 OFFCURVE",
"480 171 OFFCURVE",
"569 171 CURVE SMOOTH",
"614 171 OFFCURVE",
"650 191 OFFCURVE",
"680 224 CURVE",
"722 174 LINE",
"682 128 OFFCURVE",
"631 102 OFFCURVE",
"566 102 CURVE SMOOTH",
"440 102 OFFCURVE",
"344 196 OFFCURVE",
"344 360 CURVE SMOOTH"
);
},
{
closed = 1;
nodes = (
"756 423 OFFCURVE",
"840 495 OFFCURVE",
"932 495 CURVE SMOOTH",
"1025 495 OFFCURVE",
"1109 423 OFFCURVE",
"1109 298 CURVE SMOOTH",
"1109 174 OFFCURVE",
"1025 102 OFFCURVE",
"932 102 CURVE SMOOTH",
"840 102 OFFCURVE",
"756 174 OFFCURVE",
"756 298 CURVE SMOOTH"
);
},
{
closed = 1;
nodes = (
"1028 377 OFFCURVE",
"992 430 OFFCURVE",
"932 430 CURVE SMOOTH",
"874 430 OFFCURVE",
"837 377 OFFCURVE",
"837 298 CURVE SMOOTH",
"837 219 OFFCURVE",
"874 166 OFFCURVE",
"932 166 CURVE SMOOTH",
"992 166 OFFCURVE",
"1028 219 OFFCURVE",
"1028 298 CURVE SMOOTH"
);
},
{
closed = 1;
nodes = (
"1237 485 LINE",
"1243 434 LINE",
"1245 434 LINE",
"1280 467 OFFCURVE",
"1318 495 OFFCURVE",
"1369 495 CURVE SMOOTH",
"1449 495 OFFCURVE",
"1484 442 OFFCURVE",
"1484 347 CURVE SMOOTH",
"1484 111 LINE",
"1406 111 LINE",
"1406 337 LINE SMOOTH",
"1406 402 OFFCURVE",
"1387 427 OFFCURVE",
"1343 427 CURVE SMOOTH",
"1308 427 OFFCURVE",
"1284 410 OFFCURVE",
"1251 376 CURVE",
"1251 111 LINE",
"1173 111 LINE",
"1173 485 LINE"
);
},
{
closed = 1;
nodes = (
"1596 423 LINE",
"1542 423 LINE",
"1542 481 LINE",
"1600 485 LINE",
"1608 589 LINE",
"1674 589 LINE",
"1674 485 LINE",
"1772 485 LINE",
"1772 423 LINE",
"1674 423 LINE",
"1674 233 LINE SMOOTH",
"1674 188 OFFCURVE",
"1690 165 OFFCURVE",
"1729 165 CURVE SMOOTH",
"1742 165 OFFCURVE",
"1758 169 OFFCURVE",
"1769 174 CURVE",
"1783 116 LINE",
"1762 109 OFFCURVE",
"1737 102 OFFCURVE",
"1710 102 CURVE SMOOTH",
"1625 102 OFFCURVE",
"1596 155 OFFCURVE",
"1596 234 CURVE SMOOTH"
);
},
{
closed = 1;
nodes = (
"1924 485 LINE",
"1930 418 LINE",
"1932 418 LINE",
"1959 466 OFFCURVE",
"1998 495 OFFCURVE",
"2038 495 CURVE SMOOTH",
"2057 495 OFFCURVE",
"2069 492 OFFCURVE",
"2080 487 CURVE",
"2066 419 LINE",
"2053 423 OFFCURVE",
"2044 425 OFFCURVE",
"2029 425 CURVE SMOOTH",
"1998 425 OFFCURVE",
"1961 404 OFFCURVE",
"1938 344 CURVE",
"1938 111 LINE",
"1860 111 LINE",
"1860 485 LINE"
);
},
{
closed = 1;
nodes = (
"2091 423 OFFCURVE",
"2175 495 OFFCURVE",
"2267 495 CURVE SMOOTH",
"2360 495 OFFCURVE",
"2443 423 OFFCURVE",
"2443 298 CURVE SMOOTH",
"2443 174 OFFCURVE",
"2360 102 OFFCURVE",
"2267 102 CURVE SMOOTH",
"2175 102 OFFCURVE",
"2091 174 OFFCURVE",
"2091 298 CURVE SMOOTH"
);
},
{
closed = 1;
nodes = (
"2363 377 OFFCURVE",
"2326 430 OFFCURVE",
"2267 430 CURVE SMOOTH",
"2209 430 OFFCURVE",
"2172 377 OFFCURVE",
"2172 298 CURVE SMOOTH",
"2172 219 OFFCURVE",
"2209 166 OFFCURVE",
"2267 166 CURVE SMOOTH",
"2326 166 OFFCURVE",
"2363 219 OFFCURVE",
"2363 298 CURVE SMOOTH"
);
},
{
closed = 1;
nodes = (
"2522 653 LINE",
"2599 653 LINE",
"2599 195 LINE SMOOTH",
"2599 174 OFFCURVE",
"2609 166 OFFCURVE",
"2618 166 CURVE SMOOTH",
"2622 166 OFFCURVE",
"2624 166 OFFCURVE",
"2631 168 CURVE",
"2641 109 LINE",
"2632 105 OFFCURVE",
"2618 102 OFFCURVE",
"2599 102 CURVE SMOOTH",
"2543 102 OFFCURVE",
"2522 138 OFFCURVE",
"2522 199 CURVE SMOOTH"
);
}
);
width = 3000;
}
);
},
{
glyphname = C_t_r_l;
lastChange = "2014-10-27 06:41:31 +0000";
layers = (
{
layerId = "F84F5EB2-94F9-4556-9B6C-C2D485160B3A";
name = Regular;
paths = (
{
closed = 1;
nodes = (
"200 -75 LINE SMOOTH",
"115 -75 OFFCURVE",
"45 -5 OFFCURVE",
"45 80 CURVE SMOOTH",
"45 680 LINE SMOOTH",
"45 765 OFFCURVE",
"115 835 OFFCURVE",
"200 835 CURVE SMOOTH",
"1800 835 LINE SMOOTH",
"1885 835 OFFCURVE",
"1955 765 OFFCURVE",
"1955 680 CURVE SMOOTH",
"1955 80 LINE SMOOTH",
"1955 -5 OFFCURVE",
"1885 -75 OFFCURVE",
"1800 -75 CURVE SMOOTH"
);
},
{
closed = 1;
nodes = (
"131 805 OFFCURVE",
"75 749 OFFCURVE",
"75 680 CURVE SMOOTH",
"75 80 LINE SMOOTH",
"75 11 OFFCURVE",
"131 -45 OFFCURVE",
"200 -45 CURVE SMOOTH",
"1800 -45 LINE SMOOTH",
"1869 -45 OFFCURVE",
"1925 11 OFFCURVE",
"1925 80 CURVE SMOOTH",
"1925 680 LINE SMOOTH",
"1925 749 OFFCURVE",
"1869 805 OFFCURVE",
"1800 805 CURVE SMOOTH",
"200 805 LINE SMOOTH"
);
},
{
closed = 1;
nodes = (
"437 527 OFFCURVE",
"537 625 OFFCURVE",
"663 625 CURVE SMOOTH",
"726 625 OFFCURVE",
"775 595 OFFCURVE",
"805 562 CURVE",
"762 512 LINE",
"736 538 OFFCURVE",
"705 557 OFFCURVE",
"664 557 CURVE SMOOTH",
"578 557 OFFCURVE",
"518 484 OFFCURVE",
"518 367 CURVE SMOOTH",
"518 248 OFFCURVE",
"574 175 OFFCURVE",
"662 175 CURVE SMOOTH",
"708 175 OFFCURVE",
"743 196 OFFCURVE",
"773 228 CURVE",
"815 178 LINE",
"775 132 OFFCURVE",
"724 106 OFFCURVE",
"660 106 CURVE SMOOTH",
"534 106 OFFCURVE",
"437 200 OFFCURVE",
"437 364 CURVE SMOOTH"
);
},
{
closed = 1;
nodes = (
"909 427 LINE",
"855 427 LINE",
"855 485 LINE",
"913 489 LINE",
"921 593 LINE",
"987 593 LINE",
"987 489 LINE",
"1085 489 LINE",
"1085 427 LINE",
"987 427 LINE",
"987 237 LINE SMOOTH",
"987 192 OFFCURVE",
"1003 169 OFFCURVE",
"1042 169 CURVE SMOOTH",
"1055 169 OFFCURVE",
"1071 173 OFFCURVE",
"1082 178 CURVE",
"1096 120 LINE",
"1075 113 OFFCURVE",
"1050 106 OFFCURVE",
"1023 106 CURVE SMOOTH",
"938 106 OFFCURVE",
"909 159 OFFCURVE",
"909 238 CURVE SMOOTH"
);
},
{
closed = 1;
nodes = (
"1237 489 LINE",
"1243 422 LINE",
"1245 422 LINE",
"1272 470 OFFCURVE",
"1311 499 OFFCURVE",
"1351 499 CURVE SMOOTH",
"1370 499 OFFCURVE",
"1382 496 OFFCURVE",
"1393 491 CURVE",
"1379 423 LINE",
"1366 427 OFFCURVE",
"1357 429 OFFCURVE",
"1342 429 CURVE SMOOTH",
"1311 429 OFFCURVE",
"1274 408 OFFCURVE",
"1251 348 CURVE",
"1251 115 LINE",
"1173 115 LINE",
"1173 489 LINE"
);
},
{
closed = 1;
nodes = (
"1458 657 LINE",
"1535 657 LINE",
"1535 199 LINE SMOOTH",
"1535 178 OFFCURVE",
"1545 170 OFFCURVE",
"1555 170 CURVE SMOOTH",
"1558 170 OFFCURVE",
"1561 170 OFFCURVE",
"1567 172 CURVE",
"1578 113 LINE",
"1568 109 OFFCURVE",
"1555 106 OFFCURVE",
"1535 106 CURVE SMOOTH",
"1479 106 OFFCURVE",
"1458 142 OFFCURVE",
"1458 203 CURVE SMOOTH"
);
}
);
width = 2000;
}
);
},
{
glyphname = D_e_l;
lastChange = "2014-10-27 06:43:54 +0000";
layers = (
{
layerId = "F84F5EB2-94F9-4556-9B6C-C2D485160B3A";
name = Regular;
paths = (
{
closed = 1;
nodes = (
"200 -75 LINE SMOOTH",
"115 -75 OFFCURVE",
"45 -5 OFFCURVE",
"45 80 CURVE SMOOTH",
"45 680 LINE SMOOTH",
"45 766 OFFCURVE",
"115 835 OFFCURVE",
"200 835 CURVE SMOOTH",
"1800 835 LINE SMOOTH",
"1885 835 OFFCURVE",
"1955 766 OFFCURVE",
"1955 680 CURVE SMOOTH",
"1955 80 LINE SMOOTH",
"1955 -5 OFFCURVE",
"1885 -75 OFFCURVE",
"1800 -75 CURVE SMOOTH"
);
},
{
closed = 1;
nodes = (
"131 805 OFFCURVE",
"75 749 OFFCURVE",
"75 680 CURVE SMOOTH",
"75 80 LINE SMOOTH",
"75 11 OFFCURVE",
"131 -45 OFFCURVE",
"200 -45 CURVE SMOOTH",
"1800 -45 LINE SMOOTH",
"1869 -45 OFFCURVE",
"1925 11 OFFCURVE",
"1925 80 CURVE SMOOTH",
"1925 680 LINE SMOOTH",
"1925 749 OFFCURVE",
"1869 805 OFFCURVE",
"1800 805 CURVE SMOOTH",
"200 805 LINE SMOOTH"
);
},
{
closed = 1;
nodes = (
"665 616 LINE SMOOTH",
"818 616 OFFCURVE",
"906 531 OFFCURVE",
"906 368 CURVE SMOOTH",
"906 205 OFFCURVE",
"818 115 OFFCURVE",
"669 115 CURVE SMOOTH",
"535 115 LINE",
"535 616 LINE"
);
},
{
closed = 1;
nodes = (
"767 180 OFFCURVE",
"825 243 OFFCURVE",
"825 368 CURVE SMOOTH",
"825 493 OFFCURVE",
"767 552 OFFCURVE",
"659 552 CURVE SMOOTH",
"614 552 LINE",
"614 180 LINE",
"659 180 LINE SMOOTH"
);
},
{
closed = 1;
nodes = (
"977 423 OFFCURVE",
"1060 499 OFFCURVE",
"1148 499 CURVE SMOOTH",
"1247 499 OFFCURVE",
"1300 427 OFFCURVE",
"1300 321 CURVE SMOOTH",
"1300 306 OFFCURVE",
"1299 291 OFFCURVE",
"1296 282 CURVE",
"1054 282 LINE",
"1060 210 OFFCURVE",
"1105 168 OFFCURVE",
"1169 168 CURVE SMOOTH",
"1203 168 OFFCURVE",
"1231 178 OFFCURVE",
"1258 196 CURVE",
"1286 146 LINE",
"1251 123 OFFCURVE",
"1208 106 OFFCURVE",
"1159 106 CURVE SMOOTH",
"1058 106 OFFCURVE",
"977 179 OFFCURVE",
"977 302 CURVE SMOOTH"
);
},
{
closed = 1;
nodes = (
"1233 400 OFFCURVE",
"1203 438 OFFCURVE",
"1149 438 CURVE SMOOTH",
"1102 438 OFFCURVE",
"1061 402 OFFCURVE",
"1053 336 CURVE",
"1233 336 LINE"
);
},
{
closed = 1;
nodes = (
"1388 657 LINE",
"1465 657 LINE",
"1465 199 LINE SMOOTH",
"1465 178 OFFCURVE",
"1475 170 OFFCURVE",
"1484 170 CURVE SMOOTH",
"1488 170 OFFCURVE",
"1490 170 OFFCURVE",
"1497 172 CURVE",
"1507 113 LINE",
"1498 109 OFFCURVE",
"1484 106 OFFCURVE",
"1465 106 CURVE SMOOTH",
"1409 106 OFFCURVE",
"1388 142 OFFCURVE",
"1388 203 CURVE SMOOTH"
);
}
);
width = 2000;
}
);
},
{
glyphname = D_e_l_e_t_e;
lastChange = "2014-10-27 06:42:47 +0000";
layers = (
{
layerId = "F84F5EB2-94F9-4556-9B6C-C2D485160B3A";
name = Regular;
paths = (
{
closed = 1;
nodes = (
"200 -75 LINE SMOOTH",
"115 -75 OFFCURVE",
"45 -5 OFFCURVE",
"45 80 CURVE SMOOTH",
"45 680 LINE SMOOTH",
"45 765 OFFCURVE",
"115 835 OFFCURVE",
"200 835 CURVE SMOOTH",
"2800 835 LINE SMOOTH",
"2885 835 OFFCURVE",
"2955 765 OFFCURVE",
"2955 680 CURVE SMOOTH",
"2955 80 LINE SMOOTH",
"2955 -5 OFFCURVE",
"2885 -75 OFFCURVE",
"2800 -75 CURVE SMOOTH"
);
},
{
closed = 1;
nodes = (
"131 805 OFFCURVE",
"75 749 OFFCURVE",
"75 680 CURVE SMOOTH",
"75 80 LINE SMOOTH",
"75 11 OFFCURVE",
"131 -45 OFFCURVE",
"200 -45 CURVE SMOOTH",
"2800 -45 LINE SMOOTH",
"2869 -45 OFFCURVE",
"2925 11 OFFCURVE",
"2925 80 CURVE SMOOTH",
"2925 680 LINE SMOOTH",
"2925 749 OFFCURVE",
"2869 805 OFFCURVE",
"2800 805 CURVE SMOOTH",
"200 805 LINE SMOOTH"
);
},
{
closed = 1;
nodes = (
"631 616 LINE SMOOTH",
"785 616 OFFCURVE",
"872 531 OFFCURVE",
"872 368 CURVE SMOOTH",
"872 205 OFFCURVE",
"785 115 OFFCURVE",
"635 115 CURVE SMOOTH",
"501 115 LINE",
"501 616 LINE"
);
},
{
closed = 1;
nodes = (
"733 180 OFFCURVE",
"791 243 OFFCURVE",
"791 368 CURVE SMOOTH",
"791 493 OFFCURVE",
"733 552 OFFCURVE",
"625 552 CURVE SMOOTH",
"580 552 LINE",
"580 180 LINE",
"625 180 LINE SMOOTH"
);
},
{
closed = 1;
nodes = (
"943 423 OFFCURVE",
"1026 499 OFFCURVE",
"1114 499 CURVE SMOOTH",
"1213 499 OFFCURVE",
"1266 427 OFFCURVE",
"1266 321 CURVE SMOOTH",
"1266 306 OFFCURVE",
"1265 291 OFFCURVE",
"1263 282 CURVE",
"1020 282 LINE",
"1026 210 OFFCURVE",
"1071 168 OFFCURVE",
"1135 168 CURVE SMOOTH",
"1169 168 OFFCURVE",
"1197 178 OFFCURVE",
"1225 196 CURVE",
"1252 146 LINE",
"1217 123 OFFCURVE",
"1174 106 OFFCURVE",
"1125 106 CURVE SMOOTH",
"1024 106 OFFCURVE",
"943 178 OFFCURVE",
"943 302 CURVE SMOOTH"
);
},
{
closed = 1;
nodes = (
"1199 400 OFFCURVE",
"1169 438 OFFCURVE",
"1115 438 CURVE SMOOTH",
"1068 438 OFFCURVE",
"1027 402 OFFCURVE",
"1019 336 CURVE",
"1199 336 LINE"
);
},
{
closed = 1;
nodes = (
"1354 657 LINE",
"1431 657 LINE",
"1431 199 LINE SMOOTH",
"1431 178 OFFCURVE",
"1441 170 OFFCURVE",
"1450 170 CURVE SMOOTH",
"1454 170 OFFCURVE",
"1456 170 OFFCURVE",
"1463 172 CURVE",
"1473 113 LINE",
"1464 109 OFFCURVE",
"1450 106 OFFCURVE",
"1431 106 CURVE SMOOTH",
"1375 106 OFFCURVE",
"1354 142 OFFCURVE",
"1354 203 CURVE SMOOTH"
);
},
{
closed = 1;
nodes = (
"1530 423 OFFCURVE",
"1613 499 OFFCURVE",
"1701 499 CURVE SMOOTH",
"1800 499 OFFCURVE",
"1853 427 OFFCURVE",
"1853 321 CURVE SMOOTH",
"1853 306 OFFCURVE",
"1851 291 OFFCURVE",
"1849 282 CURVE",
"1607 282 LINE",
"1613 210 OFFCURVE",
"1658 168 OFFCURVE",
"1722 168 CURVE SMOOTH",
"1756 168 OFFCURVE",
"1784 178 OFFCURVE",
"1811 196 CURVE",
"1839 146 LINE",
"1804 123 OFFCURVE",
"1761 106 OFFCURVE",
"1712 106 CURVE SMOOTH",
"1611 106 OFFCURVE",
"1530 178 OFFCURVE",
"1530 302 CURVE SMOOTH"
);
},
{
closed = 1;
nodes = (
"1786 400 OFFCURVE",
"1756 438 OFFCURVE",
"1702 438 CURVE SMOOTH",
"1655 438 OFFCURVE",
"1614 402 OFFCURVE",
"1606 336 CURVE",
"1786 336 LINE"
);
},
{
closed = 1;
nodes = (
"1953 427 LINE",
"1898 427 LINE",
"1898 485 LINE",
"1956 489 LINE",
"1965 593 LINE",
"2031 593 LINE",
"2031 489 LINE",
"2128 489 LINE",
"2128 427 LINE",
"2031 427 LINE",
"2031 237 LINE SMOOTH",
"2031 192 OFFCURVE",
"2047 169 OFFCURVE",
"2085 169 CURVE SMOOTH",
"2098 169 OFFCURVE",
"2115 173 OFFCURVE",
"2126 178 CURVE",
"2140 120 LINE",
"2119 113 OFFCURVE",
"2094 106 OFFCURVE",
"2066 106 CURVE SMOOTH",
"1982 106 OFFCURVE",
"1953 159 OFFCURVE",
"1953 238 CURVE SMOOTH"
);
},
{
closed = 1;
nodes = (
"2183 423 OFFCURVE",
"2266 499 OFFCURVE",
"2354 499 CURVE SMOOTH",
"2453 499 OFFCURVE",
"2506 427 OFFCURVE",
"2506 321 CURVE SMOOTH",
"2506 306 OFFCURVE",
"2505 291 OFFCURVE",
"2503 282 CURVE",
"2260 282 LINE",
"2266 210 OFFCURVE",
"2311 168 OFFCURVE",
"2376 168 CURVE SMOOTH",
"2409 168 OFFCURVE",
"2438 178 OFFCURVE",
"2465 196 CURVE",
"2492 146 LINE",
"2457 123 OFFCURVE",
"2415 106 OFFCURVE",
"2366 106 CURVE SMOOTH",
"2264 106 OFFCURVE",
"2183 178 OFFCURVE",
"2183 302 CURVE SMOOTH"
);
},
{
closed = 1;
nodes = (
"2439 400 OFFCURVE",
"2410 438 OFFCURVE",
"2355 438 CURVE SMOOTH",
"2308 438 OFFCURVE",
"2267 402 OFFCURVE",
"2259 336 CURVE",
"2439 336 LINE"
);
}
);
width = 3000;
}
);
},
{
glyphname = E_J_E_C_T;
lastChange = "2014-10-26 09:34:45 +0000";
layers = (
{
layerId = "F84F5EB2-94F9-4556-9B6C-C2D485160B3A";
name = Regular;
paths = (
{
closed = 1;
nodes = (
"200 -75 LINE SMOOTH",
"115 -75 OFFCURVE",
"45 -5 OFFCURVE",
"45 80 CURVE SMOOTH",
"45 680 LINE SMOOTH",
"45 765 OFFCURVE",
"115 835 OFFCURVE",
"200 835 CURVE SMOOTH",
"1800 835 LINE SMOOTH",
"1885 835 OFFCURVE",
"1955 765 OFFCURVE",
"1955 680 CURVE SMOOTH",
"1955 80 LINE SMOOTH",
"1955 -5 OFFCURVE",
"1885 -75 OFFCURVE",
"1800 -75 CURVE SMOOTH"
);
},
{
closed = 1;
nodes = (
"131 805 OFFCURVE",
"75 749 OFFCURVE",
"75 680 CURVE SMOOTH",
"75 80 LINE SMOOTH",
"75 11 OFFCURVE",
"131 -45 OFFCURVE",
"200 -45 CURVE SMOOTH",
"1800 -45 LINE SMOOTH",
"1869 -45 OFFCURVE",
"1925 11 OFFCURVE",
"1925 80 CURVE SMOOTH",
"1925 680 LINE SMOOTH",
"1925 749 OFFCURVE",
"1869 805 OFFCURVE",
"1800 805 CURVE SMOOTH",
"200 805 LINE SMOOTH"
);
},
{
closed = 1;
nodes = (
"614 112 LINE",
"614 203 LINE",
"1386 203 LINE",
"1386 112 LINE"
);
},
{
closed = 1;
nodes = (
"1000 685 LINE",
"1386 299 LINE",
"614 299 LINE"
);
}
);
width = 2000;
}
);
},
{
glyphname = E_n_d;
lastChange = "2014-10-26 15:32:31 +0000";
layers = (
{
layerId = "F84F5EB2-94F9-4556-9B6C-C2D485160B3A";
name = Regular;
paths = (
{
closed = 1;
nodes = (
"200 -75 LINE SMOOTH",
"115 -75 OFFCURVE",
"45 -5 OFFCURVE",
"45 80 CURVE SMOOTH",
"45 680 LINE SMOOTH",
"45 765 OFFCURVE",
"115 835 OFFCURVE",
"200 835 CURVE SMOOTH",
"1800 835 LINE SMOOTH",
"1885 835 OFFCURVE",
"1955 765 OFFCURVE",
"1955 680 CURVE SMOOTH",
"1955 80 LINE SMOOTH",
"1955 -5 OFFCURVE",
"1885 -75 OFFCURVE",
"1800 -75 CURVE SMOOTH"
);
},
{
closed = 1;
nodes = (
"131 805 OFFCURVE",
"75 749 OFFCURVE",
"75 680 CURVE SMOOTH",
"75 80 LINE SMOOTH",
"75 11 OFFCURVE",
"131 -45 OFFCURVE",
"200 -45 CURVE SMOOTH",
"1800 -45 LINE SMOOTH",
"1869 -45 OFFCURVE",
"1925 11 OFFCURVE",
"1925 80 CURVE SMOOTH",
"1925 680 LINE SMOOTH",
"1925 749 OFFCURVE",
"1869 805 OFFCURVE",
"1800 805 CURVE SMOOTH",
"200 805 LINE SMOOTH"
);
},
{
closed = 1;
nodes = (
"745 616 LINE",
"745 550 LINE",
"528 550 LINE",
"528 410 LINE",
"712 410 LINE",
"712 344 LINE",
"528 344 LINE",
"528 182 LINE",
"752 182 LINE",
"752 115 LINE",
"449 115 LINE",
"449 616 LINE"
);
},
{
closed = 1;
nodes = (
"908 489 LINE",
"914 438 LINE",
"916 438 LINE",
"950 471 OFFCURVE",
"988 499 OFFCURVE",
"1039 499 CURVE SMOOTH",
"1119 499 OFFCURVE",
"1154 446 OFFCURVE",
"1154 351 CURVE SMOOTH",
"1154 115 LINE",
"1076 115 LINE",
"1076 341 LINE SMOOTH",
"1076 406 OFFCURVE",
"1057 431 OFFCURVE",
"1013 431 CURVE SMOOTH",
"978 431 OFFCURVE",
"954 414 OFFCURVE",
"921 380 CURVE",
"921 115 LINE",
"844 115 LINE",
"844 489 LINE"
);
},
{
closed = 1;
nodes = (
"1222 423 OFFCURVE",
"1299 499 OFFCURVE",
"1383 499 CURVE SMOOTH",
"1426 499 OFFCURVE",
"1453 482 OFFCURVE",
"1483 457 CURVE",
"1480 518 LINE",
"1480 657 LINE",
"1558 657 LINE",
"1558 115 LINE",
"1494 115 LINE",
"1488 157 LINE",
"1485 157 LINE",
"1458 129 OFFCURVE",
"1419 106 OFFCURVE",
"1377 106 CURVE SMOOTH",
"1283 106 OFFCURVE",
"1222 178 OFFCURVE",
"1222 302 CURVE SMOOTH"
);
},
{
closed = 1;
nodes = (
"1480 399 LINE",
"1452 425 OFFCURVE",
"1426 433 OFFCURVE",
"1398 433 CURVE SMOOTH",
"1345 433 OFFCURVE",
"1303 384 OFFCURVE",
"1303 303 CURVE SMOOTH",
"1303 218 OFFCURVE",
"1337 171 OFFCURVE",
"1395 171 CURVE SMOOTH",
"1426 171 OFFCURVE",
"1453 185 OFFCURVE",
"1480 217 CURVE"
);
}
);
width = 2000;
}
);
},
{
glyphname = E_n_t_e_r;
lastChange = "2014-10-27 06:35:29 +0000";
layers = (
{
layerId = "F84F5EB2-94F9-4556-9B6C-C2D485160B3A";
name = Regular;
paths = (
{
closed = 1;
nodes = (
"200 -75 LINE SMOOTH",
"115 -75 OFFCURVE",
"45 -5 OFFCURVE",
"45 80 CURVE SMOOTH",
"45 680 LINE SMOOTH",
"45 765 OFFCURVE",
"115 835 OFFCURVE",
"200 835 CURVE SMOOTH",
"2800 835 LINE SMOOTH",
"2885 835 OFFCURVE",
"2955 765 OFFCURVE",
"2955 680 CURVE SMOOTH",
"2955 80 LINE SMOOTH",
"2955 -5 OFFCURVE",
"2885 -75 OFFCURVE",
"2800 -75 CURVE SMOOTH"
);
},
{
closed = 1;
nodes = (
"131 805 OFFCURVE",
"75 749 OFFCURVE",
"75 680 CURVE SMOOTH",
"75 80 LINE SMOOTH",
"75 11 OFFCURVE",
"131 -45 OFFCURVE",
"200 -45 CURVE SMOOTH",
"2800 -45 LINE SMOOTH",
"2869 -45 OFFCURVE",
"2925 11 OFFCURVE",
"2925 80 CURVE SMOOTH",
"2925 680 LINE SMOOTH",
"2925 749 OFFCURVE",
"2869 805 OFFCURVE",
"2800 805 CURVE SMOOTH",
"200 805 LINE SMOOTH"
);
},
{
closed = 1;
nodes = (
"968 612 LINE",
"968 546 LINE",
"751 546 LINE",
"751 406 LINE",
"935 406 LINE",
"935 340 LINE",
"751 340 LINE",
"751 178 LINE",
"976 178 LINE",
"976 111 LINE",
"672 111 LINE",
"672 612 LINE"
);
},
{
closed = 1;
nodes = (
"1138 485 LINE",
"1144 434 LINE",
"1146 434 LINE",
"1180 467 OFFCURVE",
"1218 495 OFFCURVE",
"1269 495 CURVE SMOOTH",
"1349 495 OFFCURVE",
"1384 442 OFFCURVE",
"1384 347 CURVE SMOOTH",
"1384 111 LINE",
"1306 111 LINE",
"1306 337 LINE SMOOTH",
"1306 402 OFFCURVE",
"1287 427 OFFCURVE",
"1243 427 CURVE SMOOTH",
"1208 427 OFFCURVE",
"1184 410 OFFCURVE",
"1151 376 CURVE",
"1151 111 LINE",
"1074 111 LINE",
"1074 485 LINE"
);
},
{
closed = 1;
nodes = (
"1503 423 LINE",
"1449 423 LINE",
"1449 481 LINE",
"1507 485 LINE",
"1516 589 LINE",
"1582 589 LINE",
"1582 485 LINE",
"1679 485 LINE",
"1679 423 LINE",
"1582 423 LINE",
"1582 233 LINE SMOOTH",
"1582 188 OFFCURVE",
"1597 165 OFFCURVE",
"1636 165 CURVE SMOOTH",
"1649 165 OFFCURVE",
"1665 169 OFFCURVE",
"1676 174 CURVE",
"1690 116 LINE",
"1669 109 OFFCURVE",
"1644 102 OFFCURVE",
"1617 102 CURVE SMOOTH",
"1533 102 OFFCURVE",
"1503 155 OFFCURVE",
"1503 234 CURVE SMOOTH"
);
},
{
closed = 1;
nodes = (
"1734 419 OFFCURVE",
"1817 495 OFFCURVE",
"1905 495 CURVE SMOOTH",
"2004 495 OFFCURVE",
"2057 423 OFFCURVE",
"2057 317 CURVE SMOOTH",
"2057 302 OFFCURVE",
"2055 287 OFFCURVE",
"2053 278 CURVE",
"1811 278 LINE",
"1817 206 OFFCURVE",
"1862 164 OFFCURVE",
"1926 164 CURVE SMOOTH",
"1960 164 OFFCURVE",
"1988 174 OFFCURVE",
"2015 192 CURVE",
"2043 142 LINE",
"2008 119 OFFCURVE",
"1965 102 OFFCURVE",
"1916 102 CURVE SMOOTH",
"1815 102 OFFCURVE",
"1734 175 OFFCURVE",
"1734 298 CURVE SMOOTH"
);
},
{
closed = 1;
nodes = (
"1990 396 OFFCURVE",
"1960 434 OFFCURVE",
"1906 434 CURVE SMOOTH",
"1859 434 OFFCURVE",
"1818 398 OFFCURVE",
"1810 332 CURVE",
"1990 332 LINE"
);
},
{
closed = 1;
nodes = (
"2208 485 LINE",
"2215 418 LINE",
"2217 418 LINE",
"2243 466 OFFCURVE",
"2283 495 OFFCURVE",
"2323 495 CURVE SMOOTH",
"2341 495 OFFCURVE",
"2353 492 OFFCURVE",
"2365 487 CURVE",
"2351 419 LINE",
"2338 423 OFFCURVE",
"2328 425 OFFCURVE",
"2313 425 CURVE SMOOTH",
"2283 425 OFFCURVE",
"2246 404 OFFCURVE",
"2222 344 CURVE",
"2222 111 LINE",
"2145 111 LINE",
"2145 485 LINE"
);
}
);
width = 3000;
}
);
},
{
glyphname = E_s_c;
lastChange = "2014-10-26 15:28:03 +0000";
layers = (
{
layerId = "F84F5EB2-94F9-4556-9B6C-C2D485160B3A";
name = Regular;
paths = (
{
closed = 1;
nodes = (
"200 -75 LINE SMOOTH",
"115 -75 OFFCURVE",
"45 -5 OFFCURVE",
"45 80 CURVE SMOOTH",
"45 680 LINE SMOOTH",
"45 765 OFFCURVE",
"115 835 OFFCURVE",
"200 835 CURVE SMOOTH",
"1800 835 LINE SMOOTH",
"1885 835 OFFCURVE",
"1955 765 OFFCURVE",
"1955 680 CURVE SMOOTH",
"1955 80 LINE SMOOTH",
"1955 -5 OFFCURVE",
"1885 -75 OFFCURVE",
"1800 -75 CURVE SMOOTH"
);
},
{
closed = 1;
nodes = (
"131 805 OFFCURVE",
"75 749 OFFCURVE",
"75 680 CURVE SMOOTH",
"75 80 LINE SMOOTH",
"75 11 OFFCURVE",
"131 -45 OFFCURVE",
"200 -45 CURVE SMOOTH",
"1800 -45 LINE SMOOTH",
"1869 -45 OFFCURVE",
"1925 11 OFFCURVE",
"1925 80 CURVE SMOOTH",
"1925 680 LINE SMOOTH",
"1925 749 OFFCURVE",
"1869 805 OFFCURVE",
"1800 805 CURVE SMOOTH",
"200 805 LINE SMOOTH"
);
},
{
closed = 1;
nodes = (
"812 620 LINE",
"812 554 LINE",
"595 554 LINE",
"595 414 LINE",
"779 414 LINE",
"779 348 LINE",
"595 348 LINE",
"595 186 LINE",
"819 186 LINE",
"819 119 LINE",
"516 119 LINE",
"516 620 LINE"
);
},
{
closed = 1;
nodes = (
"928 212 LINE",
"962 186 OFFCURVE",
"994 170 OFFCURVE",
"1034 170 CURVE SMOOTH",
"1079 170 OFFCURVE",
"1100 191 OFFCURVE",
"1100 220 CURVE SMOOTH",
"1100 254 OFFCURVE",
"1058 269 OFFCURVE",
"1017 284 CURVE SMOOTH",
"968 304 OFFCURVE",
"911 330 OFFCURVE",
"911 393 CURVE SMOOTH",
"911 456 OFFCURVE",
"961 503 OFFCURVE",
"1043 503 CURVE SMOOTH",
"1093 503 OFFCURVE",
"1134 482 OFFCURVE",
"1165 459 CURVE",
"1128 410 LINE",
"1102 429 OFFCURVE",
"1076 443 OFFCURVE",
"1045 443 CURVE SMOOTH",
"1004 443 OFFCURVE",
"985 423 OFFCURVE",
"985 397 CURVE SMOOTH",
"985 365 OFFCURVE",
"1023 352 OFFCURVE",
"1064 338 CURVE SMOOTH",
"1117 318 OFFCURVE",
"1174 295 OFFCURVE",
"1174 224 CURVE SMOOTH",
"1174 161 OFFCURVE",
"1125 110 OFFCURVE",
"1032 110 CURVE SMOOTH",
"981 110 OFFCURVE",
"928 132 OFFCURVE",
"892 162 CURVE"
);
},
{
closed = 1;
nodes = (
"1231 431 OFFCURVE",
"1317 503 OFFCURVE",
"1416 503 CURVE SMOOTH",
"1463 503 OFFCURVE",
"1498 484 OFFCURVE",
"1525 460 CURVE",
"1487 409 LINE",
"1466 427 OFFCURVE",
"1445 438 OFFCURVE",
"1419 438 CURVE SMOOTH",
"1357 438 OFFCURVE",
"1312 385 OFFCURVE",
"1312 306 CURVE SMOOTH",
"1312 227 OFFCURVE",
"1355 174 OFFCURVE",
"1417 174 CURVE SMOOTH",
"1448 174 OFFCURVE",
"1476 189 OFFCURVE",
"1499 208 CURVE",
"1531 157 LINE",
"1497 126 OFFCURVE",
"1453 110 OFFCURVE",
"1410 110 CURVE SMOOTH",
"1308 110 OFFCURVE",
"1231 182 OFFCURVE",
"1231 306 CURVE SMOOTH"
);
}
);
width = 2000;
}
);
},
{
glyphname = F_one;
lastChange = "2014-10-26 09:16:05 +0000";
layers = (
{
layerId = "F84F5EB2-94F9-4556-9B6C-C2D485160B3A";
name = Regular;
paths = (
{
closed = 1;
nodes = (
"200 -75 LINE SMOOTH",
"115 -75 OFFCURVE",
"45 -5 OFFCURVE",
"45 80 CURVE SMOOTH",
"45 680 LINE SMOOTH",
"45 765 OFFCURVE",
"115 835 OFFCURVE",
"200 835 CURVE SMOOTH",
"1800 835 LINE SMOOTH",
"1885 835 OFFCURVE",
"1955 765 OFFCURVE",
"1955 680 CURVE SMOOTH",
"1955 80 LINE SMOOTH",
"1955 -5 OFFCURVE",
"1885 -75 OFFCURVE",
"1800 -75 CURVE SMOOTH"
);
},
{
closed = 1;
nodes = (
"131 805 OFFCURVE",
"75 749 OFFCURVE",
"75 680 CURVE SMOOTH",
"75 80 LINE SMOOTH",
"75 11 OFFCURVE",
"131 -45 OFFCURVE",
"200 -45 CURVE SMOOTH",
"1800 -45 LINE SMOOTH",
"1869 -45 OFFCURVE",
"1925 11 OFFCURVE",
"1925 80 CURVE SMOOTH",
"1925 680 LINE SMOOTH",
"1925 749 OFFCURVE",
"1869 805 OFFCURVE",
"1800 805 CURVE SMOOTH",
"200 805 LINE SMOOTH"
);
},
{
closed = 1;
nodes = (
"936 630 LINE",
"936 563 LINE",
"712 563 LINE",
"712 405 LINE",
"903 405 LINE",
"903 337 LINE",
"712 337 LINE",
"712 115 LINE",
"631 115 LINE",
"631 630 LINE"
);
},
{
closed = 1;
nodes = (
"1211 182 LINE",
"1211 540 LINE",
"1118 540 LINE",
"1118 591 LINE",
"1167 600 OFFCURVE",
"1201 612 OFFCURVE",
"1230 630 CURVE",
"1291 630 LINE",
"1291 182 LINE",
"1392 182 LINE",
"1392 115 LINE",
"1098 115 LINE",
"1098 182 LINE"
);
}
);
width = 2000;
}
);
},
{
glyphname = F_one_zero;
lastChange = "2014-10-26 09:27:35 +0000";
layers = (
{
layerId = "F84F5EB2-94F9-4556-9B6C-C2D485160B3A";
name = Regular;
paths = (
{
closed = 1;
nodes = (
"200 -75 LINE SMOOTH",
"115 -75 OFFCURVE",
"45 -5 OFFCURVE",
"45 80 CURVE SMOOTH",
"45 680 LINE SMOOTH",
"45 766 OFFCURVE",
"115 835 OFFCURVE",
"200 835 CURVE SMOOTH",
"1800 835 LINE SMOOTH",
"1885 835 OFFCURVE",
"1955 766 OFFCURVE",
"1955 680 CURVE SMOOTH",
"1955 80 LINE SMOOTH",
"1955 -5 OFFCURVE",
"1885 -75 OFFCURVE",
"1800 -75 CURVE SMOOTH"
);
},
{
closed = 1;
nodes = (
"131 805 OFFCURVE",
"75 749 OFFCURVE",
"75 680 CURVE SMOOTH",
"75 80 LINE SMOOTH",
"75 11 OFFCURVE",
"131 -45 OFFCURVE",
"200 -45 CURVE SMOOTH",
"1800 -45 LINE SMOOTH",
"1869 -45 OFFCURVE",
"1925 11 OFFCURVE",
"1925 80 CURVE SMOOTH",
"1925 680 LINE SMOOTH",
"1925 749 OFFCURVE",
"1869 805 OFFCURVE",
"1800 805 CURVE SMOOTH",
"200 805 LINE SMOOTH"
);
},
{
closed = 1;
nodes = (
"747 631 LINE",
"747 563 LINE",
"523 563 LINE",
"523 405 LINE",
"714 405 LINE",
"714 337 LINE",
"523 337 LINE",
"523 115 LINE",
"442 115 LINE",
"442 631 LINE"
);
},
{
closed = 1;
nodes = (
"1022 182 LINE",
"1022 540 LINE",
"929 540 LINE",
"929 591 LINE",
"978 601 OFFCURVE",
"1012 612 OFFCURVE",
"1041 631 CURVE",
"1102 631 LINE",
"1102 182 LINE",
"1203 182 LINE",
"1203 115 LINE",
"909 115 LINE",
"909 182 LINE"
);
},
{
closed = 1;
nodes = (
"1260 554 OFFCURVE",
"1325 640 OFFCURVE",
"1426 640 CURVE SMOOTH",
"1527 640 OFFCURVE",
"1593 553 OFFCURVE",
"1593 375 CURVE SMOOTH",
"1593 196 OFFCURVE",
"1527 106 OFFCURVE",
"1426 106 CURVE SMOOTH",
"1325 106 OFFCURVE",
"1260 196 OFFCURVE",
"1260 375 CURVE SMOOTH"
);
},
{
closed = 1;
nodes = (
"1516 523 OFFCURVE",
"1479 577 OFFCURVE",
"1426 577 CURVE SMOOTH",
"1374 577 OFFCURVE",
"1337 523 OFFCURVE",
"1337 375 CURVE SMOOTH",
"1337 226 OFFCURVE",
"1374 170 OFFCURVE",
"1426 170 CURVE SMOOTH",
"1479 170 OFFCURVE",
"1516 226 OFFCURVE",
"1516 375 CURVE SMOOTH"
);
}
);
width = 2000;
}
);
},
{
glyphname = F_one_one;
lastChange = "2014-10-26 09:28:22 +0000";
layers = (
{
layerId = "F84F5EB2-94F9-4556-9B6C-C2D485160B3A";
name = Regular;
paths = (
{
closed = 1;
nodes = (
"200 -75 LINE SMOOTH",
"115 -75 OFFCURVE",
"45 -5 OFFCURVE",
"45 80 CURVE SMOOTH",
"45 680 LINE SMOOTH",
"45 766 OFFCURVE",
"115 835 OFFCURVE",
"200 835 CURVE SMOOTH",
"1800 835 LINE SMOOTH",
"1885 835 OFFCURVE",
"1955 766 OFFCURVE",
"1955 680 CURVE SMOOTH",
"1955 80 LINE SMOOTH",
"1955 -5 OFFCURVE",
"1885 -75 OFFCURVE",
"1800 -75 CURVE SMOOTH"
);
},
{
closed = 1;
nodes = (
"131 805 OFFCURVE",
"75 749 OFFCURVE",
"75 680 CURVE SMOOTH",
"75 80 LINE SMOOTH",
"75 11 OFFCURVE",
"131 -45 OFFCURVE",
"200 -45 CURVE SMOOTH",
"1800 -45 LINE SMOOTH",
"1869 -45 OFFCURVE",
"1925 11 OFFCURVE",
"1925 80 CURVE SMOOTH",
"1925 680 LINE SMOOTH",
"1925 749 OFFCURVE",
"1869 805 OFFCURVE",
"1800 805 CURVE SMOOTH",
"200 805 LINE SMOOTH"
);
},
{
closed = 1;
nodes = (
"747 631 LINE",
"747 563 LINE",
"523 563 LINE",
"523 405 LINE",
"714 405 LINE",
"714 337 LINE",
"523 337 LINE",
"523 115 LINE",
"442 115 LINE",
"442 631 LINE"
);
},
{
closed = 1;
nodes = (
"1022 182 LINE",
"1022 540 LINE",
"929 540 LINE",
"929 591 LINE",
"978 601 OFFCURVE",
"1012 612 OFFCURVE",
"1041 631 CURVE",
"1102 631 LINE",
"1102 182 LINE",
"1203 182 LINE",
"1203 115 LINE",
"909 115 LINE",
"909 182 LINE"
);
},
{
closed = 1;
nodes = (
"1400 182 LINE",
"1400 540 LINE",
"1307 540 LINE",
"1307 591 LINE",
"1356 601 OFFCURVE",
"1390 612 OFFCURVE",
"1419 631 CURVE",
"1480 631 LINE",
"1480 182 LINE",
"1581 182 LINE",
"1581 115 LINE",
"1287 115 LINE",
"1287 182 LINE"
);
}
);
width = 2000;
}
);
},
{
glyphname = F_one_two;
lastChange = "2014-10-26 09:29:16 +0000";
layers = (
{
layerId = "F84F5EB2-94F9-4556-9B6C-C2D485160B3A";
name = Regular;
paths = (
{
closed = 1;
nodes = (
"200 -75 LINE SMOOTH",
"115 -75 OFFCURVE",
"45 -5 OFFCURVE",
"45 80 CURVE SMOOTH",
"45 680 LINE SMOOTH",
"45 766 OFFCURVE",
"115 835 OFFCURVE",
"200 835 CURVE SMOOTH",
"1800 835 LINE SMOOTH",
"1885 835 OFFCURVE",
"1955 766 OFFCURVE",
"1955 680 CURVE SMOOTH",
"1955 80 LINE SMOOTH",
"1955 -5 OFFCURVE",
"1885 -75 OFFCURVE",
"1800 -75 CURVE SMOOTH"
);
},
{
closed = 1;
nodes = (
"131 805 OFFCURVE",
"75 749 OFFCURVE",
"75 680 CURVE SMOOTH",
"75 80 LINE SMOOTH",
"75 11 OFFCURVE",
"131 -45 OFFCURVE",
"200 -45 CURVE SMOOTH",
"1800 -45 LINE SMOOTH",
"1869 -45 OFFCURVE",
"1925 11 OFFCURVE",
"1925 80 CURVE SMOOTH",
"1925 680 LINE SMOOTH",
"1925 749 OFFCURVE",
"1869 805 OFFCURVE",
"1800 805 CURVE SMOOTH",
"200 805 LINE SMOOTH"
);
},
{
closed = 1;
nodes = (
"744 631 LINE",
"744 563 LINE",
"520 563 LINE",
"520 405 LINE",
"710 405 LINE",
"710 337 LINE",
"520 337 LINE",
"520 115 LINE",
"438 115 LINE",
"438 631 LINE"
);
},
{
closed = 1;
nodes = (
"1018 182 LINE",
"1018 540 LINE",
"926 540 LINE",
"926 591 LINE",
"974 601 OFFCURVE",
"1009 612 OFFCURVE",
"1038 631 CURVE",
"1099 631 LINE",
"1099 182 LINE",
"1200 182 LINE",
"1200 115 LINE",
"906 115 LINE",
"906 182 LINE"
);
},
{
closed = 1;
nodes = (
"1413 297 OFFCURVE",
"1492 397 OFFCURVE",
"1492 481 CURVE SMOOTH",
"1492 538 OFFCURVE",
"1461 576 OFFCURVE",
"1404 576 CURVE SMOOTH",
"1363 576 OFFCURVE",
"1330 550 OFFCURVE",
"1303 519 CURVE",
"1257 563 LINE",
"1301 611 OFFCURVE",
"1347 640 OFFCURVE",
"1414 640 CURVE SMOOTH",
"1508 640 OFFCURVE",
"1569 579 OFFCURVE",
"1569 486 CURVE SMOOTH",
"1569 386 OFFCURVE",
"1490 283 OFFCURVE",
"1381 179 CURVE",
"1408 182 OFFCURVE",
"1440 184 OFFCURVE",
"1465 184 CURVE SMOOTH",
"1594 184 LINE",
"1594 115 LINE",
"1261 115 LINE",
"1261 162 LINE"
);
}
);
width = 2000;
}
);
},
{
glyphname = F_one_three;
lastChange = "2014-10-31 09:38:26 +0000";
layers = (
{
layerId = "F84F5EB2-94F9-4556-9B6C-C2D485160B3A";
name = Regular;
paths = (
{
closed = 1;
nodes = (
"200 -75 LINE SMOOTH",
"115 -75 OFFCURVE",
"45 -5 OFFCURVE",
"45 80 CURVE SMOOTH",
"45 680 LINE SMOOTH",
"45 765 OFFCURVE",
"115 835 OFFCURVE",
"200 835 CURVE SMOOTH",
"1800 835 LINE SMOOTH",
"1885 835 OFFCURVE",
"1955 765 OFFCURVE",
"1955 680 CURVE SMOOTH",
"1955 80 LINE SMOOTH",
"1955 -5 OFFCURVE",
"1885 -75 OFFCURVE",
"1800 -75 CURVE SMOOTH"
);
},
{
closed = 1;
nodes = (
"131 805 OFFCURVE",
"75 749 OFFCURVE",
"75 680 CURVE SMOOTH",
"75 80 LINE SMOOTH",
"75 11 OFFCURVE",
"131 -45 OFFCURVE",
"200 -45 CURVE SMOOTH",
"1800 -45 LINE SMOOTH",
"1869 -45 OFFCURVE",
"1925 11 OFFCURVE",
"1925 80 CURVE SMOOTH",
"1925 680 LINE SMOOTH",
"1925 749 OFFCURVE",
"1869 805 OFFCURVE",
"1800 805 CURVE SMOOTH",
"200 805 LINE SMOOTH"
);
},
{
closed = 1;
nodes = (
"740 630 LINE",
"740 563 LINE",
"516 563 LINE",
"516 405 LINE",
"707 405 LINE",
"707 337 LINE",
"516 337 LINE",
"516 115 LINE",
"435 115 LINE",
"435 630 LINE"
);
},
{
closed = 1;
nodes = (
"1015 182 LINE",
"1015 540 LINE",
"922 540 LINE",
"922 591 LINE",
"971 600 OFFCURVE",
"1005 612 OFFCURVE",
"1034 630 CURVE",
"1095 630 LINE",
"1095 182 LINE",
"1196 182 LINE",
"1196 115 LINE",
"902 115 LINE",
"902 182 LINE"
);
},
{
closed = 1;
nodes = (
"1293 229 LINE",
"1323 198 OFFCURVE",
"1361 172 OFFCURVE",
"1415 172 CURVE SMOOTH",
"1473 172 OFFCURVE",
"1513 204 OFFCURVE",
"1513 257 CURVE SMOOTH",
"1513 315 OFFCURVE",
"1476 352 OFFCURVE",
"1360 352 CURVE",
"1360 411 LINE",
"1461 411 OFFCURVE",
"1495 450 OFFCURVE",
"1495 502 CURVE SMOOTH",
"1495 547 OFFCURVE",
"1465 576 OFFCURVE",
"1416 577 CURVE SMOOTH",
"1376 576 OFFCURVE",
"1342 556 OFFCURVE",
"1313 528 CURVE",
"1271 578 LINE",
"1312 614 OFFCURVE",
"1359 640 OFFCURVE",
"1419 640 CURVE SMOOTH",
"1511 640 OFFCURVE",
"1576 593 OFFCURVE",
"1576 507 CURVE SMOOTH",
"1576 448 OFFCURVE",
"1542 406 OFFCURVE",
"1487 386 CURVE",
"1487 383 LINE",
"1547 368 OFFCURVE",
"1594 323 OFFCURVE",
"1594 254 CURVE SMOOTH",
"1594 161 OFFCURVE",
"1516 106 OFFCURVE",
"1422 106 CURVE SMOOTH",
"1340 106 OFFCURVE",
"1288 138 OFFCURVE",
"1254 177 CURVE"
);
}
);
width = 2000;
}
);
},
{
glyphname = F_one_four;
lastChange = "2014-10-31 09:39:17 +0000";
layers = (
{
layerId = "F84F5EB2-94F9-4556-9B6C-C2D485160B3A";
name = Regular;
paths = (
{
closed = 1;
nodes = (
"200 -75 LINE SMOOTH",
"115 -75 OFFCURVE",
"45 -5 OFFCURVE",
"45 80 CURVE SMOOTH",
"45 680 LINE SMOOTH",
"45 765 OFFCURVE",
"115 835 OFFCURVE",
"200 835 CURVE SMOOTH",
"1800 835 LINE SMOOTH",
"1885 835 OFFCURVE",
"1955 765 OFFCURVE",
"1955 680 CURVE SMOOTH",
"1955 80 LINE SMOOTH",
"1955 -5 OFFCURVE",
"1885 -75 OFFCURVE",
"1800 -75 CURVE SMOOTH"
);
},
{
closed = 1;
nodes = (
"131 805 OFFCURVE",
"75 749 OFFCURVE",
"75 680 CURVE SMOOTH",
"75 80 LINE SMOOTH",
"75 11 OFFCURVE",
"131 -45 OFFCURVE",
"200 -45 CURVE SMOOTH",
"1800 -45 LINE SMOOTH",
"1869 -45 OFFCURVE",
"1925 11 OFFCURVE",
"1925 80 CURVE SMOOTH",
"1925 680 LINE SMOOTH",
"1925 749 OFFCURVE",
"1869 805 OFFCURVE",
"1800 805 CURVE SMOOTH",
"200 805 LINE SMOOTH"
);
},
{
closed = 1;
nodes = (
"751 630 LINE",
"751 563 LINE",
"527 563 LINE",
"527 405 LINE",
"717 405 LINE",
"717 337 LINE",
"527 337 LINE",
"527 115 LINE",
"445 115 LINE",
"445 630 LINE"
);
},
{
closed = 1;
nodes = (
"1025 182 LINE",
"1025 540 LINE",
"933 540 LINE",
"933 591 LINE",
"981 600 OFFCURVE",
"1016 612 OFFCURVE",
"1045 630 CURVE",
"1106 630 LINE",
"1106 182 LINE",
"1207 182 LINE",
"1207 115 LINE",
"913 115 LINE",
"913 182 LINE"
);
},
{
closed = 1;
nodes = (
"1536 254 LINE",
"1536 115 LINE",
"1460 115 LINE",
"1460 254 LINE",
"1237 254 LINE",
"1237 308 LINE",
"1443 630 LINE",
"1536 630 LINE",
"1536 316 LINE",
"1601 316 LINE",
"1601 254 LINE"
);
},
{
closed = 1;
nodes = (
"1460 451 LINE SMOOTH",
"1460 479 OFFCURVE",
"1463 523 OFFCURVE",
"1464 551 CURVE",
"1461 551 LINE",
"1449 525 OFFCURVE",
"1435 498 OFFCURVE",
"1420 472 CURVE",
"1319 316 LINE",
"1460 316 LINE"
);
}
);
width = 2000;
}
);
},
{
glyphname = F_one_five;
lastChange = "2014-10-31 09:40:01 +0000";
layers = (
{
layerId = "F84F5EB2-94F9-4556-9B6C-C2D485160B3A";
name = Regular;
paths = (
{
closed = 1;
nodes = (
"200 -75 LINE SMOOTH",
"115 -75 OFFCURVE",
"45 -5 OFFCURVE",
"45 80 CURVE SMOOTH",
"45 680 LINE SMOOTH",
"45 765 OFFCURVE",
"115 835 OFFCURVE",
"200 835 CURVE SMOOTH",
"1800 835 LINE SMOOTH",
"1885 835 OFFCURVE",
"1955 765 OFFCURVE",
"1955 680 CURVE SMOOTH",
"1955 80 LINE SMOOTH",
"1955 -5 OFFCURVE",
"1885 -75 OFFCURVE",
"1800 -75 CURVE SMOOTH"
);
},
{
closed = 1;
nodes = (
"131 805 OFFCURVE",
"75 749 OFFCURVE",
"75 680 CURVE SMOOTH",
"75 80 LINE SMOOTH",
"75 11 OFFCURVE",
"131 -45 OFFCURVE",
"200 -45 CURVE SMOOTH",
"1800 -45 LINE SMOOTH",
"1869 -45 OFFCURVE",
"1925 11 OFFCURVE",
"1925 80 CURVE SMOOTH",
"1925 680 LINE SMOOTH",
"1925 749 OFFCURVE",
"1869 805 OFFCURVE",
"1800 805 CURVE SMOOTH",
"200 805 LINE SMOOTH"
);
},
{
closed = 1;
nodes = (
"744 630 LINE",
"744 563 LINE",
"520 563 LINE",
"520 405 LINE",
"710 405 LINE",
"710 337 LINE",
"520 337 LINE",
"520 115 LINE",
"438 115 LINE",
"438 630 LINE"
);
},
{
closed = 1;
nodes = (
"1018 182 LINE",
"1018 540 LINE",
"926 540 LINE",
"926 591 LINE",
"974 600 OFFCURVE",
"1009 612 OFFCURVE",
"1038 630 CURVE",
"1099 630 LINE",
"1099 182 LINE",
"1200 182 LINE",
"1200 115 LINE",
"906 115 LINE",
"906 182 LINE"
);
},
{
closed = 1;
nodes = (
"1288 227 LINE",
"1317 198 OFFCURVE",
"1354 172 OFFCURVE",
"1408 172 CURVE SMOOTH",
"1466 172 OFFCURVE",
"1510 213 OFFCURVE",
"1510 282 CURVE SMOOTH",
"1510 350 OFFCURVE",
"1471 390 OFFCURVE",
"1412 390 CURVE SMOOTH",
"1380 390 OFFCURVE",
"1360 380 OFFCURVE",
"1330 360 CURVE",
"1291 386 LINE",
"1306 630 LINE",
"1567 630 LINE",
"1567 563 LINE",
"1376 563 LINE",
"1364 430 LINE",
"1386 441 OFFCURVE",
"1407 448 OFFCURVE",
"1435 448 CURVE SMOOTH",
"1521 448 OFFCURVE",
"1592 397 OFFCURVE",
"1592 285 CURVE SMOOTH",
"1592 171 OFFCURVE",
"1508 106 OFFCURVE",
"1418 106 CURVE SMOOTH",
"1337 106 OFFCURVE",
"1286 139 OFFCURVE",
"1249 175 CURVE"
);
}
);
width = 2000;
}
);
},
{
glyphname = F_one_six;
lastChange = "2014-10-31 09:41:20 +0000";
layers = (
{
layerId = "F84F5EB2-94F9-4556-9B6C-C2D485160B3A";
name = Regular;
paths = (
{
closed = 1;
nodes = (
"200 -75 LINE SMOOTH",
"115 -75 OFFCURVE",
"45 -5 OFFCURVE",
"45 80 CURVE SMOOTH",
"45 680 LINE SMOOTH",
"45 765 OFFCURVE",
"115 835 OFFCURVE",
"200 835 CURVE SMOOTH",
"1800 835 LINE SMOOTH",
"1885 835 OFFCURVE",
"1955 765 OFFCURVE",
"1955 680 CURVE SMOOTH",
"1955 80 LINE SMOOTH",
"1955 -5 OFFCURVE",
"1885 -75 OFFCURVE",
"1800 -75 CURVE SMOOTH"
);
},
{
closed = 1;
nodes = (
"131 805 OFFCURVE",
"75 749 OFFCURVE",
"75 680 CURVE SMOOTH",
"75 80 LINE SMOOTH",
"75 11 OFFCURVE",
"131 -45 OFFCURVE",
"200 -45 CURVE SMOOTH",
"1800 -45 LINE SMOOTH",
"1869 -45 OFFCURVE",
"1925 11 OFFCURVE",
"1925 80 CURVE SMOOTH",
"1925 680 LINE SMOOTH",
"1925 749 OFFCURVE",
"1869 805 OFFCURVE",
"1800 805 CURVE SMOOTH",
"200 805 LINE SMOOTH"
);
},
{
closed = 1;
nodes = (
"754 630 LINE",
"754 563 LINE",
"530 563 LINE",
"530 405 LINE",
"721 405 LINE",
"721 337 LINE",
"530 337 LINE",
"530 115 LINE",
"449 115 LINE",
"449 630 LINE"
);
},
{
closed = 1;
nodes = (
"1029 182 LINE",
"1029 540 LINE",
"936 540 LINE",
"936 591 LINE",
"985 600 OFFCURVE",
"1019 612 OFFCURVE",
"1048 630 CURVE",
"1109 630 LINE",
"1109 182 LINE",
"1210 182 LINE",
"1210 115 LINE",
"916 115 LINE",
"916 182 LINE"
);
},
{
closed = 1;
nodes = (
"1517 558 OFFCURVE",
"1486 574 OFFCURVE",
"1456 574 CURVE SMOOTH",
"1390 574 OFFCURVE",
"1335 525 OFFCURVE",
"1332 378 CURVE",
"1362 415 OFFCURVE",
"1407 437 OFFCURVE",
"1444 437 CURVE SMOOTH",
"1531 437 OFFCURVE",
"1589 384 OFFCURVE",
"1589 275 CURVE SMOOTH",
"1589 173 OFFCURVE",
"1519 106 OFFCURVE",
"1435 106 CURVE SMOOTH",
"1337 106 OFFCURVE",
"1257 188 OFFCURVE",
"1257 363 CURVE SMOOTH",
"1257 561 OFFCURVE",
"1350 640 OFFCURVE",
"1452 640 CURVE SMOOTH",
"1509 640 OFFCURVE",
"1551 616 OFFCURVE",
"1580 585 CURVE",
"1536 536 LINE"
);
},
{
closed = 1;
nodes = (
"1514 341 OFFCURVE",
"1485 378 OFFCURVE",
"1429 378 CURVE SMOOTH",
"1399 378 OFFCURVE",
"1364 362 OFFCURVE",
"1333 318 CURVE",
"1342 216 OFFCURVE",
"1379 168 OFFCURVE",
"1434 168 CURVE SMOOTH",
"1479 168 OFFCURVE",
"1514 208 OFFCURVE",
"1514 275 CURVE SMOOTH"
);
}
);
width = 2000;
}
);
},
{
glyphname = F_one_seven;
lastChange = "2014-10-31 09:42:13 +0000";
layers = (
{
layerId = "F84F5EB2-94F9-4556-9B6C-C2D485160B3A";
name = Regular;
paths = (
{
closed = 1;
nodes = (
"200 -75 LINE SMOOTH",
"115 -75 OFFCURVE",
"45 -5 OFFCURVE",
"45 80 CURVE SMOOTH",
"45 680 LINE SMOOTH",
"45 765 OFFCURVE",
"115 835 OFFCURVE",
"200 835 CURVE SMOOTH",
"1800 835 LINE SMOOTH",
"1885 835 OFFCURVE",
"1955 765 OFFCURVE",
"1955 680 CURVE SMOOTH",
"1955 80 LINE SMOOTH",
"1955 -5 OFFCURVE",
"1885 -75 OFFCURVE",
"1800 -75 CURVE SMOOTH"
);
},
{
closed = 1;
nodes = (
"131 805 OFFCURVE",
"75 749 OFFCURVE",
"75 680 CURVE SMOOTH",
"75 80 LINE SMOOTH",
"75 11 OFFCURVE",
"131 -45 OFFCURVE",
"200 -45 CURVE SMOOTH",
"1800 -45 LINE SMOOTH",
"1869 -45 OFFCURVE",
"1925 11 OFFCURVE",
"1925 80 CURVE SMOOTH",
"1925 680 LINE SMOOTH",
"1925 749 OFFCURVE",
"1869 805 OFFCURVE",
"1800 805 CURVE SMOOTH",
"200 805 LINE SMOOTH"
);
},
{
closed = 1;
nodes = (
"758 630 LINE",
"758 563 LINE",
"534 563 LINE",
"534 405 LINE",
"724 405 LINE",
"724 337 LINE",
"534 337 LINE",
"534 115 LINE",
"452 115 LINE",
"452 630 LINE"
);
},
{
closed = 1;
nodes = (
"1032 182 LINE",
"1032 540 LINE",
"940 540 LINE",
"940 591 LINE",
"988 600 OFFCURVE",
"1023 612 OFFCURVE",
"1052 630 CURVE",
"1113 630 LINE",
"1113 182 LINE",
"1214 182 LINE",
"1214 115 LINE",
"920 115 LINE",
"920 182 LINE"
);
},
{
closed = 1;
nodes = (
"1251 563 LINE",
"1251 630 LINE",
"1583 630 LINE",
"1583 581 LINE",
"1461 430 OFFCURVE",
"1443 317 OFFCURVE",
"1434 115 CURVE",
"1352 115 LINE",
"1361 304 OFFCURVE",
"1394 424 OFFCURVE",
"1493 563 CURVE"
);
}
);
width = 2000;
}
);
},
{
glyphname = F_one_eight;
lastChange = "2014-10-31 09:42:55 +0000";
layers = (
{
layerId = "F84F5EB2-94F9-4556-9B6C-C2D485160B3A";
name = Regular;
paths = (
{
closed = 1;
nodes = (
"200 -75 LINE SMOOTH",
"115 -75 OFFCURVE",
"45 -5 OFFCURVE",
"45 80 CURVE SMOOTH",
"45 680 LINE SMOOTH",
"45 765 OFFCURVE",
"115 835 OFFCURVE",
"200 835 CURVE SMOOTH",
"1800 835 LINE SMOOTH",
"1885 835 OFFCURVE",
"1955 765 OFFCURVE",
"1955 680 CURVE SMOOTH",
"1955 80 LINE SMOOTH",
"1955 -5 OFFCURVE",
"1885 -75 OFFCURVE",
"1800 -75 CURVE SMOOTH"
);
},
{
closed = 1;
nodes = (
"131 805 OFFCURVE",
"75 749 OFFCURVE",
"75 680 CURVE SMOOTH",
"75 80 LINE SMOOTH",
"75 11 OFFCURVE",
"131 -45 OFFCURVE",
"200 -45 CURVE SMOOTH",
"1800 -45 LINE SMOOTH",
"1869 -45 OFFCURVE",
"1925 11 OFFCURVE",
"1925 80 CURVE SMOOTH",
"1925 680 LINE SMOOTH",
"1925 749 OFFCURVE",
"1869 805 OFFCURVE",
"1800 805 CURVE SMOOTH",
"200 805 LINE SMOOTH"
);
},
{
closed = 1;
nodes = (
"747 630 LINE",
"747 563 LINE",
"523 563 LINE",
"523 405 LINE",
"714 405 LINE",
"714 337 LINE",
"523 337 LINE",
"523 115 LINE",
"442 115 LINE",
"442 630 LINE"
);
},
{
closed = 1;
nodes = (
"1022 182 LINE",
"1022 540 LINE",
"929 540 LINE",
"929 591 LINE",
"978 600 OFFCURVE",
"1012 612 OFFCURVE",
"1041 630 CURVE",
"1102 630 LINE",
"1102 182 LINE",
"1203 182 LINE",
"1203 115 LINE",
"909 115 LINE",
"909 182 LINE"
);
},
{
closed = 1;
nodes = (
"1259 311 OFFCURVE",
"1304 357 OFFCURVE",
"1352 382 CURVE",
"1352 385 LINE",
"1313 413 OFFCURVE",
"1282 451 OFFCURVE",
"1282 506 CURVE SMOOTH",
"1282 586 OFFCURVE",
"1345 639 OFFCURVE",
"1429 639 CURVE SMOOTH",
"1519 639 OFFCURVE",
"1575 583 OFFCURVE",
"1575 502 CURVE SMOOTH",
"1575 450 OFFCURVE",
"1539 405 OFFCURVE",
"1507 381 CURVE",
"1507 378 LINE",
"1553 351 OFFCURVE",
"1594 311 OFFCURVE",
"1594 241 CURVE SMOOTH",
"1594 165 OFFCURVE",
"1527 106 OFFCURVE",
"1427 106 CURVE SMOOTH",
"1331 106 OFFCURVE",
"1259 164 OFFCURVE",
"1259 243 CURVE SMOOTH"
);
},
{
closed = 1;
nodes = (
"1517 306 OFFCURVE",
"1461 330 OFFCURVE",
"1391 359 CURVE",
"1355 334 OFFCURVE",
"1331 296 OFFCURVE",
"1331 251 CURVE SMOOTH",
"1331 200 OFFCURVE",
"1373 164 OFFCURVE",
"1429 164 CURVE SMOOTH",
"1481 164 OFFCURVE",
"1517 195 OFFCURVE",
"1517 243 CURVE SMOOTH"
);
},
{
closed = 1;
nodes = (
"1507 545 OFFCURVE",
"1478 581 OFFCURVE",
"1428 581 CURVE SMOOTH",
"1386 581 OFFCURVE",
"1354 552 OFFCURVE",
"1354 506 CURVE SMOOTH",
"1354 450 OFFCURVE",
"1403 424 OFFCURVE",
"1461 402 CURVE",
"1492 430 OFFCURVE",
"1507 463 OFFCURVE",
"1507 497 CURVE SMOOTH"
);
}
);
width = 2000;
}
);
},
{
glyphname = F_one_nine;
lastChange = "2014-10-31 09:43:35 +0000";
layers = (
{
layerId = "F84F5EB2-94F9-4556-9B6C-C2D485160B3A";
name = Regular;
paths = (
{
closed = 1;
nodes = (
"200 -75 LINE SMOOTH",
"115 -75 OFFCURVE",
"45 -5 OFFCURVE",
"45 80 CURVE SMOOTH",
"45 680 LINE SMOOTH",
"45 766 OFFCURVE",
"115 835 OFFCURVE",
"200 835 CURVE SMOOTH",
"1800 835 LINE SMOOTH",
"1885 835 OFFCURVE",
"1955 766 OFFCURVE",
"1955 680 CURVE SMOOTH",
"1955 80 LINE SMOOTH",
"1955 -5 OFFCURVE",
"1885 -75 OFFCURVE",
"1800 -75 CURVE SMOOTH"
);
},
{
closed = 1;
nodes = (
"131 805 OFFCURVE",
"75 749 OFFCURVE",
"75 680 CURVE SMOOTH",
"75 80 LINE SMOOTH",
"75 11 OFFCURVE",
"131 -45 OFFCURVE",
"200 -45 CURVE SMOOTH",
"1800 -45 LINE SMOOTH",
"1869 -45 OFFCURVE",
"1925 11 OFFCURVE",
"1925 80 CURVE SMOOTH",
"1925 680 LINE SMOOTH",
"1925 749 OFFCURVE",
"1869 805 OFFCURVE",
"1800 805 CURVE SMOOTH",
"200 805 LINE SMOOTH"
);
},
{
closed = 1;
nodes = (
"747 631 LINE",
"747 563 LINE",
"523 563 LINE",
"523 405 LINE",
"714 405 LINE",
"714 337 LINE",
"523 337 LINE",
"523 115 LINE",
"442 115 LINE",
"442 631 LINE"
);
},
{
closed = 1;
nodes = (
"1022 182 LINE",
"1022 540 LINE",
"929 540 LINE",
"929 591 LINE",
"978 601 OFFCURVE",
"1012 612 OFFCURVE",
"1041 631 CURVE",
"1102 631 LINE",
"1102 182 LINE",
"1203 182 LINE",
"1203 115 LINE",
"909 115 LINE",
"909 182 LINE"
);
},
{
closed = 1;
nodes = (
"1329 187 OFFCURVE",
"1361 172 OFFCURVE",
"1394 172 CURVE SMOOTH",
"1456 172 OFFCURVE",
"1510 223 OFFCURVE",
"1515 370 CURVE",
"1485 332 OFFCURVE",
"1440 309 OFFCURVE",
"1401 309 CURVE SMOOTH",
"1315 309 OFFCURVE",
"1257 363 OFFCURVE",
"1257 471 CURVE SMOOTH",
"1257 573 OFFCURVE",
"1327 640 OFFCURVE",
"1410 640 CURVE SMOOTH",
"1509 640 OFFCURVE",
"1589 561 OFFCURVE",
"1589 391 CURVE SMOOTH",
"1589 187 OFFCURVE",
"1496 106 OFFCURVE",
"1397 106 CURVE SMOOTH",
"1338 106 OFFCURVE",
"1296 130 OFFCURVE",
"1265 161 CURVE",
"1309 211 LINE"
);
},
{
closed = 1;
nodes = (
"1506 532 OFFCURVE",
"1467 578 OFFCURVE",
"1411 578 CURVE SMOOTH",
"1367 578 OFFCURVE",
"1332 538 OFFCURVE",
"1332 471 CURVE SMOOTH",
"1332 405 OFFCURVE",
"1361 367 OFFCURVE",
"1415 367 CURVE SMOOTH",
"1447 367 OFFCURVE",
"1482 386 OFFCURVE",
"1513 430 CURVE"
);
}
);
width = 2000;
}
);
},
{
glyphname = F_two;
lastChange = "2014-10-26 09:17:23 +0000";
layers = (
{
layerId = "F84F5EB2-94F9-4556-9B6C-C2D485160B3A";
name = Regular;
paths = (
{
closed = 1;
nodes = (
"200 -75 LINE SMOOTH",
"115 -75 OFFCURVE",
"45 -5 OFFCURVE",
"45 80 CURVE SMOOTH",
"45 680 LINE SMOOTH",
"45 765 OFFCURVE",
"115 835 OFFCURVE",
"200 835 CURVE SMOOTH",
"1800 835 LINE SMOOTH",
"1885 835 OFFCURVE",
"1955 765 OFFCURVE",
"1955 680 CURVE SMOOTH",
"1955 80 LINE SMOOTH",
"1955 -5 OFFCURVE",
"1885 -75 OFFCURVE",
"1800 -75 CURVE SMOOTH"
);
},
{
closed = 1;
nodes = (
"131 805 OFFCURVE",
"75 749 OFFCURVE",
"75 680 CURVE SMOOTH",
"75 80 LINE SMOOTH",
"75 11 OFFCURVE",
"131 -45 OFFCURVE",
"200 -45 CURVE SMOOTH",
"1800 -45 LINE SMOOTH",
"1869 -45 OFFCURVE",
"1925 11 OFFCURVE",
"1925 80 CURVE SMOOTH",
"1925 680 LINE SMOOTH",
"1925 749 OFFCURVE",
"1869 805 OFFCURVE",
"1800 805 CURVE SMOOTH",
"200 805 LINE SMOOTH"
);
},
{
closed = 1;
nodes = (
"936 630 LINE",
"936 563 LINE",
"712 563 LINE",
"712 405 LINE",
"903 405 LINE",
"903 337 LINE",
"712 337 LINE",
"712 115 LINE",
"631 115 LINE",
"631 630 LINE"
);
},
{
closed = 1;
nodes = (
"1221 297 OFFCURVE",
"1299 397 OFFCURVE",
"1299 481 CURVE SMOOTH",
"1299 537 OFFCURVE",
"1269 576 OFFCURVE",
"1212 576 CURVE SMOOTH",
"1171 576 OFFCURVE",
"1137 550 OFFCURVE",
"1110 518 CURVE",
"1065 563 LINE",
"1109 611 OFFCURVE",
"1154 640 OFFCURVE",
"1221 640 CURVE SMOOTH",
"1316 640 OFFCURVE",
"1377 579 OFFCURVE",
"1377 486 CURVE SMOOTH",
"1377 386 OFFCURVE",
"1298 283 OFFCURVE",
"1188 179 CURVE",
"1215 182 OFFCURVE",
"1247 184 OFFCURVE",
"1272 184 CURVE SMOOTH",
"1401 184 LINE",
"1401 115 LINE",
"1069 115 LINE",
"1069 162 LINE"
);
}
);
width = 2000;
}
);
},
{
glyphname = F_three;
lastChange = "2014-10-26 09:18:26 +0000";
layers = (
{
layerId = "F84F5EB2-94F9-4556-9B6C-C2D485160B3A";
name = Regular;
paths = (
{
closed = 1;
nodes = (
"200 -75 LINE SMOOTH",
"115 -75 OFFCURVE",
"45 -5 OFFCURVE",
"45 80 CURVE SMOOTH",
"45 680 LINE SMOOTH",
"45 765 OFFCURVE",
"115 835 OFFCURVE",
"200 835 CURVE SMOOTH",
"1800 835 LINE SMOOTH",
"1885 835 OFFCURVE",
"1955 765 OFFCURVE",
"1955 680 CURVE SMOOTH",
"1955 80 LINE SMOOTH",
"1955 -5 OFFCURVE",
"1885 -75 OFFCURVE",
"1800 -75 CURVE SMOOTH"
);
},
{
closed = 1;
nodes = (
"131 805 OFFCURVE",
"75 749 OFFCURVE",
"75 680 CURVE SMOOTH",
"75 80 LINE SMOOTH",
"75 11 OFFCURVE",
"131 -45 OFFCURVE",
"200 -45 CURVE SMOOTH",
"1800 -45 LINE SMOOTH",
"1869 -45 OFFCURVE",
"1925 11 OFFCURVE",
"1925 80 CURVE SMOOTH",
"1925 680 LINE SMOOTH",
"1925 749 OFFCURVE",
"1869 805 OFFCURVE",
"1800 805 CURVE SMOOTH",
"200 805 LINE SMOOTH"
);
},
{
closed = 1;
nodes = (
"936 630 LINE",
"936 563 LINE",
"712 563 LINE",
"712 405 LINE",
"903 405 LINE",
"903 337 LINE",
"712 337 LINE",
"712 115 LINE",
"631 115 LINE",
"631 630 LINE"
);
},
{
closed = 1;
nodes = (
"1097 229 LINE",
"1127 198 OFFCURVE",
"1165 172 OFFCURVE",
"1219 172 CURVE SMOOTH",
"1277 172 OFFCURVE",
"1317 204 OFFCURVE",
"1317 257 CURVE SMOOTH",
"1317 315 OFFCURVE",
"1280 352 OFFCURVE",
"1164 352 CURVE",
"1164 411 LINE",
"1265 411 OFFCURVE",
"1299 450 OFFCURVE",
"1299 502 CURVE SMOOTH",
"1299 547 OFFCURVE",
"1269 576 OFFCURVE",
"1220 577 CURVE SMOOTH",
"1180 576 OFFCURVE",
"1146 556 OFFCURVE",
"1117 528 CURVE",
"1075 578 LINE",
"1116 614 OFFCURVE",
"1163 640 OFFCURVE",
"1223 640 CURVE SMOOTH",
"1315 640 OFFCURVE",
"1380 593 OFFCURVE",
"1380 507 CURVE SMOOTH",
"1380 448 OFFCURVE",
"1346 406 OFFCURVE",
"1291 386 CURVE",
"1291 383 LINE",
"1351 368 OFFCURVE",
"1398 323 OFFCURVE",
"1398 254 CURVE SMOOTH",
"1398 161 OFFCURVE",
"1320 106 OFFCURVE",
"1226 106 CURVE SMOOTH",
"1144 106 OFFCURVE",
"1092 138 OFFCURVE",
"1058 177 CURVE"
);
}
);
width = 2000;
}
);
},
{
glyphname = F_four;
lastChange = "2014-10-26 09:19:18 +0000";
layers = (
{
layerId = "F84F5EB2-94F9-4556-9B6C-C2D485160B3A";
name = Regular;
paths = (
{
closed = 1;
nodes = (
"200 -75 LINE SMOOTH",
"115 -75 OFFCURVE",
"45 -5 OFFCURVE",
"45 80 CURVE SMOOTH",
"45 680 LINE SMOOTH",
"45 765 OFFCURVE",
"115 835 OFFCURVE",
"200 835 CURVE SMOOTH",
"1800 835 LINE SMOOTH",
"1885 835 OFFCURVE",
"1955 765 OFFCURVE",
"1955 680 CURVE SMOOTH",
"1955 80 LINE SMOOTH",
"1955 -5 OFFCURVE",
"1885 -75 OFFCURVE",
"1800 -75 CURVE SMOOTH"
);
},
{
closed = 1;
nodes = (
"131 805 OFFCURVE",
"75 749 OFFCURVE",
"75 680 CURVE SMOOTH",
"75 80 LINE SMOOTH",
"75 11 OFFCURVE",
"131 -45 OFFCURVE",
"200 -45 CURVE SMOOTH",
"1800 -45 LINE SMOOTH",
"1869 -45 OFFCURVE",
"1925 11 OFFCURVE",
"1925 80 CURVE SMOOTH",
"1925 680 LINE SMOOTH",
"1925 749 OFFCURVE",
"1869 805 OFFCURVE",
"1800 805 CURVE SMOOTH",
"200 805 LINE SMOOTH"
);
},
{
closed = 1;
nodes = (
"936 630 LINE",
"936 563 LINE",
"712 563 LINE",
"712 405 LINE",
"903 405 LINE",
"903 337 LINE",
"712 337 LINE",
"712 115 LINE",
"631 115 LINE",
"631 630 LINE"
);
},
{
closed = 1;
nodes = (
"1350 254 LINE",
"1350 115 LINE",
"1275 115 LINE",
"1275 254 LINE",
"1052 254 LINE",
"1052 308 LINE",
"1257 630 LINE",
"1350 630 LINE",
"1350 316 LINE",
"1416 316 LINE",
"1416 254 LINE"
);
},
{
closed = 1;
nodes = (
"1275 451 LINE SMOOTH",
"1275 479 OFFCURVE",
"1277 523 OFFCURVE",
"1279 551 CURVE",
"1276 551 LINE",
"1263 525 OFFCURVE",
"1249 498 OFFCURVE",
"1235 472 CURVE",
"1133 316 LINE",
"1275 316 LINE"
);
}
);
width = 2000;
}
);
},
{
glyphname = F_five;
lastChange = "2014-10-26 09:20:18 +0000";
layers = (
{
layerId = "F84F5EB2-94F9-4556-9B6C-C2D485160B3A";
name = Regular;
paths = (
{
closed = 1;
nodes = (
"200 -75 LINE SMOOTH",
"115 -75 OFFCURVE",
"45 -5 OFFCURVE",
"45 80 CURVE SMOOTH",
"45 680 LINE SMOOTH",
"45 765 OFFCURVE",
"115 835 OFFCURVE",
"200 835 CURVE SMOOTH",
"1800 835 LINE SMOOTH",
"1885 835 OFFCURVE",
"1955 765 OFFCURVE",
"1955 680 CURVE SMOOTH",
"1955 80 LINE SMOOTH",
"1955 -5 OFFCURVE",
"1885 -75 OFFCURVE",
"1800 -75 CURVE SMOOTH"
);
},
{
closed = 1;
nodes = (
"131 805 OFFCURVE",
"75 749 OFFCURVE",
"75 680 CURVE SMOOTH",
"75 80 LINE SMOOTH",
"75 11 OFFCURVE",
"131 -45 OFFCURVE",
"200 -45 CURVE SMOOTH",
"1800 -45 LINE SMOOTH",
"1869 -45 OFFCURVE",
"1925 11 OFFCURVE",
"1925 80 CURVE SMOOTH",
"1925 680 LINE SMOOTH",
"1925 749 OFFCURVE",
"1869 805 OFFCURVE",
"1800 805 CURVE SMOOTH",
"200 805 LINE SMOOTH"
);
},
{
closed = 1;
nodes = (
"936 630 LINE",
"936 563 LINE",
"712 563 LINE",
"712 405 LINE",
"903 405 LINE",
"903 337 LINE",
"712 337 LINE",
"712 115 LINE",
"631 115 LINE",
"631 630 LINE"
);
},
{
closed = 1;
nodes = (
"1095 227 LINE",
"1125 198 OFFCURVE",
"1162 172 OFFCURVE",
"1216 172 CURVE SMOOTH",
"1274 172 OFFCURVE",
"1318 213 OFFCURVE",
"1318 282 CURVE SMOOTH",
"1318 350 OFFCURVE",
"1279 390 OFFCURVE",
"1220 390 CURVE SMOOTH",
"1187 390 OFFCURVE",
"1167 380 OFFCURVE",
"1137 360 CURVE",
"1098 386 LINE",
"1114 630 LINE",
"1375 630 LINE",
"1375 563 LINE",
"1184 563 LINE",
"1172 430 LINE",
"1193 441 OFFCURVE",
"1214 448 OFFCURVE",
"1242 448 CURVE SMOOTH",
"1328 448 OFFCURVE",
"1399 397 OFFCURVE",
"1399 285 CURVE SMOOTH",
"1399 171 OFFCURVE",
"1316 106 OFFCURVE",
"1226 106 CURVE SMOOTH",
"1144 106 OFFCURVE",
"1093 139 OFFCURVE",
"1057 175 CURVE"
);
}
);
width = 2000;
}
);
},
{
glyphname = F_six;
lastChange = "2014-10-26 09:21:13 +0000";
layers = (
{
layerId = "F84F5EB2-94F9-4556-9B6C-C2D485160B3A";
name = Regular;
paths = (
{
closed = 1;
nodes = (
"200 -75 LINE SMOOTH",
"115 -75 OFFCURVE",
"45 -5 OFFCURVE",
"45 80 CURVE SMOOTH",
"45 680 LINE SMOOTH",
"45 765 OFFCURVE",
"115 835 OFFCURVE",
"200 835 CURVE SMOOTH",
"1800 835 LINE SMOOTH",
"1885 835 OFFCURVE",
"1955 765 OFFCURVE",
"1955 680 CURVE SMOOTH",
"1955 80 LINE SMOOTH",
"1955 -5 OFFCURVE",
"1885 -75 OFFCURVE",
"1800 -75 CURVE SMOOTH"
);
},
{
closed = 1;
nodes = (
"131 805 OFFCURVE",
"75 749 OFFCURVE",
"75 680 CURVE SMOOTH",
"75 80 LINE SMOOTH",
"75 11 OFFCURVE",
"131 -45 OFFCURVE",
"200 -45 CURVE SMOOTH",
"1800 -45 LINE SMOOTH",
"1869 -45 OFFCURVE",
"1925 11 OFFCURVE",
"1925 80 CURVE SMOOTH",
"1925 680 LINE SMOOTH",
"1925 749 OFFCURVE",
"1869 805 OFFCURVE",
"1800 805 CURVE SMOOTH",
"200 805 LINE SMOOTH"
);
},
{
closed = 1;
nodes = (
"936 630 LINE",
"936 563 LINE",
"712 563 LINE",
"712 405 LINE",
"903 405 LINE",
"903 337 LINE",
"712 337 LINE",
"712 115 LINE",
"631 115 LINE",
"631 630 LINE"
);
},
{
closed = 1;
nodes = (
"1335 558 OFFCURVE",
"1304 574 OFFCURVE",
"1274 574 CURVE SMOOTH",
"1208 574 OFFCURVE",
"1153 525 OFFCURVE",
"1150 378 CURVE",
"1180 415 OFFCURVE",
"1225 437 OFFCURVE",
"1262 437 CURVE SMOOTH",
"1349 437 OFFCURVE",
"1407 384 OFFCURVE",
"1407 275 CURVE SMOOTH",
"1407 173 OFFCURVE",
"1337 106 OFFCURVE",
"1253 106 CURVE SMOOTH",
"1155 106 OFFCURVE",
"1075 188 OFFCURVE",
"1075 363 CURVE SMOOTH",
"1075 561 OFFCURVE",
"1168 640 OFFCURVE",
"1270 640 CURVE SMOOTH",
"1327 640 OFFCURVE",
"1369 616 OFFCURVE",
"1398 585 CURVE",
"1354 536 LINE"
);
},
{
closed = 1;
nodes = (
"1332 341 OFFCURVE",
"1303 378 OFFCURVE",
"1247 378 CURVE SMOOTH",
"1217 378 OFFCURVE",
"1182 362 OFFCURVE",
"1151 318 CURVE",
"1160 216 OFFCURVE",
"1197 168 OFFCURVE",
"1252 168 CURVE SMOOTH",
"1297 168 OFFCURVE",
"1332 208 OFFCURVE",
"1332 275 CURVE SMOOTH"
);
}
);
width = 2000;
}
);
},
{
glyphname = F_seven;
lastChange = "2014-10-26 09:25:10 +0000";
layers = (
{
layerId = "F84F5EB2-94F9-4556-9B6C-C2D485160B3A";
name = Regular;
paths = (
{
closed = 1;
nodes = (
"200 -75 LINE SMOOTH",
"115 -75 OFFCURVE",
"45 -5 OFFCURVE",
"45 80 CURVE SMOOTH",
"45 680 LINE SMOOTH",
"45 766 OFFCURVE",
"115 835 OFFCURVE",
"200 835 CURVE SMOOTH",
"1800 835 LINE SMOOTH",
"1885 835 OFFCURVE",
"1955 766 OFFCURVE",
"1955 680 CURVE SMOOTH",
"1955 80 LINE SMOOTH",
"1955 -5 OFFCURVE",
"1885 -75 OFFCURVE",
"1800 -75 CURVE SMOOTH"
);
},
{
closed = 1;
nodes = (
"131 805 OFFCURVE",
"75 749 OFFCURVE",
"75 680 CURVE SMOOTH",
"75 80 LINE SMOOTH",
"75 11 OFFCURVE",
"131 -45 OFFCURVE",
"200 -45 CURVE SMOOTH",
"1800 -45 LINE SMOOTH",
"1869 -45 OFFCURVE",
"1925 11 OFFCURVE",
"1925 80 CURVE SMOOTH",
"1925 680 LINE SMOOTH",
"1925 749 OFFCURVE",
"1869 805 OFFCURVE",
"1800 805 CURVE SMOOTH",
"200 805 LINE SMOOTH"
);
},
{
closed = 1;
nodes = (
"936 631 LINE",
"936 563 LINE",
"712 563 LINE",
"712 405 LINE",
"903 405 LINE",
"903 337 LINE",
"712 337 LINE",
"712 115 LINE",
"631 115 LINE",
"631 631 LINE"
);
},
{
closed = 1;
nodes = (
"1072 563 LINE",
"1072 631 LINE",
"1404 631 LINE",
"1404 582 LINE",
"1283 430 OFFCURVE",
"1264 317 OFFCURVE",
"1256 115 CURVE",
"1173 115 LINE",
"1182 304 OFFCURVE",
"1215 424 OFFCURVE",
"1314 563 CURVE"
);
}
);
width = 2000;
}
);
},
{
glyphname = F_eight;
lastChange = "2014-10-26 09:25:55 +0000";
layers = (
{
layerId = "F84F5EB2-94F9-4556-9B6C-C2D485160B3A";
name = Regular;
paths = (
{
closed = 1;
nodes = (
"200 -75 LINE SMOOTH",
"115 -75 OFFCURVE",
"45 -5 OFFCURVE",
"45 80 CURVE SMOOTH",
"45 680 LINE SMOOTH",
"45 766 OFFCURVE",
"115 835 OFFCURVE",
"200 835 CURVE SMOOTH",
"1800 835 LINE SMOOTH",
"1885 835 OFFCURVE",
"1955 766 OFFCURVE",
"1955 680 CURVE SMOOTH",
"1955 80 LINE SMOOTH",
"1955 -5 OFFCURVE",
"1885 -75 OFFCURVE",
"1800 -75 CURVE SMOOTH"
);
},
{
closed = 1;
nodes = (
"131 805 OFFCURVE",
"75 749 OFFCURVE",
"75 680 CURVE SMOOTH",
"75 80 LINE SMOOTH",
"75 11 OFFCURVE",
"131 -45 OFFCURVE",
"200 -45 CURVE SMOOTH",
"1800 -45 LINE SMOOTH",
"1869 -45 OFFCURVE",
"1925 11 OFFCURVE",
"1925 80 CURVE SMOOTH",
"1925 680 LINE SMOOTH",
"1925 749 OFFCURVE",
"1869 805 OFFCURVE",
"1800 805 CURVE SMOOTH",
"200 805 LINE SMOOTH"
);
},
{
closed = 1;
nodes = (
"936 631 LINE",
"936 563 LINE",
"712 563 LINE",
"712 405 LINE",
"903 405 LINE",
"903 337 LINE",
"712 337 LINE",
"712 115 LINE",
"631 115 LINE",
"631 631 LINE"
);
},
{
closed = 1;
nodes = (
"1070 311 OFFCURVE",
"1115 357 OFFCURVE",
"1163 382 CURVE",
"1163 386 LINE",
"1124 413 OFFCURVE",
"1093 451 OFFCURVE",
"1093 506 CURVE SMOOTH",
"1093 587 OFFCURVE",
"1156 639 OFFCURVE",
"1240 639 CURVE SMOOTH",
"1330 639 OFFCURVE",
"1386 583 OFFCURVE",
"1386 503 CURVE SMOOTH",
"1386 450 OFFCURVE",
"1350 405 OFFCURVE",
"1318 381 CURVE",
"1318 378 LINE",
"1364 351 OFFCURVE",
"1405 311 OFFCURVE",
"1405 241 CURVE SMOOTH",
"1405 165 OFFCURVE",
"1338 106 OFFCURVE",
"1238 106 CURVE SMOOTH",
"1142 106 OFFCURVE",
"1070 164 OFFCURVE",
"1070 244 CURVE SMOOTH"
);
},
{
closed = 1;
nodes = (
"1328 307 OFFCURVE",
"1272 330 OFFCURVE",
"1202 359 CURVE",
"1166 335 OFFCURVE",
"1142 296 OFFCURVE",
"1142 251 CURVE SMOOTH",
"1142 200 OFFCURVE",
"1184 164 OFFCURVE",
"1240 164 CURVE SMOOTH",
"1292 164 OFFCURVE",
"1328 195 OFFCURVE",
"1328 244 CURVE SMOOTH"
);
},
{
closed = 1;
nodes = (
"1318 545 OFFCURVE",
"1289 581 OFFCURVE",
"1239 581 CURVE SMOOTH",
"1197 581 OFFCURVE",
"1165 552 OFFCURVE",
"1165 506 CURVE SMOOTH",
"1165 450 OFFCURVE",
"1214 424 OFFCURVE",
"1272 402 CURVE",
"1303 430 OFFCURVE",
"1318 463 OFFCURVE",
"1318 498 CURVE SMOOTH"
);
}
);
width = 2000;
}
);
},
{
glyphname = F_nine;
lastChange = "2014-10-26 09:26:41 +0000";
layers = (
{
layerId = "F84F5EB2-94F9-4556-9B6C-C2D485160B3A";
name = Regular;
paths = (
{
closed = 1;
nodes = (
"200 -75 LINE SMOOTH",
"115 -75 OFFCURVE",
"45 -5 OFFCURVE",
"45 80 CURVE SMOOTH",
"45 680 LINE SMOOTH",
"45 766 OFFCURVE",
"115 835 OFFCURVE",
"200 835 CURVE SMOOTH",
"1800 835 LINE SMOOTH",
"1885 835 OFFCURVE",
"1955 766 OFFCURVE",
"1955 680 CURVE SMOOTH",
"1955 80 LINE SMOOTH",
"1955 -5 OFFCURVE",
"1885 -75 OFFCURVE",
"1800 -75 CURVE SMOOTH"
);
},
{
closed = 1;
nodes = (
"131 805 OFFCURVE",
"75 749 OFFCURVE",
"75 680 CURVE SMOOTH",
"75 80 LINE SMOOTH",
"75 11 OFFCURVE",
"131 -45 OFFCURVE",
"200 -45 CURVE SMOOTH",
"1800 -45 LINE SMOOTH",
"1869 -45 OFFCURVE",
"1925 11 OFFCURVE",
"1925 80 CURVE SMOOTH",
"1925 680 LINE SMOOTH",
"1925 749 OFFCURVE",
"1869 805 OFFCURVE",
"1800 805 CURVE SMOOTH",
"200 805 LINE SMOOTH"
);
},
{
closed = 1;
nodes = (
"936 631 LINE",
"936 563 LINE",
"712 563 LINE",
"712 405 LINE",
"903 405 LINE",
"903 337 LINE",
"712 337 LINE",
"712 115 LINE",
"631 115 LINE",
"631 631 LINE"
);
},
{
closed = 1;
nodes = (
"1140 188 OFFCURVE",
"1172 172 OFFCURVE",
"1205 172 CURVE SMOOTH",
"1267 172 OFFCURVE",
"1321 223 OFFCURVE",
"1326 370 CURVE",
"1296 332 OFFCURVE",
"1251 309 OFFCURVE",
"1212 309 CURVE SMOOTH",
"1126 309 OFFCURVE",
"1068 363 OFFCURVE",
"1068 471 CURVE SMOOTH",
"1068 573 OFFCURVE",
"1138 640 OFFCURVE",
"1221 640 CURVE SMOOTH",
"1320 640 OFFCURVE",
"1400 561 OFFCURVE",
"1400 390 CURVE SMOOTH",
"1400 188 OFFCURVE",
"1307 106 OFFCURVE",
"1208 106 CURVE SMOOTH",
"1149 106 OFFCURVE",
"1107 130 OFFCURVE",
"1076 161 CURVE",
"1120 211 LINE"
);
},
{
closed = 1;
nodes = (
"1317 532 OFFCURVE",
"1278 578 OFFCURVE",
"1222 578 CURVE SMOOTH",
"1178 578 OFFCURVE",
"1143 538 OFFCURVE",
"1143 471 CURVE SMOOTH",
"1143 405 OFFCURVE",
"1172 367 OFFCURVE",
"1226 367 CURVE SMOOTH",
"1258 367 OFFCURVE",
"1293 386 OFFCURVE",
"1324 430 CURVE"
);
}
);
width = 2000;
}
);
},
{
glyphname = F_n;
lastChange = "2014-10-25 15:15:25 +0000";
layers = (
{
layerId = "F84F5EB2-94F9-4556-9B6C-C2D485160B3A";
name = Regular;
paths = (
{
closed = 1;
nodes = (
"200 -75 LINE SMOOTH",
"115 -75 OFFCURVE",
"45 -5 OFFCURVE",
"45 80 CURVE SMOOTH",
"45 680 LINE SMOOTH",
"45 766 OFFCURVE",
"115 835 OFFCURVE",
"200 835 CURVE SMOOTH",
"1800 835 LINE SMOOTH",
"1885 835 OFFCURVE",
"1955 766 OFFCURVE",
"1955 680 CURVE SMOOTH",
"1955 80 LINE SMOOTH",
"1955 -5 OFFCURVE",
"1885 -75 OFFCURVE",
"1800 -75 CURVE SMOOTH"
);
},
{
closed = 1;
nodes = (
"131 805 OFFCURVE",
"75 749 OFFCURVE",
"75 680 CURVE SMOOTH",
"75 80 LINE SMOOTH",
"75 11 OFFCURVE",
"131 -45 OFFCURVE",
"200 -45 CURVE SMOOTH",
"1800 -45 LINE SMOOTH",
"1869 -45 OFFCURVE",
"1925 11 OFFCURVE",
"1925 80 CURVE SMOOTH",
"1925 680 LINE SMOOTH",
"1925 749 OFFCURVE",
"1869 805 OFFCURVE",
"1800 805 CURVE SMOOTH",
"200 805 LINE SMOOTH"
);
},
{
closed = 1;
nodes = (
"957 627 LINE",
"957 559 LINE",
"733 559 LINE",
"733 401 LINE",
"923 401 LINE",
"923 333 LINE",
"733 333 LINE",
"733 111 LINE",
"651 111 LINE",
"651 627 LINE"
);
},
{
closed = 1;
nodes = (
"1106 496 LINE",
"1113 443 LINE",
"1115 443 LINE",
"1150 478 OFFCURVE",
"1190 506 OFFCURVE",
"1242 506 CURVE SMOOTH",
"1324 506 OFFCURVE",
"1360 452 OFFCURVE",
"1360 354 CURVE SMOOTH",
"1360 111 LINE",
"1280 111 LINE",
"1280 344 LINE SMOOTH",
"1280 410 OFFCURVE",
"1260 437 OFFCURVE",
"1215 437 CURVE SMOOTH",
"1179 437 OFFCURVE",
"1155 419 OFFCURVE",
"1120 384 CURVE",
"1120 111 LINE",
"1041 111 LINE",
"1041 496 LINE"
);
}
);
width = 2000;
}
);
},
{
glyphname = G_o;
lastChange = "2014-10-30 12:31:55 +0000";
layers = (
{
layerId = "F84F5EB2-94F9-4556-9B6C-C2D485160B3A";
name = Regular;
paths = (
{
closed = 1;
nodes = (
"200 -75 LINE SMOOTH",
"115 -75 OFFCURVE",
"45 -5 OFFCURVE",
"45 80 CURVE SMOOTH",
"45 680 LINE SMOOTH",
"45 765 OFFCURVE",
"115 835 OFFCURVE",
"200 835 CURVE SMOOTH",
"1800 835 LINE SMOOTH",
"1885 835 OFFCURVE",
"1955 765 OFFCURVE",
"1955 680 CURVE SMOOTH",
"1955 80 LINE SMOOTH",
"1955 -5 OFFCURVE",
"1885 -75 OFFCURVE",
"1800 -75 CURVE SMOOTH"
);
},
{
closed = 1;
nodes = (
"131 805 OFFCURVE",
"75 749 OFFCURVE",
"75 680 CURVE SMOOTH",
"75 80 LINE SMOOTH",
"75 11 OFFCURVE",
"131 -45 OFFCURVE",
"200 -45 CURVE SMOOTH",
"1800 -45 LINE SMOOTH",
"1869 -45 OFFCURVE",
"1925 11 OFFCURVE",
"1925 80 CURVE SMOOTH",
"1925 680 LINE SMOOTH",
"1925 749 OFFCURVE",
"1869 805 OFFCURVE",
"1800 805 CURVE SMOOTH",
"200 805 LINE SMOOTH"
);
},
{
closed = 1;
nodes = (
"592 527 OFFCURVE",
"692 625 OFFCURVE",
"825 625 CURVE SMOOTH",
"896 625 OFFCURVE",
"943 594 OFFCURVE",
"974 562 CURVE",
"931 512 LINE",
"907 537 OFFCURVE",
"876 557 OFFCURVE",
"828 557 CURVE SMOOTH",
"734 557 OFFCURVE",
"673 484 OFFCURVE",
"673 367 CURVE SMOOTH",
"673 248 OFFCURVE",
"728 175 OFFCURVE",
"831 175 CURVE SMOOTH",
"862 175 OFFCURVE",
"892 184 OFFCURVE",
"910 200 CURVE",
"910 317 LINE",
"811 317 LINE",
"811 382 LINE",
"981 382 LINE",
"981 165 LINE",
"948 132 OFFCURVE",
"892 106 OFFCURVE",
"823 106 CURVE SMOOTH",
"689 106 OFFCURVE",
"592 200 OFFCURVE",
"592 364 CURVE SMOOTH"
);
},
{
closed = 1;
nodes = (
"1062 427 OFFCURVE",
"1146 499 OFFCURVE",
"1238 499 CURVE SMOOTH",
"1331 499 OFFCURVE",
"1414 427 OFFCURVE",
"1414 302 CURVE SMOOTH",
"1414 178 OFFCURVE",
"1331 106 OFFCURVE",
"1238 106 CURVE SMOOTH",
"1146 106 OFFCURVE",
"1062 178 OFFCURVE",
"1062 302 CURVE SMOOTH"
);
},
{
closed = 1;
nodes = (
"1334 381 OFFCURVE",
"1297 434 OFFCURVE",
"1238 434 CURVE SMOOTH",
"1180 434 OFFCURVE",
"1143 381 OFFCURVE",
"1143 302 CURVE SMOOTH",
"1143 223 OFFCURVE",
"1180 170 OFFCURVE",
"1238 170 CURVE SMOOTH",
"1297 170 OFFCURVE",
"1334 223 OFFCURVE",
"1334 302 CURVE SMOOTH"
);
}
);
width = 2000;
}
);
},
{
glyphname = H_o_m_e;
lastChange = "2014-10-26 15:31:32 +0000";
layers = (
{
layerId = "F84F5EB2-94F9-4556-9B6C-C2D485160B3A";
name = Regular;
paths = (
{
closed = 1;
nodes = (
"200 -75 LINE SMOOTH",
"115 -75 OFFCURVE",
"45 -5 OFFCURVE",
"45 80 CURVE SMOOTH",
"45 680 LINE SMOOTH",
"45 765 OFFCURVE",
"115 835 OFFCURVE",
"200 835 CURVE SMOOTH",
"1800 835 LINE SMOOTH",
"1885 835 OFFCURVE",
"1955 765 OFFCURVE",
"1955 680 CURVE SMOOTH",
"1955 80 LINE SMOOTH",
"1955 -5 OFFCURVE",
"1885 -75 OFFCURVE",
"1800 -75 CURVE SMOOTH"
);
},
{
closed = 1;
nodes = (
"131 805 OFFCURVE",
"75 749 OFFCURVE",
"75 680 CURVE SMOOTH",
"75 80 LINE SMOOTH",
"75 11 OFFCURVE",
"131 -45 OFFCURVE",
"200 -45 CURVE SMOOTH",
"1800 -45 LINE SMOOTH",
"1869 -45 OFFCURVE",
"1925 11 OFFCURVE",
"1925 80 CURVE SMOOTH",
"1925 680 LINE SMOOTH",
"1925 749 OFFCURVE",
"1869 805 OFFCURVE",
"1800 805 CURVE SMOOTH",
"200 805 LINE SMOOTH"
);
},
{
closed = 1;
nodes = (
"298 585 LINE",
"298 405 LINE",
"487 405 LINE",
"487 585 LINE",
"557 585 LINE",
"557 143 LINE",
"487 143 LINE",
"487 344 LINE",
"298 344 LINE",
"298 143 LINE",
"228 143 LINE",
"228 585 LINE"
);
},
{
closed = 1;
nodes = (
"622 418 OFFCURVE",
"696 482 OFFCURVE",
"777 482 CURVE SMOOTH",
"859 482 OFFCURVE",
"933 418 OFFCURVE",
"933 308 CURVE SMOOTH",
"933 198 OFFCURVE",
"859 135 OFFCURVE",
"777 135 CURVE SMOOTH",
"696 135 OFFCURVE",
"622 198 OFFCURVE",
"622 308 CURVE SMOOTH"
);
},
{
closed = 1;
nodes = (
"862 378 OFFCURVE",
"830 425 OFFCURVE",
"777 425 CURVE SMOOTH",
"726 425 OFFCURVE",
"693 378 OFFCURVE",
"693 308 CURVE SMOOTH",
"693 238 OFFCURVE",
"726 192 OFFCURVE",
"777 192 CURVE SMOOTH",
"830 192 OFFCURVE",
"862 238 OFFCURVE",
"862 308 CURVE SMOOTH"
);
},
{
closed = 1;
nodes = (
"1049 473 LINE",
"1055 427 LINE",
"1056 427 LINE",
"1085 457 OFFCURVE",
"1118 482 OFFCURVE",
"1158 482 CURVE SMOOTH",
"1208 482 OFFCURVE",
"1235 459 OFFCURVE",
"1250 421 CURVE",
"1282 456 OFFCURVE",
"1316 482 OFFCURVE",
"1357 482 CURVE SMOOTH",
"1426 482 OFFCURVE",
"1458 435 OFFCURVE",
"1458 351 CURVE SMOOTH",
"1458 143 LINE",
"1389 143 LINE",
"1389 342 LINE SMOOTH",
"1389 399 OFFCURVE",
"1371 422 OFFCURVE",
"1334 422 CURVE SMOOTH",
"1311 422 OFFCURVE",
"1287 407 OFFCURVE",
"1260 377 CURVE",
"1260 143 LINE",
"1191 143 LINE",
"1191 342 LINE SMOOTH",
"1191 399 OFFCURVE",
"1173 422 OFFCURVE",
"1136 422 CURVE SMOOTH",
"1113 422 OFFCURVE",
"1089 407 OFFCURVE",
"1061 377 CURVE",
"1061 143 LINE",
"993 143 LINE",
"993 473 LINE"
);
},
{
closed = 1;
nodes = (
"1520 415 OFFCURVE",
"1593 482 OFFCURVE",
"1670 482 CURVE SMOOTH",
"1758 482 OFFCURVE",
"1805 419 OFFCURVE",
"1805 325 CURVE SMOOTH",
"1805 312 OFFCURVE",
"1803 298 OFFCURVE",
"1802 290 CURVE",
"1587 290 LINE",
"1593 227 OFFCURVE",
"1632 189 OFFCURVE",
"1689 189 CURVE SMOOTH",
"1719 189 OFFCURVE",
"1744 198 OFFCURVE",
"1768 214 CURVE",
"1792 170 LINE",
"1761 150 OFFCURVE",
"1724 135 OFFCURVE",
"1680 135 CURVE SMOOTH",
"1591 135 OFFCURVE",
"1520 199 OFFCURVE",
"1520 308 CURVE SMOOTH"
);
},
{
closed = 1;
nodes = (
"1745 395 OFFCURVE",
"1719 428 OFFCURVE",
"1671 428 CURVE SMOOTH",
"1630 428 OFFCURVE",
"1593 396 OFFCURVE",
"1587 338 CURVE",
"1745 338 LINE"
);
}
);
width = 2000;
}
);
},
{
glyphname = I_n_s;
lastChange = "2014-10-27 06:45:43 +0000";
layers = (
{
layerId = "F84F5EB2-94F9-4556-9B6C-C2D485160B3A";
name = Regular;
paths = (
{
closed = 1;
nodes = (
"200 -75 LINE SMOOTH",
"115 -75 OFFCURVE",
"45 -5 OFFCURVE",
"45 80 CURVE SMOOTH",
"45 680 LINE SMOOTH",
"45 766 OFFCURVE",
"115 835 OFFCURVE",
"200 835 CURVE SMOOTH",
"1800 835 LINE SMOOTH",
"1885 835 OFFCURVE",
"1955 766 OFFCURVE",
"1955 680 CURVE SMOOTH",
"1955 80 LINE SMOOTH",
"1955 -5 OFFCURVE",
"1885 -75 OFFCURVE",
"1800 -75 CURVE SMOOTH"
);
},
{
closed = 1;
nodes = (
"131 805 OFFCURVE",
"75 749 OFFCURVE",
"75 680 CURVE SMOOTH",
"75 80 LINE SMOOTH",
"75 11 OFFCURVE",
"131 -45 OFFCURVE",
"200 -45 CURVE SMOOTH",
"1800 -45 LINE SMOOTH",
"1869 -45 OFFCURVE",
"1925 11 OFFCURVE",
"1925 80 CURVE SMOOTH",
"1925 680 LINE SMOOTH",
"1925 749 OFFCURVE",
"1869 805 OFFCURVE",
"1800 805 CURVE SMOOTH",
"200 805 LINE SMOOTH"
);
},
{
closed = 1;
nodes = (
"664 616 LINE",
"664 115 LINE",
"586 115 LINE",
"586 616 LINE"
);
},
{
closed = 1;
nodes = (
"853 489 LINE",
"859 438 LINE",
"861 438 LINE",
"896 471 OFFCURVE",
"934 499 OFFCURVE",
"985 499 CURVE SMOOTH",
"1064 499 OFFCURVE",
"1100 446 OFFCURVE",
"1100 351 CURVE SMOOTH",
"1100 115 LINE",
"1021 115 LINE",
"1021 341 LINE SMOOTH",
"1021 406 OFFCURVE",
"1002 431 OFFCURVE",
"958 431 CURVE SMOOTH",
"923 431 OFFCURVE",
"900 414 OFFCURVE",
"866 380 CURVE",
"866 115 LINE",
"789 115 LINE",
"789 489 LINE"
);
},
{
closed = 1;
nodes = (
"1210 208 LINE",
"1244 182 OFFCURVE",
"1276 166 OFFCURVE",
"1317 166 CURVE SMOOTH",
"1361 166 OFFCURVE",
"1382 187 OFFCURVE",
"1382 216 CURVE SMOOTH",
"1382 250 OFFCURVE",
"1340 265 OFFCURVE",
"1300 281 CURVE SMOOTH",
"1250 300 OFFCURVE",
"1193 326 OFFCURVE",
"1193 389 CURVE SMOOTH",
"1193 452 OFFCURVE",
"1243 499 OFFCURVE",
"1325 499 CURVE SMOOTH",
"1376 499 OFFCURVE",
"1416 478 OFFCURVE",
"1447 455 CURVE",
"1410 406 LINE",
"1385 425 OFFCURVE",
"1358 439 OFFCURVE",
"1327 439 CURVE SMOOTH",
"1286 439 OFFCURVE",
"1267 419 OFFCURVE",
"1267 393 CURVE SMOOTH",
"1267 361 OFFCURVE",
"1306 349 OFFCURVE",
"1346 334 CURVE SMOOTH",
"1399 314 OFFCURVE",
"1457 291 OFFCURVE",
"1457 220 CURVE SMOOTH",
"1457 157 OFFCURVE",
"1407 106 OFFCURVE",
"1314 106 CURVE SMOOTH",
"1263 106 OFFCURVE",
"1210 128 OFFCURVE",
"1174 158 CURVE"
);
}
);
width = 2000;
}
);
},
{
glyphname = I_n_s_e_r_t;
lastChange = "2014-10-26 15:30:36 +0000";
layers = (
{
layerId = "F84F5EB2-94F9-4556-9B6C-C2D485160B3A";
name = Regular;
paths = (
{
closed = 1;
nodes = (
"200 -75 LINE SMOOTH",
"115 -75 OFFCURVE",
"45 -5 OFFCURVE",
"45 80 CURVE SMOOTH",
"45 680 LINE SMOOTH",
"45 765 OFFCURVE",
"115 835 OFFCURVE",
"200 835 CURVE SMOOTH",
"2800 835 LINE SMOOTH",
"2885 835 OFFCURVE",
"2955 765 OFFCURVE",
"2955 680 CURVE SMOOTH",
"2955 80 LINE SMOOTH",
"2955 -5 OFFCURVE",
"2885 -75 OFFCURVE",
"2800 -75 CURVE SMOOTH"
);
},
{
closed = 1;
nodes = (
"131 805 OFFCURVE",
"75 749 OFFCURVE",
"75 680 CURVE SMOOTH",
"75 80 LINE SMOOTH",
"75 11 OFFCURVE",
"131 -45 OFFCURVE",
"200 -45 CURVE SMOOTH",
"2800 -45 LINE SMOOTH",
"2869 -45 OFFCURVE",
"2925 11 OFFCURVE",
"2925 80 CURVE SMOOTH",
"2925 680 LINE SMOOTH",
"2925 749 OFFCURVE",
"2869 805 OFFCURVE",
"2800 805 CURVE SMOOTH",
"200 805 LINE SMOOTH"
);
},
{
closed = 1;
nodes = (
"677 620 LINE",
"677 119 LINE",
"598 119 LINE",
"598 620 LINE"
);
},
{
closed = 1;
nodes = (
"865 493 LINE",
"871 442 LINE",
"873 442 LINE",
"908 475 OFFCURVE",
"946 503 OFFCURVE",
"997 503 CURVE SMOOTH",
"1077 503 OFFCURVE",
"1112 450 OFFCURVE",
"1112 355 CURVE SMOOTH",
"1112 119 LINE",
"1034 119 LINE",
"1034 345 LINE SMOOTH",
"1034 410 OFFCURVE",
"1015 435 OFFCURVE",
"971 435 CURVE SMOOTH",
"936 435 OFFCURVE",
"912 418 OFFCURVE",
"879 384 CURVE",
"879 119 LINE",
"801 119 LINE",
"801 493 LINE"
);
},
{
closed = 1;
nodes = (
"1223 212 LINE",
"1256 186 OFFCURVE",
"1289 170 OFFCURVE",
"1329 170 CURVE SMOOTH",
"1374 170 OFFCURVE",
"1395 191 OFFCURVE",
"1395 220 CURVE SMOOTH",
"1395 254 OFFCURVE",
"1353 269 OFFCURVE",
"1312 284 CURVE SMOOTH",
"1262 304 OFFCURVE",
"1205 330 OFFCURVE",
"1205 393 CURVE SMOOTH",
"1205 456 OFFCURVE",
"1256 503 OFFCURVE",
"1338 503 CURVE SMOOTH",
"1388 503 OFFCURVE",
"1429 482 OFFCURVE",
"1459 459 CURVE",
"1423 410 LINE",
"1397 429 OFFCURVE",
"1370 443 OFFCURVE",
"1339 443 CURVE SMOOTH",
"1298 443 OFFCURVE",
"1279 423 OFFCURVE",
"1279 397 CURVE SMOOTH",
"1279 365 OFFCURVE",
"1318 352 OFFCURVE",
"1359 338 CURVE SMOOTH",
"1411 318 OFFCURVE",
"1469 295 OFFCURVE",
"1469 224 CURVE SMOOTH",
"1469 161 OFFCURVE",
"1419 110 OFFCURVE",
"1327 110 CURVE SMOOTH",
"1275 110 OFFCURVE",
"1222 132 OFFCURVE",
"1186 162 CURVE"
);
},
{
closed = 1;
nodes = (
"1525 427 OFFCURVE",
"1608 503 OFFCURVE",
"1696 503 CURVE SMOOTH",
"1795 503 OFFCURVE",
"1848 431 OFFCURVE",
"1848 325 CURVE SMOOTH",
"1848 310 OFFCURVE",
"1847 295 OFFCURVE",
"1845 286 CURVE",
"1602 286 LINE",
"1608 214 OFFCURVE",
"1653 172 OFFCURVE",
"1718 172 CURVE SMOOTH",
"1751 172 OFFCURVE",
"1780 182 OFFCURVE",
"1807 199 CURVE",
"1834 150 LINE",
"1799 127 OFFCURVE",
"1757 110 OFFCURVE",
"1708 110 CURVE SMOOTH",
"1606 110 OFFCURVE",
"1525 182 OFFCURVE",
"1525 306 CURVE SMOOTH"
);
},
{
closed = 1;
nodes = (
"1781 404 OFFCURVE",
"1752 442 OFFCURVE",
"1697 442 CURVE SMOOTH",
"1651 442 OFFCURVE",
"1609 406 OFFCURVE",
"1602 340 CURVE",
"1781 340 LINE"
);
},
{
closed = 1;
nodes = (
"2000 493 LINE",
"2006 426 LINE",
"2008 426 LINE",
"2035 474 OFFCURVE",
"2074 503 OFFCURVE",
"2114 503 CURVE SMOOTH",
"2133 503 OFFCURVE",
"2145 500 OFFCURVE",
"2156 495 CURVE",
"2142 427 LINE",
"2129 431 OFFCURVE",
"2120 433 OFFCURVE",
"2105 433 CURVE SMOOTH",
"2074 433 OFFCURVE",
"2037 412 OFFCURVE",
"2014 352 CURVE",
"2014 119 LINE",
"1936 119 LINE",
"1936 493 LINE"
);
},
{
closed = 1;
nodes = (
"2240 431 LINE",
"2186 431 LINE",
"2186 489 LINE",
"2244 493 LINE",
"2252 597 LINE",
"2318 597 LINE",
"2318 493 LINE",
"2416 493 LINE",
"2416 431 LINE",
"2318 431 LINE",
"2318 241 LINE SMOOTH",
"2318 196 OFFCURVE",
"2334 173 OFFCURVE",
"2373 173 CURVE SMOOTH",
"2386 173 OFFCURVE",
"2402 177 OFFCURVE",
"2413 182 CURVE",
"2427 124 LINE",
"2406 117 OFFCURVE",
"2381 110 OFFCURVE",
"2354 110 CURVE SMOOTH",
"2269 110 OFFCURVE",
"2240 163 OFFCURVE",
"2240 242 CURVE SMOOTH"
);
}
);
width = 3000;
}
);
},
{
glyphname = N_u_m_L_o_c_k;
lastChange = "2014-10-27 06:52:31 +0000";
layers = (
{
layerId = "F84F5EB2-94F9-4556-9B6C-C2D485160B3A";
name = Regular;
paths = (
{
closed = 1;
nodes = (
"200 -75 LINE SMOOTH",
"115 -75 OFFCURVE",
"45 -5 OFFCURVE",
"45 80 CURVE SMOOTH",
"45 680 LINE SMOOTH",
"45 765 OFFCURVE",
"115 835 OFFCURVE",
"200 835 CURVE SMOOTH",
"1800 835 LINE SMOOTH",
"1885 835 OFFCURVE",
"1955 765 OFFCURVE",
"1955 680 CURVE SMOOTH",
"1955 80 LINE SMOOTH",
"1955 -5 OFFCURVE",
"1885 -75 OFFCURVE",
"1800 -75 CURVE SMOOTH"
);
},
{
closed = 1;
nodes = (
"131 805 OFFCURVE",
"75 749 OFFCURVE",
"75 680 CURVE SMOOTH",
"75 80 LINE SMOOTH",
"75 11 OFFCURVE",
"131 -45 OFFCURVE",
"200 -45 CURVE SMOOTH",
"1800 -45 LINE SMOOTH",
"1869 -45 OFFCURVE",
"1925 11 OFFCURVE",
"1925 80 CURVE SMOOTH",
"1925 680 LINE SMOOTH",
"1925 749 OFFCURVE",
"1869 805 OFFCURVE",
"1800 805 CURVE SMOOTH",
"200 805 LINE SMOOTH"
);
},
{
closed = 1;
nodes = (
"572 728 LINE",
"675 557 LINE",
"711 488 LINE",
"713 488 LINE",
"709 522 OFFCURVE",
"704 564 OFFCURVE",
"704 600 CURVE SMOOTH",
"704 728 LINE",
"771 728 LINE",
"771 408 LINE",
"699 408 LINE",
"597 579 LINE",
"561 648 LINE",
"558 648 LINE",
"562 613 OFFCURVE",
"567 573 OFFCURVE",
"567 536 CURVE SMOOTH",
"567 408 LINE",
"500 408 LINE",
"500 728 LINE"
);
},
{
closed = 1;
nodes = (
"831 650 LINE",
"902 650 LINE",
"902 507 LINE SMOOTH",
"902 469 OFFCURVE",
"913 456 OFFCURVE",
"939 456 CURVE SMOOTH",
"961 456 OFFCURVE",
"976 465 OFFCURVE",
"994 487 CURVE",
"994 650 LINE",
"1065 650 LINE",
"1065 408 LINE",
"1007 408 LINE",
"1002 443 LINE",
"1000 443 LINE",
"977 418 OFFCURVE",
"951 402 OFFCURVE",
"914 402 CURVE SMOOTH",
"856 402 OFFCURVE",
"831 438 OFFCURVE",
"831 499 CURVE SMOOTH"
);
},
{
closed = 1;
nodes = (
"1188 650 LINE",
"1193 617 LINE",
"1195 617 LINE",
"1217 639 OFFCURVE",
"1242 656 OFFCURVE",
"1277 656 CURVE SMOOTH",
"1316 656 OFFCURVE",
"1338 640 OFFCURVE",
"1351 614 CURVE",
"1376 637 OFFCURVE",
"1402 656 OFFCURVE",
"1437 656 CURVE SMOOTH",
"1494 656 OFFCURVE",
"1520 620 OFFCURVE",
"1520 559 CURVE SMOOTH",
"1520 408 LINE",
"1450 408 LINE",
"1450 551 LINE SMOOTH",
"1450 588 OFFCURVE",
"1438 602 OFFCURVE",
"1412 602 CURVE SMOOTH",
"1397 602 OFFCURVE",
"1379 592 OFFCURVE",
"1360 574 CURVE",
"1360 408 LINE",
"1290 408 LINE",
"1290 551 LINE SMOOTH",
"1290 588 OFFCURVE",
"1278 602 OFFCURVE",
"1252 602 CURVE SMOOTH",
"1237 602 OFFCURVE",
"1220 592 OFFCURVE",
"1200 574 CURVE",
"1200 408 LINE",
"1130 408 LINE",
"1130 650 LINE"
);
},
{
closed = 1;
nodes = (
"571 348 LINE",
"571 82 LINE",
"715 82 LINE",
"715 28 LINE",
"500 28 LINE",
"500 348 LINE"
);
},
{
closed = 1;
nodes = (
"744 229 OFFCURVE",
"806 276 OFFCURVE",
"874 276 CURVE SMOOTH",
"941 276 OFFCURVE",
"1003 229 OFFCURVE",
"1003 149 CURVE SMOOTH",
"1003 69 OFFCURVE",
"941 22 OFFCURVE",
"874 22 CURVE SMOOTH",
"806 22 OFFCURVE",
"744 69 OFFCURVE",
"744 149 CURVE SMOOTH"
);
},
{
closed = 1;
nodes = (
"931 194 OFFCURVE",
"910 224 OFFCURVE",
"874 224 CURVE SMOOTH",
"837 224 OFFCURVE",
"816 194 OFFCURVE",
"816 149 CURVE SMOOTH",
"816 103 OFFCURVE",
"837 74 OFFCURVE",
"874 74 CURVE SMOOTH",
"910 74 OFFCURVE",
"931 103 OFFCURVE",
"931 149 CURVE SMOOTH"
);
},
{
closed = 1;
nodes = (
"1040 229 OFFCURVE",
"1104 276 OFFCURVE",
"1177 276 CURVE SMOOTH",
"1211 276 OFFCURVE",
"1236 264 OFFCURVE",
"1256 249 CURVE",
"1222 208 LINE",
"1209 218 OFFCURVE",
"1196 224 OFFCURVE",
"1181 224 CURVE SMOOTH",
"1140 224 OFFCURVE",
"1112 194 OFFCURVE",
"1112 149 CURVE SMOOTH",
"1112 103 OFFCURVE",
"1140 74 OFFCURVE",
"1179 74 CURVE SMOOTH",
"1198 74 OFFCURVE",
"1216 82 OFFCURVE",
"1231 93 CURVE",
"1259 51 LINE",
"1234 31 OFFCURVE",
"1201 22 OFFCURVE",
"1171 22 CURVE SMOOTH",
"1097 22 OFFCURVE",
"1040 69 OFFCURVE",
"1040 149 CURVE SMOOTH"
);
},
{
closed = 1;
nodes = (
"1374 373 LINE",
"1374 165 LINE",
"1376 165 LINE",
"1469 270 LINE",
"1546 270 LINE",
"1452 171 LINE",
"1554 28 LINE",
"1478 28 LINE",
"1413 128 LINE",
"1374 88 LINE",
"1374 28 LINE",
"1305 28 LINE",
"1305 373 LINE"
);
}
);
width = 2000;
}
);
},
{
glyphname = O_p_t_i_o_n;
lastChange = "2014-10-27 06:37:25 +0000";
layers = (
{
layerId = "F84F5EB2-94F9-4556-9B6C-C2D485160B3A";
name = Regular;
paths = (
{
closed = 1;
nodes = (
"200 -75 LINE SMOOTH",
"115 -75 OFFCURVE",
"45 -5 OFFCURVE",
"45 80 CURVE SMOOTH",
"45 680 LINE SMOOTH",
"45 765 OFFCURVE",
"115 835 OFFCURVE",
"200 835 CURVE SMOOTH",
"2800 835 LINE SMOOTH",
"2885 835 OFFCURVE",
"2955 765 OFFCURVE",
"2955 680 CURVE SMOOTH",
"2955 80 LINE SMOOTH",
"2955 -5 OFFCURVE",
"2885 -75 OFFCURVE",
"2800 -75 CURVE SMOOTH"
);
},
{
closed = 1;
nodes = (
"131 805 OFFCURVE",
"75 749 OFFCURVE",
"75 680 CURVE SMOOTH",
"75 80 LINE SMOOTH",
"75 11 OFFCURVE",
"131 -45 OFFCURVE",
"200 -45 CURVE SMOOTH",
"2800 -45 LINE SMOOTH",
"2869 -45 OFFCURVE",
"2925 11 OFFCURVE",
"2925 80 CURVE SMOOTH",
"2925 680 LINE SMOOTH",
"2925 749 OFFCURVE",
"2869 805 OFFCURVE",
"2800 805 CURVE SMOOTH",
"200 805 LINE SMOOTH"
);
},
{
closed = 1;
nodes = (
"431 549 OFFCURVE",
"520 645 OFFCURVE",
"648 645 CURVE SMOOTH",
"777 645 OFFCURVE",
"867 549 OFFCURVE",
"867 388 CURVE SMOOTH",
"867 226 OFFCURVE",
"777 126 OFFCURVE",
"648 126 CURVE SMOOTH",
"520 126 OFFCURVE",
"431 226 OFFCURVE",
"431 388 CURVE SMOOTH"
);
},
{
closed = 1;
nodes = (
"786 505 OFFCURVE",
"731 577 OFFCURVE",
"648 577 CURVE SMOOTH",
"565 577 OFFCURVE",
"512 505 OFFCURVE",
"512 388 CURVE SMOOTH",
"512 270 OFFCURVE",
"565 195 OFFCURVE",
"648 195 CURVE SMOOTH",
"731 195 OFFCURVE",
"786 270 OFFCURVE",
"786 388 CURVE SMOOTH"
);
},
{
closed = 1;
nodes = (
"1000 509 LINE",
"1007 468 LINE",
"1009 468 LINE",
"1041 496 OFFCURVE",
"1082 519 OFFCURVE",
"1124 519 CURVE SMOOTH",
"1219 519 OFFCURVE",
"1272 443 OFFCURVE",
"1272 328 CURVE SMOOTH",
"1272 200 OFFCURVE",
"1195 126 OFFCURVE",
"1111 126 CURVE SMOOTH",
"1077 126 OFFCURVE",
"1044 141 OFFCURVE",
"1012 169 CURVE",
"1014 105 LINE",
"1014 -16 LINE",
"937 -16 LINE",
"937 509 LINE"
);
},
{
closed = 1;
nodes = (
"1191 405 OFFCURVE",
"1166 453 OFFCURVE",
"1103 453 CURVE SMOOTH",
"1074 453 OFFCURVE",
"1046 439 OFFCURVE",
"1014 408 CURVE",
"1014 225 LINE",
"1043 200 OFFCURVE",
"1073 191 OFFCURVE",
"1096 191 CURVE SMOOTH",
"1150 191 OFFCURVE",
"1191 239 OFFCURVE",
"1191 327 CURVE SMOOTH"
);
},
{
closed = 1;
nodes = (
"1377 447 LINE",
"1323 447 LINE",
"1323 505 LINE",
"1381 509 LINE",
"1389 613 LINE",
"1455 613 LINE",
"1455 509 LINE",
"1553 509 LINE",
"1553 447 LINE",
"1455 447 LINE",
"1455 257 LINE SMOOTH",
"1455 212 OFFCURVE",
"1471 189 OFFCURVE",
"1510 189 CURVE SMOOTH",
"1523 189 OFFCURVE",
"1539 193 OFFCURVE",
"1550 198 CURVE",
"1564 140 LINE",
"1543 133 OFFCURVE",
"1518 126 OFFCURVE",
"1491 126 CURVE SMOOTH",
"1406 126 OFFCURVE",
"1377 179 OFFCURVE",
"1377 258 CURVE SMOOTH"
);
},
{
closed = 1;
nodes = (
"1630 653 OFFCURVE",
"1651 672 OFFCURVE",
"1680 672 CURVE SMOOTH",
"1708 672 OFFCURVE",
"1730 653 OFFCURVE",
"1730 626 CURVE SMOOTH",
"1730 598 OFFCURVE",
"1708 579 OFFCURVE",
"1680 579 CURVE SMOOTH",
"1651 579 OFFCURVE",
"1630 598 OFFCURVE",
"1630 626 CURVE SMOOTH"
);
},
{
closed = 1;
nodes = (
"1719 509 LINE",
"1719 135 LINE",
"1641 135 LINE",
"1641 509 LINE"
);
},
{
closed = 1;
nodes = (
"1789 447 OFFCURVE",
"1873 519 OFFCURVE",
"1965 519 CURVE SMOOTH",
"2058 519 OFFCURVE",
"2142 447 OFFCURVE",
"2142 322 CURVE SMOOTH",
"2142 198 OFFCURVE",
"2058 126 OFFCURVE",
"1965 126 CURVE SMOOTH",
"1873 126 OFFCURVE",
"1789 198 OFFCURVE",
"1789 322 CURVE SMOOTH"
);
},
{
closed = 1;
nodes = (
"2061 401 OFFCURVE",
"2025 454 OFFCURVE",
"1965 454 CURVE SMOOTH",
"1907 454 OFFCURVE",
"1870 401 OFFCURVE",
"1870 322 CURVE SMOOTH",
"1870 243 OFFCURVE",
"1907 190 OFFCURVE",
"1965 190 CURVE SMOOTH",
"2025 190 OFFCURVE",
"2061 243 OFFCURVE",
"2061 322 CURVE SMOOTH"
);
},
{
closed = 1;
nodes = (
"2277 509 LINE",
"2283 458 LINE",
"2285 458 LINE",
"2320 491 OFFCURVE",
"2358 519 OFFCURVE",
"2409 519 CURVE SMOOTH",
"2488 519 OFFCURVE",
"2524 466 OFFCURVE",
"2524 371 CURVE SMOOTH",
"2524 135 LINE",
"2445 135 LINE",
"2445 361 LINE SMOOTH",
"2445 426 OFFCURVE",
"2426 451 OFFCURVE",
"2382 451 CURVE SMOOTH",
"2348 451 OFFCURVE",
"2324 434 OFFCURVE",
"2290 400 CURVE",
"2290 135 LINE",
"2213 135 LINE",
"2213 509 LINE"
);
}
);
width = 3000;
}
);
},
{
glyphname = P_O_W_E_R;
lastChange = "2014-10-26 09:36:02 +0000";
layers = (
{
layerId = "F84F5EB2-94F9-4556-9B6C-C2D485160B3A";
name = Regular;
paths = (
{
closed = 1;
nodes = (
"200 -75 LINE SMOOTH",
"115 -75 OFFCURVE",
"45 -5 OFFCURVE",
"45 80 CURVE SMOOTH",
"45 680 LINE SMOOTH",
"45 765 OFFCURVE",
"115 835 OFFCURVE",
"200 835 CURVE SMOOTH",
"1800 835 LINE SMOOTH",
"1885 835 OFFCURVE",
"1955 765 OFFCURVE",
"1955 680 CURVE SMOOTH",
"1955 80 LINE SMOOTH",
"1955 -5 OFFCURVE",
"1885 -75 OFFCURVE",
"1800 -75 CURVE SMOOTH"
);
},
{
closed = 1;
nodes = (
"131 805 OFFCURVE",
"75 749 OFFCURVE",
"75 680 CURVE SMOOTH",
"75 80 LINE SMOOTH",
"75 11 OFFCURVE",
"131 -45 OFFCURVE",
"200 -45 CURVE SMOOTH",
"1800 -45 LINE SMOOTH",
"1869 -45 OFFCURVE",
"1925 11 OFFCURVE",
"1925 80 CURVE SMOOTH",
"1925 680 LINE SMOOTH",
"1925 749 OFFCURVE",
"1869 805 OFFCURVE",
"1800 805 CURVE SMOOTH",
"200 805 LINE SMOOTH"
);
},
{
closed = 1;
nodes = (
"829 44 OFFCURVE",
"690 183 OFFCURVE",
"690 354 CURVE SMOOTH",
"690 454 OFFCURVE",
"739 549 OFFCURVE",
"822 607 CURVE",
"880 525 LINE",
"824 486 OFFCURVE",
"790 422 OFFCURVE",
"790 354 CURVE SMOOTH",
"790 238 OFFCURVE",
"884 144 OFFCURVE",
"1000 144 CURVE SMOOTH",
"1116 144 OFFCURVE",
"1210 238 OFFCURVE",
"1210 354 CURVE SMOOTH",
"1210 422 OFFCURVE",
"1176 486 OFFCURVE",
"1120 525 CURVE",
"1178 607 LINE",
"1261 549 OFFCURVE",
"1310 454 OFFCURVE",
"1310 354 CURVE SMOOTH",
"1310 183 OFFCURVE",
"1171 44 OFFCURVE",
"1000 44 CURVE SMOOTH"
);
},
{
closed = 1;
nodes = (
"950 338 LINE",
"950 725 LINE",
"1050 725 LINE",
"1050 338 LINE"
);
}
);
width = 2000;
}
);
},
{
glyphname = P_a_g_e_D_o_w_n;
lastChange = "2014-10-27 07:00:32 +0000";
layers = (
{
layerId = "F84F5EB2-94F9-4556-9B6C-C2D485160B3A";
name = Regular;
paths = (
{
closed = 1;
nodes = (
"200 -75 LINE SMOOTH",
"115 -75 OFFCURVE",
"45 -5 OFFCURVE",
"45 80 CURVE SMOOTH",
"45 680 LINE SMOOTH",
"45 765 OFFCURVE",
"115 835 OFFCURVE",
"200 835 CURVE SMOOTH",
"1800 835 LINE SMOOTH",
"1885 835 OFFCURVE",
"1955 765 OFFCURVE",
"1955 680 CURVE SMOOTH",
"1955 80 LINE SMOOTH",
"1955 -5 OFFCURVE",
"1885 -75 OFFCURVE",
"1800 -75 CURVE SMOOTH"
);
},
{
closed = 1;
nodes = (
"131 805 OFFCURVE",
"75 749 OFFCURVE",
"75 680 CURVE SMOOTH",
"75 80 LINE SMOOTH",
"75 11 OFFCURVE",
"131 -45 OFFCURVE",
"200 -45 CURVE SMOOTH",
"1800 -45 LINE SMOOTH",
"1869 -45 OFFCURVE",
"1925 11 OFFCURVE",
"1925 80 CURVE SMOOTH",
"1925 680 LINE SMOOTH",
"1925 749 OFFCURVE",
"1869 805 OFFCURVE",
"1800 805 CURVE SMOOTH",
"200 805 LINE SMOOTH"
);
},
{
closed = 1;
nodes = (
"517 736 LINE SMOOTH",
"595 736 OFFCURVE",
"656 712 OFFCURVE",
"656 636 CURVE SMOOTH",
"656 563 OFFCURVE",
"595 530 OFFCURVE",
"519 530 CURVE SMOOTH",
"471 530 LINE",
"471 417 LINE",
"400 417 LINE",
"400 736 LINE"
);
},
{
closed = 1;
nodes = (
"563 581 OFFCURVE",
"586 599 OFFCURVE",
"586 636 CURVE SMOOTH",
"586 673 OFFCURVE",
"560 686 OFFCURVE",
"511 686 CURVE SMOOTH",
"471 686 LINE",
"471 581 LINE",
"514 581 LINE SMOOTH"
);
},
{
closed = 1;
nodes = (
"687 534 OFFCURVE",
"733 561 OFFCURVE",
"841 572 CURVE",
"840 595 OFFCURVE",
"829 614 OFFCURVE",
"796 614 CURVE SMOOTH",
"771 614 OFFCURVE",
"747 604 OFFCURVE",
"722 591 CURVE",
"696 633 LINE",
"728 650 OFFCURVE",
"766 665 OFFCURVE",
"809 665 CURVE SMOOTH",
"877 665 OFFCURVE",
"912 628 OFFCURVE",
"912 558 CURVE SMOOTH",
"912 417 LINE",
"854 417 LINE",
"849 442 LINE",
"847 442 LINE",
"824 424 OFFCURVE",
"797 411 OFFCURVE",
"766 411 CURVE SMOOTH",
"718 411 OFFCURVE",
"687 441 OFFCURVE",
"687 482 CURVE SMOOTH"
);
},
{
closed = 1;
nodes = (
"841 533 LINE",
"776 525 OFFCURVE",
"754 509 OFFCURVE",
"754 487 CURVE SMOOTH",
"754 468 OFFCURVE",
"769 460 OFFCURVE",
"789 460 CURVE SMOOTH",
"810 460 OFFCURVE",
"824 469 OFFCURVE",
"841 484 CURVE"
);
},
{
closed = 1;
nodes = (
"961 394 OFFCURVE",
"975 411 OFFCURVE",
"1000 424 CURVE",
"1000 426 LINE",
"986 434 OFFCURVE",
"975 447 OFFCURVE",
"975 467 CURVE SMOOTH",
"975 485 OFFCURVE",
"989 502 OFFCURVE",
"1005 512 CURVE",
"1005 514 LINE",
"987 526 OFFCURVE",
"969 549 OFFCURVE",
"969 577 CURVE SMOOTH",
"969 634 OFFCURVE",
"1021 665 OFFCURVE",
"1078 665 CURVE SMOOTH",
"1093 665 OFFCURVE",
"1107 662 OFFCURVE",
"1118 658 CURVE",
"1215 658 LINE",
"1215 612 LINE",
"1169 612 LINE",
"1176 604 OFFCURVE",
"1181 590 OFFCURVE",
"1181 575 CURVE SMOOTH",
"1181 521 OFFCURVE",
"1135 493 OFFCURVE",
"1078 493 CURVE SMOOTH",
"1067 493 OFFCURVE",
"1055 495 OFFCURVE",
"1043 499 CURVE",
"1036 493 OFFCURVE",
"1032 487 OFFCURVE",
"1032 478 CURVE SMOOTH",
"1032 465 OFFCURVE",
"1042 458 OFFCURVE",
"1074 458 CURVE SMOOTH",
"1120 458 LINE SMOOTH",
"1184 458 OFFCURVE",
"1219 440 OFFCURVE",
"1219 398 CURVE SMOOTH",
"1219 349 OFFCURVE",
"1163 312 OFFCURVE",
"1073 312 CURVE SMOOTH",
"1010 312 OFFCURVE",
"961 331 OFFCURVE",
"961 374 CURVE SMOOTH"
);
},
{
closed = 1;
nodes = (
"1152 404 OFFCURVE",
"1136 408 OFFCURVE",
"1108 408 CURVE SMOOTH",
"1075 408 LINE SMOOTH",
"1059 408 OFFCURVE",
"1047 410 OFFCURVE",
"1038 412 CURVE",
"1026 403 OFFCURVE",
"1020 394 OFFCURVE",
"1020 384 CURVE SMOOTH",
"1020 363 OFFCURVE",
"1045 352 OFFCURVE",
"1084 352 CURVE SMOOTH",
"1124 352 OFFCURVE",
"1152 368 OFFCURVE",
"1152 387 CURVE SMOOTH"
);
},
{
closed = 1;
nodes = (
"1120 605 OFFCURVE",
"1102 621 OFFCURVE",
"1078 621 CURVE SMOOTH",
"1054 621 OFFCURVE",
"1036 605 OFFCURVE",
"1036 577 CURVE SMOOTH",
"1036 548 OFFCURVE",
"1054 532 OFFCURVE",
"1078 532 CURVE SMOOTH",
"1101 532 OFFCURVE",
"1120 548 OFFCURVE",
"1120 577 CURVE SMOOTH"
);
},
{
closed = 1;
nodes = (
"1244 616 OFFCURVE",
"1305 665 OFFCURVE",
"1369 665 CURVE SMOOTH",
"1443 665 OFFCURVE",
"1481 616 OFFCURVE",
"1481 549 CURVE SMOOTH",
"1481 537 OFFCURVE",
"1480 525 OFFCURVE",
"1478 520 CURVE",
"1313 520 LINE",
"1318 480 OFFCURVE",
"1347 459 OFFCURVE",
"1387 459 CURVE SMOOTH",
"1409 459 OFFCURVE",
"1428 465 OFFCURVE",
"1447 476 CURVE",
"1471 437 LINE",
"1445 421 OFFCURVE",
"1411 411 OFFCURVE",
"1377 411 CURVE SMOOTH",
"1302 411 OFFCURVE",
"1244 458 OFFCURVE",
"1244 537 CURVE SMOOTH"
);
},
{
closed = 1;
nodes = (
"1421 595 OFFCURVE",
"1405 615 OFFCURVE",
"1370 615 CURVE SMOOTH",
"1342 615 OFFCURVE",
"1317 597 OFFCURVE",
"1312 562 CURVE",
"1421 562 LINE"
);
},
{
closed = 1;
nodes = (
"498 356 LINE SMOOTH",
"606 356 OFFCURVE",
"673 306 OFFCURVE",
"673 198 CURVE SMOOTH",
"673 90 OFFCURVE",
"606 37 OFFCURVE",
"501 37 CURVE SMOOTH",
"400 37 LINE",
"400 356 LINE"
);
},
{
closed = 1;
nodes = (
"559 88 OFFCURVE",
"601 120 OFFCURVE",
"601 198 CURVE SMOOTH",
"601 276 OFFCURVE",
"559 305 OFFCURVE",
"493 305 CURVE SMOOTH",
"471 305 LINE",
"471 88 LINE",
"493 88 LINE SMOOTH"
);
},
{
closed = 1;
nodes = (
"715 238 OFFCURVE",
"777 285 OFFCURVE",
"845 285 CURVE SMOOTH",
"912 285 OFFCURVE",
"974 238 OFFCURVE",
"974 157 CURVE SMOOTH",
"974 77 OFFCURVE",
"912 31 OFFCURVE",
"845 31 CURVE SMOOTH",
"777 31 OFFCURVE",
"715 77 OFFCURVE",
"715 157 CURVE SMOOTH"
);
},
{
closed = 1;
nodes = (
"902 203 OFFCURVE",
"881 233 OFFCURVE",
"845 233 CURVE SMOOTH",
"808 233 OFFCURVE",
"787 203 OFFCURVE",
"787 157 CURVE SMOOTH",
"787 112 OFFCURVE",
"808 82 OFFCURVE",
"845 82 CURVE SMOOTH",
"881 82 OFFCURVE",
"902 112 OFFCURVE",
"902 157 CURVE SMOOTH"
);
},
{
closed = 1;
nodes = (
"1074 278 LINE",
"1103 159 LINE SMOOTH",
"1108 135 OFFCURVE",
"1111 112 OFFCURVE",
"1116 88 CURVE",
"1118 88 LINE",
"1123 112 OFFCURVE",
"1128 136 OFFCURVE",
"1135 159 CURVE SMOOTH",
"1167 278 LINE",
"1230 278 LINE",
"1264 159 LINE SMOOTH",
"1270 135 OFFCURVE",
"1275 112 OFFCURVE",
"1280 88 CURVE",
"1283 88 LINE",
"1288 112 OFFCURVE",
"1291 135 OFFCURVE",
"1296 159 CURVE SMOOTH",
"1325 278 LINE",
"1391 278 LINE",
"1325 37 LINE",
"1241 37 LINE",
"1213 142 LINE SMOOTH",
"1207 165 OFFCURVE",
"1203 187 OFFCURVE",
"1198 212 CURVE",
"1195 212 LINE",
"1190 187 OFFCURVE",
"1186 164 OFFCURVE",
"1181 142 CURVE SMOOTH",
"1153 37 LINE",
"1073 37 LINE",
"1003 278 LINE"
);
},
{
closed = 1;
nodes = (
"1495 278 LINE",
"1500 247 LINE",
"1502 247 LINE",
"1525 267 OFFCURVE",
"1553 285 OFFCURVE",
"1589 285 CURVE SMOOTH",
"1647 285 OFFCURVE",
"1672 248 OFFCURVE",
"1672 187 CURVE SMOOTH",
"1672 37 LINE",
"1601 37 LINE",
"1601 180 LINE SMOOTH",
"1601 217 OFFCURVE",
"1590 230 OFFCURVE",
"1564 230 CURVE SMOOTH",
"1541 230 OFFCURVE",
"1528 221 OFFCURVE",
"1507 203 CURVE",
"1507 37 LINE",
"1437 37 LINE",
"1437 278 LINE"
);
}
);
width = 2000;
}
);
},
